<svg width="50" height="81" viewBox="0 0 50 81" fill="none" xmlns="http://www.w3.org/2000/svg">
<g clip-path="url(#clip0_3_2179)">
<path d="M24.75 22.06C38.1429 22.06 49 17.2336 49 11.28C49 5.32637 38.1429 0.5 24.75 0.5C11.3571 0.5 0.5 5.32637 0.5 11.28C0.5 17.2336 11.3571 22.06 24.75 22.06Z" stroke="white" stroke-miterlimit="10"/>
<path d="M24.75 26.78C38.1429 26.78 49 21.9536 49 16C49 10.0463 38.1429 5.21997 24.75 5.21997C11.3571 5.21997 0.5 10.0463 0.5 16C0.5 21.9536 11.3571 26.78 24.75 26.78Z" stroke="white" stroke-miterlimit="10"/>
<path d="M24.75 31.4899C38.1429 31.4899 49 26.6636 49 20.7099C49 14.7563 38.1429 9.92993 24.75 9.92993C11.3571 9.92993 0.5 14.7563 0.5 20.7099C0.5 26.6636 11.3571 31.4899 24.75 31.4899Z" stroke="white" stroke-miterlimit="10"/>
<path d="M24.75 35.53C38.1429 35.53 49 30.7036 49 24.75C49 18.7963 38.1429 13.97 24.75 13.97C11.3571 13.97 0.5 18.7963 0.5 24.75C0.5 30.7036 11.3571 35.53 24.75 35.53Z" stroke="white" stroke-miterlimit="10"/>
<path opacity="0.9" d="M24.75 39.58C38.1429 39.58 49 34.7536 49 28.8C49 22.8464 38.1429 18.02 24.75 18.02C11.3571 18.02 0.5 22.8464 0.5 28.8C0.5 34.7536 11.3571 39.58 24.75 39.58Z" stroke="white" stroke-miterlimit="10"/>
<path opacity="0.8" d="M24.75 43.6201C38.1429 43.6201 49 38.7937 49 32.8401C49 26.8864 38.1429 22.0601 24.75 22.0601C11.3571 22.0601 0.5 26.8864 0.5 32.8401C0.5 38.7937 11.3571 43.6201 24.75 43.6201Z" stroke="white" stroke-miterlimit="10"/>
<path opacity="0.7" d="M24.75 47.6601C38.1429 47.6601 49 42.8337 49 36.8801C49 30.9265 38.1429 26.1001 24.75 26.1001C11.3571 26.1001 0.5 30.9265 0.5 36.8801C0.5 42.8337 11.3571 47.6601 24.75 47.6601Z" stroke="white" stroke-miterlimit="10"/>
<path opacity="0.6" d="M24.75 51.6999C38.1429 51.6999 49 46.8735 49 40.9199C49 34.9663 38.1429 30.1399 24.75 30.1399C11.3571 30.1399 0.5 34.9663 0.5 40.9199C0.5 46.8735 11.3571 51.6999 24.75 51.6999Z" stroke="white" stroke-miterlimit="10"/>
<path opacity="0.6" d="M24.75 55.7499C38.1429 55.7499 49 50.9236 49 44.9699C49 39.0163 38.1429 34.1899 24.75 34.1899C11.3571 34.1899 0.5 39.0163 0.5 44.9699C0.5 50.9236 11.3571 55.7499 24.75 55.7499Z" stroke="white" stroke-miterlimit="10"/>
<path opacity="0.5" d="M24.75 59.79C38.1429 59.79 49 54.9636 49 49.01C49 43.0563 38.1429 38.23 24.75 38.23C11.3571 38.23 0.5 43.0563 0.5 49.01C0.5 54.9636 11.3571 59.79 24.75 59.79Z" stroke="white" stroke-miterlimit="10"/>
<path opacity="0.4" d="M24.75 63.83C38.1429 63.83 49 59.0036 49 53.05C49 47.0964 38.1429 42.27 24.75 42.27C11.3571 42.27 0.5 47.0964 0.5 53.05C0.5 59.0036 11.3571 63.83 24.75 63.83Z" stroke="white" stroke-miterlimit="10"/>
<path opacity="0.3" d="M24.75 67.8701C38.1429 67.8701 49 63.0437 49 57.0901C49 51.1364 38.1429 46.3101 24.75 46.3101C11.3571 46.3101 0.5 51.1364 0.5 57.0901C0.5 63.0437 11.3571 67.8701 24.75 67.8701Z" stroke="white" stroke-miterlimit="10"/>
<path opacity="0.3" d="M24.75 71.9201C38.1429 71.9201 49 67.0937 49 61.1401C49 55.1865 38.1429 50.3601 24.75 50.3601C11.3571 50.3601 0.5 55.1865 0.5 61.1401C0.5 67.0937 11.3571 71.9201 24.75 71.9201Z" stroke="white" stroke-miterlimit="10"/>
<path opacity="0.2" d="M24.75 75.9599C38.1429 75.9599 49 71.1335 49 65.1799C49 59.2263 38.1429 54.3999 24.75 54.3999C11.3571 54.3999 0.5 59.2263 0.5 65.1799C0.5 71.1335 11.3571 75.9599 24.75 75.9599Z" stroke="white" stroke-miterlimit="10"/>
<path opacity="0.1" d="M24.75 79.9999C38.1429 79.9999 49 75.1736 49 69.2199C49 63.2663 38.1429 58.4399 24.75 58.4399C11.3571 58.4399 0.5 63.2663 0.5 69.2199C0.5 75.1736 11.3571 79.9999 24.75 79.9999Z" stroke="white" stroke-miterlimit="10"/>
</g>
<defs>
<clipPath id="clip0_3_2179">
<rect width="49.51" height="80.5" fill="white"/>
</clipPath>
</defs>
</svg>
