<svg width="1920" height="1000" viewBox="0 0 1920 1000" fill="none" xmlns="http://www.w3.org/2000/svg">
<mask id="mask0_24_13" style="mask-type:alpha" maskUnits="userSpaceOnUse" x="-109" y="-153" width="1920" height="676">
<rect x="-109" y="-153" width="1920" height="676" fill="#061F45"/>
</mask>
<g mask="url(#mask0_24_13)">
<g opacity="0.1">
<path d="M-28.842 -146.501C-23.5926 -145.685 -18.5546 -143.786 -14.3668 -141.267C-7.70798 -137.266 -1.96936 -131.835 3.57842 -126.587C7.61707 -122.764 11.7863 -118.812 16.2684 -115.469C24.9569 -108.98 35.1333 -104.491 44.9767 -100.155C47.9796 -98.8347 51.091 -97.4637 54.1064 -96.0568C65.4826 -90.7557 79.6103 -83.0154 87.9809 -70.0259C96.7671 -56.3971 96.9952 -38.3517 88.5324 -26.145C80.9664 -15.2272 68.6756 -10.5542 56.7936 -6.02893C49.2372 -3.15535 41.4181 -0.178952 34.7785 4.37528C28.894 8.41304 23.6912 14.6443 18.6614 20.6742C11.6414 29.0908 4.38183 37.7912 -5.05819 41.0481C-23.9842 47.5885 -61.4498 30.9635 -69.7197 12.3695C-73.9654 2.81865 -74.3413 -8.16745 -74.3624 -18.5998C-74.4265 -49.4658 -71.5552 -80.7375 -65.82 -111.564C-64.0069 -121.306 -61.4375 -132.316 -53.7958 -139.587C-46.7964 -146.241 -37.5267 -147.851 -28.842 -146.501ZM-5.47315 39.268C3.4391 36.191 10.5124 27.7152 17.3557 19.5163C22.4825 13.3746 27.7746 7.0305 33.8942 2.83491C40.7308 -1.84928 48.6554 -4.86846 56.3172 -7.7848C68.4507 -12.3978 79.9127 -16.7602 87.1128 -27.1517C96.4627 -40.6403 93.3287 -58.2331 86.4698 -68.8832C78.3229 -81.5168 64.4433 -89.1171 53.2687 -94.3193C50.2591 -95.7168 47.1632 -97.0854 44.168 -98.4046C34.2375 -102.78 23.9739 -107.308 15.1494 -113.902C10.5933 -117.307 6.38333 -121.291 2.31157 -125.144C-3.17001 -130.332 -8.84245 -135.701 -15.3539 -139.612C-25.9423 -145.966 -42.1201 -148.244 -52.6209 -138.239C-59.7974 -131.401 -62.2728 -120.774 -64.0221 -111.352C-69.728 -80.6563 -72.5967 -49.5025 -72.5282 -18.7625C-72.5113 -8.52527 -72.1416 2.2401 -68.0384 11.4646C-60.2188 29.0759 -23.3667 45.4449 -5.47315 39.268Z" fill="white"/>
<path d="M-23.5725 -118.896C-19.2441 -118.223 -15.102 -116.65 -11.6511 -114.559C-6.16254 -111.231 -1.44798 -106.697 3.10893 -102.313C6.41809 -99.1296 9.84009 -95.8437 13.5106 -93.0598C20.6359 -87.6692 28.9997 -83.9529 37.0945 -80.3545C39.562 -79.2529 42.1183 -78.1205 44.6037 -76.9569C53.9785 -72.5513 65.6252 -66.1029 72.4867 -55.2371C79.4834 -44.1559 79.4009 -34.547 72.2154 -24.0656C65.9354 -14.9133 55.6601 -11.0452 45.7262 -7.30989C39.3508 -4.91357 32.7492 -2.43414 27.2279 1.42122C22.2473 4.89601 17.9858 10.8564 13.8646 16.6189C8.38043 24.2899 2.71048 32.2192 -4.98397 34.9426C-20.486 40.431 -45.2425 33.727 -52.0287 18.0831C-54.6755 11.9864 -54.0953 -1.47321 -53.6745 -11.3083C-53.5416 -14.3879 -53.4292 -17.0567 -53.4215 -19.1168C-53.3915 -28.5987 -54.188 -37.1025 -54.9566 -45.34C-56.2833 -59.5523 -57.5319 -72.9753 -54.4414 -89.3983C-52.8987 -97.5807 -50.7249 -106.831 -44.3705 -112.973C-38.523 -118.636 -30.7942 -120.019 -23.5725 -118.896ZM-5.43546 33.1491C1.67016 30.6298 7.14293 22.974 12.4472 15.5707C16.6727 9.66387 21.0384 3.5592 26.3133 -0.123276C32.0428 -4.12366 38.7576 -6.64461 45.246 -9.08247C55.3372 -12.8778 64.8686 -16.4561 70.7734 -25.0754C77.5308 -34.9306 77.589 -43.6141 70.9492 -54.116C64.3035 -64.6274 52.9185 -70.9252 43.7374 -75.2331C41.2674 -76.3943 38.7187 -77.5255 36.2572 -78.6177C28.0812 -82.2457 19.6303 -86.0009 12.3631 -91.5065C8.60922 -94.3456 5.15598 -97.6701 1.8119 -100.876C-2.67884 -105.198 -7.3291 -109.664 -12.6703 -112.902C-21.3209 -118.149 -34.5679 -119.997 -43.2061 -111.651C-49.1224 -105.931 -51.1946 -97.0623 -52.6753 -89.1913C-55.7112 -73.047 -54.4737 -59.7525 -53.1639 -45.678C-52.395 -37.4066 -51.5958 -28.8433 -51.621 -19.2761C-51.6301 -17.1741 -51.7444 -14.4971 -51.8751 -11.3918C-52.2864 -1.7411 -52.8579 11.4665 -50.3733 17.1832C-43.9173 32.0577 -20.2624 38.4046 -5.43546 33.1491Z" fill="white"/>
<path d="M-13.8403 -92.8594C-13.3666 -92.7855 -12.9002 -92.6793 -12.4411 -92.5406C-9.11026 -91.5263 -6.70614 -88.9873 -4.36971 -86.5342L-3.84492 -85.9827C3.20074 -78.6096 11.2915 -72.4073 20.1983 -67.5541C21.2975 -66.9549 22.4215 -66.3603 23.5589 -65.7551C33.128 -60.6813 43.9687 -54.9311 45.9575 -43.5146C47.8505 -32.6583 40.5413 -21.8777 33.0597 -15.4106C27.7819 -10.8397 21.9542 -7.02552 16.3214 -3.34037C10.5486 0.440382 4.58083 4.35012 -0.775466 9.05984C-2.18391 10.2999 -3.73261 11.9542 -5.37548 13.7113C-10.7903 19.494 -17.5334 26.6886 -24.719 24.5281C-40.0428 19.9076 -36.474 -12.4358 -33.8636 -36.0536C-33.024 -43.6485 -32.2987 -50.2043 -32.458 -54.0459C-32.5282 -55.7094 -32.6387 -57.4043 -32.7448 -59.0482C-33.1722 -65.5405 -33.6118 -72.2611 -31.5837 -78.7732C-30.0065 -83.8373 -26.3338 -88.5494 -22.0036 -91.0787C-19.2376 -92.6607 -16.4513 -93.2749 -13.8403 -92.8594ZM32.0013 -16.792C39.0523 -22.89 45.9555 -32.9873 44.2014 -43.0166C42.3533 -53.6143 32.3316 -58.9264 22.6436 -64.0691C21.4985 -64.6755 20.3687 -65.2794 19.2695 -65.8786C10.2149 -70.8135 1.99721 -77.1195 -5.15836 -84.602L-5.68897 -85.1629C-7.87692 -87.4669 -10.142 -89.8501 -13.073 -90.7433C-15.6117 -91.5166 -18.4229 -91.0741 -21.2055 -89.4527C-25.1076 -87.1755 -28.4269 -82.9115 -29.857 -78.3279C-31.7728 -72.1758 -31.3468 -65.6418 -30.9348 -59.3281C-30.8228 -57.6749 -30.7159 -55.9637 -30.6436 -54.2747C-30.4845 -50.2905 -31.211 -43.6594 -32.0592 -35.9903C-34.4546 -14.2852 -38.0775 18.5112 -24.0659 22.7425C-17.9268 24.5972 -11.8996 18.1634 -6.58663 12.4823C-4.91175 10.6882 -3.32342 8.99813 -1.84516 7.69351C3.6206 2.88342 9.64329 -1.05973 15.4805 -4.88077C21.0584 -8.53254 26.8217 -12.3064 32.0013 -16.792Z" fill="white"/>
<path d="M-41.3475 -166.751C-34.7379 -165.724 -27.6236 -162.319 -21.5034 -159.398C-19.159 -158.273 -16.9427 -157.218 -14.9775 -156.397C-1.51205 -150.779 10.7304 -142.029 20.4441 -131.094C21.7771 -129.593 22.9913 -128.204 24.1353 -126.893C29.6616 -120.582 33.6556 -116.022 41.1838 -109.907C50.2891 -102.523 64.3057 -94.1655 82.8552 -85.069C92.4856 -80.3429 108.905 -69.7347 110.651 -51.7879C111.81 -39.8748 105.818 -26.2923 95.0152 -16.3401C84.6169 -6.76452 71.3349 -1.39043 60.9196 2.21456C59.9751 2.54112 59.0153 2.86529 58.0632 3.19066C49.3653 6.15815 40.3738 9.22369 33.6285 15.6646C29.1711 19.9253 25.766 25.0511 22.4707 30.008C15.9257 39.8613 9.73495 49.1695 -3.66244 51.1444C-25.0186 54.2913 -44.813 49.9886 -56.6167 39.6415C-77.6046 21.2311 -87.6815 1.98922 -89.2974 -22.759C-91.2225 -52.3906 -84.0299 -93.4028 -76.0455 -120.902C-75.6116 -122.407 -75.1706 -123.978 -74.7109 -125.598C-70.2662 -141.432 -64.7359 -161.139 -50.654 -166.161C-47.8021 -167.188 -44.6368 -167.263 -41.3475 -166.751ZM32.4746 14.3272C39.5458 7.57344 48.7447 4.43869 57.6422 1.40078C58.5943 1.07542 59.5465 0.750049 60.4909 0.423489C70.7257 -3.12504 83.7662 -8.38451 93.8841 -17.7078C104.212 -27.2182 109.946 -40.1478 108.847 -51.4428C107.186 -68.5564 91.2968 -78.7863 81.9669 -83.3558C63.3166 -92.5018 49.1952 -100.927 39.9946 -108.384C32.3498 -114.585 28.3246 -119.184 22.7398 -125.555C21.5958 -126.865 20.3798 -128.246 19.0545 -129.746C9.50663 -140.494 -2.54342 -149.105 -15.7824 -154.628C-17.7843 -155.464 -20.022 -156.53 -22.3799 -157.666C-31.2707 -161.913 -42.3256 -167.199 -50.2139 -164.385C-63.2977 -159.715 -68.6669 -140.584 -72.982 -125.219C-73.4358 -123.59 -73.8863 -122.012 -74.3203 -120.507C-82.2584 -93.1781 -89.4136 -52.439 -87.4988 -23.0458C-85.8967 1.51436 -76.2966 19.8199 -55.3885 38.1587C-41.9033 49.9845 -19.88 51.6581 -3.77199 49.2846C8.77504 47.4311 14.7137 38.4979 21.003 29.036C24.3702 23.9719 27.8456 18.7471 32.4746 14.3272ZM33.0525 14.9918L33.0447 14.9906L33.0525 14.9918Z" fill="white"/>
<path d="M-36.2291 -181.563C-8.71914 -177.287 22.7688 -156.244 42.8111 -127.198C52.5668 -113.058 67.9938 -105.698 82.9073 -98.5771C103.243 -88.8722 122.443 -79.6989 123.909 -54.5635C126.371 -12.1948 87.2592 2.29583 63.8924 10.9568L62.0094 11.6533C42.6294 18.8625 35.7244 28.5351 24.2765 44.5528C22.6428 46.8437 20.9084 49.2627 19.0368 51.8294C3.6807 72.8619 -29.3418 66.6889 -30.7963 66.4036C-99.5883 53.3348 -100.901 -8.37717 -101.536 -38.0334C-101.631 -42.4108 -101.71 -46.1855 -102.008 -48.8104C-105.61 -80.6611 -92.7542 -142.149 -72.622 -168.501C-66.5324 -176.466 -60.1012 -180.97 -53.51 -181.882C-48.0426 -182.63 -42.23 -182.496 -36.2291 -181.563ZM-29.4547 64.7014C-24.1412 65.5274 4.34441 68.9829 17.6335 50.7827C19.5032 48.2241 21.228 45.8121 22.8618 43.5212C34.5353 27.1751 41.5866 17.3139 61.5347 9.88852L63.4272 9.18505C86.2606 0.728653 124.484 -13.4351 122.114 -54.293C120.713 -78.4037 101.93 -87.3685 82.0497 -96.8589C66.9482 -104.068 51.3274 -111.526 41.3248 -126.025C17.2363 -160.934 -23.491 -184.148 -53.4081 -180.023C-59.4797 -179.183 -65.4745 -174.949 -71.226 -167.422C-91.0865 -141.425 -103.758 -80.6861 -100.195 -49.1965C-99.8847 -46.485 -99.807 -42.6684 -99.7148 -38.2407C-99.0894 -9.04245 -97.7947 51.7197 -30.3083 64.5519L-30.3006 64.5531C-30.287 64.5636 -29.9876 64.6186 -29.4547 64.7014Z" fill="white"/>
<path d="M-15.0792 -223.5C0.761238 -221.037 16.2148 -213.938 28.9822 -202.559C35.0897 -197.115 39.1155 -192.037 41.6376 -186.593C43.6486 -182.251 44.7828 -177.454 45.8728 -172.815C46.257 -171.184 46.6593 -169.492 47.0879 -167.845C52.3467 -147.817 63.9259 -130.118 79.6919 -118.012C86.2026 -113.012 93.6058 -108.786 100.761 -104.7C114.519 -96.8421 128.752 -88.716 137.158 -74.7713C140.864 -68.628 142.62 -62.5092 142.392 -56.5889C142.192 -51.6105 140.598 -46.7558 138.83 -41.8014C133.94 -28.0653 127.987 -13.9368 117.603 -3.61443C107.404 6.52547 94.1964 11.8217 81.4105 16.9471C71.6611 20.8548 61.5781 24.8966 52.8784 31.0627C45.0173 36.6241 38.2429 43.9596 31.6892 51.0591C27.0701 56.0516 22.299 61.2234 17.1456 65.7865L16.5986 65.0932L17.1456 65.7865C-10.1698 89.9837 -47.4127 78.2887 -71.0037 60.9189C-80.2537 54.108 -87.438 45.0333 -93.8334 36.2502C-118.412 2.4479 -131.191 -29.1398 -132.894 -60.3403C-134.037 -81.308 -130.237 -104.979 -121.267 -132.713C-107.51 -175.254 -87.4357 -203.441 -61.6069 -216.507C-47.2873 -223.768 -30.9891 -225.973 -15.0792 -223.5ZM16.038 64.3894C21.1133 59.8901 25.8503 54.7638 30.4293 49.8072C37.0553 42.6345 43.9117 35.2188 51.9465 29.5239C60.8448 23.2198 71.0332 19.1353 80.8881 15.1847C93.4822 10.131 106.513 4.90867 116.416 -4.93951C126.493 -14.9632 132.333 -28.8389 137.138 -42.3349C138.845 -47.1296 140.395 -51.8223 140.579 -56.516C140.796 -62.0663 139.123 -67.8427 135.597 -73.6877C127.405 -87.2696 113.364 -95.2899 99.7821 -103.044C92.5767 -107.155 85.1309 -111.405 78.5326 -116.477C62.4792 -128.797 50.6846 -146.817 45.3332 -167.214C44.9004 -168.878 44.5 -170.579 44.1118 -172.228C43.042 -176.778 41.9357 -181.487 39.992 -185.666C37.5666 -190.901 33.6758 -195.797 27.7337 -201.089C2.63656 -223.449 -32.9966 -228.98 -60.9489 -214.85C-86.2723 -202.044 -105.999 -174.268 -119.576 -132.281C-128.465 -104.797 -132.237 -81.3576 -131.103 -60.6363C-129.422 -29.8024 -116.75 1.48143 -92.3647 35.0086C-86.0513 43.6945 -78.9512 52.6463 -69.8797 59.328C-46.7974 76.3316 -10.4403 87.8466 16.038 64.3894Z" fill="white"/>
<path d="M98.7605 -264.563C98.7834 -264.559 98.8063 -264.556 98.8293 -264.552C99.3016 -264.437 99.5533 -263.936 99.4006 -263.431C92.8607 -242.041 89.6201 -221.152 89.7526 -201.34C89.9889 -168.365 99.8635 -138.132 117.565 -116.218C120.723 -112.311 124.219 -108.536 127.609 -104.886C135.414 -96.4796 143.478 -87.7807 148.035 -76.7422C154.816 -60.3064 152.973 -38.7716 143.232 -20.5321C134.419 -4.03551 119.447 10.1249 101.074 19.3421C97.5545 21.109 93.8898 22.7106 90.3485 24.256C83.0551 27.4398 75.5074 30.7349 68.9578 35.612C60.7569 41.7166 54.2742 50.1781 48.002 58.3704C44.7935 62.5602 41.4759 66.884 37.9449 70.8892C20.128 91.0747 -4.55543 104.208 -29.7793 106.904C-30.7475 106.954 -52.734 107.872 -79.7321 87.2109C-85.855 82.5229 -95.0349 70.1933 -103.909 58.2638C-112.851 46.2482 -122.104 33.8233 -128.159 29.2549C-134.851 24.2098 -142.349 20.5071 -150.432 18.2486C-150.901 18.1168 -151.143 17.6092 -150.975 17.1069C-150.807 16.6045 -150.299 16.3145 -149.829 16.4382C-141.551 18.7438 -133.882 22.5319 -127.028 27.7029C-120.791 32.4088 -111.472 44.9279 -102.464 57.0376C-93.6556 68.873 -84.5492 81.1072 -78.5956 85.6681C-52.111 105.939 -29.9889 105.05 -29.7658 105.043C-5.05064 102.394 19.1835 89.5012 36.6727 69.6841C40.1586 65.7389 43.4478 61.4359 46.6414 57.2774C53.0001 48.9811 59.5807 40.4006 68.0104 34.1219C74.7416 29.1054 82.3937 25.7678 89.7856 22.5322C93.3004 20.9995 96.9385 19.4105 100.415 17.662C118.412 8.63793 133.069 -5.21082 141.688 -21.3349C151.156 -39.0633 152.961 -59.9664 146.39 -75.8913C141.951 -86.6511 133.988 -95.2336 126.287 -103.54C122.886 -107.208 119.363 -111.005 116.174 -114.95C98.2304 -137.161 88.2123 -167.777 87.981 -201.163C87.8386 -221.178 91.1169 -242.271 97.7157 -263.853C97.8458 -264.328 98.3096 -264.633 98.7605 -264.563Z" fill="white"/>
<path d="M163.72 -260.128C163.881 -260.103 164.039 -260.028 164.168 -259.898C164.51 -259.551 164.49 -258.966 164.126 -258.577C145.907 -239.111 133.654 -220.832 126.67 -202.69C117.908 -179.943 117.561 -156.727 125.705 -139C130.379 -128.813 137.845 -120.332 145.056 -112.127C151.65 -104.631 158.464 -96.8824 163.254 -87.7772C177.641 -60.4255 170.965 -21.9889 147.711 1.62497C140.187 9.27398 131.264 15.277 122.637 21.0909C117.167 24.7753 111.518 28.5832 106.287 32.7584C94.7684 41.9611 84.6541 53.4912 74.8624 64.6431C61.4608 79.912 47.6026 95.6979 30.0263 105.62C17.0136 112.969 1.54066 117.364 -17.2822 119.06C-34.488 120.614 -47.4301 119.094 -58.0088 114.279C-70.6025 108.553 -80.0039 97.957 -89.0897 87.7206C-95.0823 80.9736 -101.276 73.9936 -108.331 68.4504C-124.761 55.5495 -146.488 50.1908 -167.925 53.7571C-168.419 53.8397 -168.849 53.4955 -168.886 52.9858C-168.922 52.476 -168.553 51.9959 -168.059 51.9133C-146.154 48.277 -123.96 53.7421 -107.181 66.9243C-100.01 72.5526 -93.7639 79.5828 -87.7286 86.3868C-78.7512 96.5055 -69.4622 106.967 -57.1778 112.552C-46.8642 117.241 -34.1901 118.72 -17.2841 117.195C1.28104 115.517 16.5065 111.201 29.2818 103.992C46.5504 94.2403 60.2916 78.5874 73.5856 63.4445C83.4321 52.2255 93.6182 40.6226 105.273 31.3067C110.565 27.0737 116.252 23.2381 121.758 19.5341C130.299 13.7825 139.131 7.83255 146.512 0.329188C169.162 -22.6814 175.674 -60.1354 161.652 -86.7834C156.958 -95.7141 150.207 -103.394 143.676 -110.813C136.382 -119.107 128.84 -127.675 124.058 -138.089C115.707 -156.268 116.048 -180.023 124.999 -203.261C132.079 -221.657 144.47 -240.158 162.877 -259.831C163.121 -260.07 163.437 -260.172 163.72 -260.128Z" fill="white"/>
<path d="M191.26 -235.8C191.614 -235.745 191.893 -235.466 191.941 -235.08C192.01 -234.572 191.667 -234.07 191.172 -233.954C174.182 -229.975 158.753 -214.326 152.782 -195.009C147.498 -177.907 149.044 -158.488 157.146 -140.312C161.843 -129.769 168.522 -119.91 174.978 -110.372C186.541 -93.282 198.499 -75.6169 199.062 -53.8012C199.554 -34.7483 190.817 -13.6564 174.48 5.57937C163.606 18.3862 150.623 29.2914 138.072 39.8344C134.291 43.0159 130.376 46.3027 126.588 49.5843C108.322 65.4145 91.0443 82.8208 75.2236 101.312C73.7468 103.043 72.2739 104.792 70.7934 106.539C60.2431 119.034 49.3335 131.962 35.3647 140.147C6.20893 157.236 -27.7201 148.505 -45.3434 141.781C-56.6285 137.475 -67.5804 131.967 -78.1622 126.65C-91.1488 120.119 -104.58 113.374 -118.671 108.825C-138.527 102.419 -158.723 101.707 -175.533 106.833C-176.018 106.976 -176.496 106.7 -176.591 106.205C-176.695 105.71 -176.379 105.187 -175.894 105.043C-158.742 99.811 -138.18 100.52 -118.007 107.035C-103.797 111.62 -90.3098 118.398 -77.2655 124.955C-66.7125 130.259 -55.8031 135.744 -44.5911 140.022C-27.2467 146.643 6.09084 155.248 34.5957 138.546C48.2638 130.533 59.0618 117.748 69.4949 105.386C70.9772 103.63 72.4501 101.882 73.9346 100.152C89.8137 81.5774 107.171 64.0993 125.517 48.1973C129.316 44.9007 133.241 41.607 137.029 38.4266C149.522 27.9334 162.428 17.0837 173.191 4.41942C189.194 -14.4224 197.748 -35.021 197.272 -53.575C196.724 -74.8582 185.442 -91.5344 173.489 -109.19C166.992 -118.793 160.273 -128.717 155.518 -139.396C147.236 -157.97 145.663 -177.872 151.087 -195.424C157.268 -215.424 173.284 -231.638 190.937 -235.774C191.04 -235.809 191.153 -235.816 191.26 -235.8Z" fill="white"/>
<path d="M241.535 -257.325C241.703 -257.299 241.867 -257.214 241.997 -257.085C242.331 -256.73 242.293 -256.138 241.922 -255.759C227.312 -240.884 212.215 -225.505 200.974 -207.413C188.516 -187.366 182.884 -166.373 185.126 -148.287C187.956 -125.388 202.602 -107.5 216.76 -90.192C219.578 -86.7494 222.49 -83.1913 225.242 -79.6664C228.55 -75.4323 231.845 -70.8216 232.592 -65.1602C233.162 -60.8644 232.183 -56.4309 231.054 -51.8946C226.573 -33.9456 219.654 -10.9321 205.77 7.82498C190.03 29.0785 167.29 42.7969 145.289 56.058C126.649 67.293 107.384 78.9101 92.3459 95.0896C86.857 101 81.7959 107.659 76.9048 114.092C67.4907 126.486 57.7614 139.293 44.532 147.305C26.5419 158.195 2.93878 159.511 -25.6207 151.229C-37.2175 147.859 -48.6758 143.517 -59.7591 139.31C-76.333 133.019 -93.4706 126.515 -111.302 123.243C-145.897 116.899 -178.185 125.622 -197.663 146.613C-198.02 147.004 -198.593 147.041 -198.936 146.693C-199.28 146.353 -199.266 145.758 -198.901 145.369C-178.97 123.884 -146.037 114.941 -110.838 121.388C-92.8628 124.691 -75.6598 131.222 -59.0204 137.54C-47.9737 141.733 -36.5461 146.07 -25.007 149.414C3.08166 157.564 26.1932 156.315 43.7247 145.699C56.6212 137.895 66.2296 125.237 75.5286 113.003C80.4538 106.525 85.5411 99.8195 91.102 93.8357C106.331 77.442 125.724 65.7522 144.483 54.4434C166.31 41.2896 188.874 27.6785 204.365 6.75647C218.032 -11.7062 224.87 -34.4631 229.301 -52.2263C230.425 -56.7382 231.319 -60.7977 230.796 -64.7666C230.109 -69.9895 226.962 -74.3752 223.796 -78.4274C221.056 -81.9336 218.144 -85.4917 215.332 -88.925C201.015 -106.409 186.222 -124.497 183.323 -147.903C181.029 -166.426 186.767 -187.89 199.473 -208.337C210.838 -226.628 226.026 -242.094 240.71 -257.05C240.951 -257.273 241.258 -257.368 241.535 -257.325Z" fill="white"/>
<path d="M250.599 -226.909C250.729 -226.889 250.853 -226.836 250.969 -226.75C251.348 -226.456 251.4 -225.875 251.081 -225.445C224.524 -190.082 219.544 -139.727 239.228 -105.714C240.718 -103.142 242.363 -100.587 243.955 -98.1167C247.606 -92.4549 251.374 -86.6064 253.636 -79.9652C256.338 -72.0262 257.057 -62.4762 255.831 -50.7789C251.944 -13.6568 230.735 23.2787 200.486 45.6226C189.687 53.5992 177.749 59.8913 166.2 65.9663C153.938 72.4268 141.26 79.1089 130.019 87.7828C115.689 98.847 103.664 113.175 92.0234 127.031C85.2637 135.081 78.2769 143.398 70.8856 151.037C51.1774 171.402 34.0028 186.569 7.19346 181.362L-25.2128 173.035C-33.5918 171.26 -38.0588 170.758 -41.3317 170.392C-46.4206 169.828 -48.5302 169.592 -57.5013 165.46C-89.6431 150.641 -123.373 148.356 -152.487 159.013C-163.644 163.095 -175.11 169.41 -187.551 178.327C-187.977 178.631 -188.528 178.537 -188.784 178.118C-189.04 177.699 -188.901 177.115 -188.475 176.811C-175.892 167.79 -164.272 161.398 -152.95 157.249C-123.395 146.433 -89.1987 148.732 -56.6617 163.738C-47.9355 167.757 -45.9045 167.988 -40.9941 168.534C-37.6981 168.903 -33.1755 169.405 -24.6831 171.207L7.70778 179.531C33.6432 184.594 49.7299 170.376 69.6674 149.77C77.0075 142.182 83.9716 133.895 90.701 125.874C102.408 111.935 114.509 97.5183 129.011 86.321C140.389 77.5337 153.147 70.8135 165.482 64.3138C176.96 58.2699 188.835 52.0101 199.51 44.1238C229.302 22.1211 250.187 -14.2586 254.019 -50.8168C255.214 -62.2327 254.525 -71.5254 251.908 -79.207C249.711 -85.6444 245.996 -91.4089 242.406 -96.9855C240.802 -99.4746 239.145 -102.048 237.632 -104.657C227.76 -121.71 223.624 -143.419 225.992 -165.766C228.315 -187.699 236.719 -209.275 249.669 -226.523C249.927 -226.82 250.276 -226.959 250.599 -226.909Z" fill="white"/>
<path d="M284.945 -226.122C285.061 -226.104 285.17 -226.062 285.274 -225.995C285.673 -225.723 285.758 -225.146 285.461 -224.705L283.946 -222.443C277.82 -213.323 271.482 -203.891 266.026 -194.179C251.043 -167.509 246.273 -142.141 252.589 -122.742C255.051 -115.177 259.224 -108.305 263.256 -101.656C267.862 -94.0604 272.626 -86.2131 274.935 -77.2258C279.827 -58.1998 273.524 -38.0996 265.431 -15.6797C259.373 1.10329 253.107 18.4594 243.128 33.8585C224.952 61.9232 196.662 80.2987 169.31 98.0717C157.074 106.022 144.429 114.237 132.834 123.22C123.131 130.741 113.683 139.176 104.558 147.341C85.6964 164.199 66.1907 181.63 43.3391 191.863C6.83939 208.203 -32.6043 204.231 -70.745 200.395C-74.8433 199.984 -78.9341 199.574 -82.9978 199.185C-121.508 195.544 -170.226 195.132 -205.524 224.55C-205.926 224.891 -206.486 224.838 -206.779 224.447C-207.073 224.057 -206.98 223.466 -206.57 223.126C-170.733 193.253 -121.54 193.639 -82.6954 197.307C-78.6222 197.689 -74.5333 198.107 -70.4349 198.518C-32.5203 202.336 6.69147 206.28 42.7418 190.138C65.3115 180.03 84.6978 162.707 103.449 145.949C112.603 137.763 122.072 129.306 131.842 121.737C143.503 112.705 156.185 104.463 168.458 96.4927C195.632 78.8433 223.727 60.5889 241.661 32.8984C251.508 17.6975 257.731 0.460903 263.749 -16.2107C271.73 -38.3116 277.948 -58.1054 273.185 -76.6069C270.938 -85.3406 266.246 -93.0843 261.703 -100.569C257.618 -107.302 253.402 -114.265 250.871 -122.017C242.563 -147.537 253.69 -175.808 264.487 -195.032C269.983 -204.814 276.344 -214.276 282.493 -223.435L284.009 -225.696C284.239 -226.013 284.608 -226.175 284.945 -226.122Z" fill="white"/>
<path d="M315.119 -221.236C315.234 -221.218 315.344 -221.176 315.44 -221.11C315.841 -220.846 315.927 -220.269 315.637 -219.826C300.925 -197.556 289.262 -173.65 280.981 -148.78C278.784 -142.173 276.705 -135.1 276.43 -128.143C275.901 -114.561 282.044 -102.398 287.975 -90.6289C288.723 -89.1494 289.464 -87.6711 290.199 -86.202C303.909 -58.4814 308.765 -34.2086 305.032 -11.9796C298.632 26.1739 269.038 55.0881 236.657 83.7791C180.018 133.961 109.535 196.417 28.4297 210.49C2.20446 215.04 -24.3919 214.342 -50.105 213.671C-67.2649 213.221 -85.0092 212.756 -102.485 213.856C-140.643 216.255 -174.533 227.992 -197.921 246.909C-198.329 247.241 -198.888 247.179 -199.173 246.79C-199.458 246.392 -199.357 245.802 -198.949 245.47C-175.25 226.299 -140.976 214.411 -102.439 211.987C-84.8828 210.883 -67.0983 211.346 -49.9 211.802C-24.2655 212.468 2.23698 213.161 28.2959 208.643C108.872 194.665 179.125 132.417 235.569 82.3981C267.652 53.9721 296.976 25.3439 303.266 -12.1452C306.921 -33.9572 302.126 -57.8669 288.583 -85.2335C287.856 -86.7013 287.114 -88.1715 286.365 -89.651C280.329 -101.621 274.082 -113.994 274.633 -128.061C274.914 -135.261 277.031 -142.504 279.285 -149.255C287.629 -174.3 299.368 -198.37 314.187 -220.801C314.404 -221.129 314.773 -221.29 315.119 -221.236Z" fill="white"/>
<g filter="url(#filter0_d_24_13)">
<path d="M360.154 -209.198C360.384 -209.162 360.591 -209.029 360.726 -208.814C360.971 -208.39 360.833 -207.806 360.402 -207.512C343.673 -195.887 329.29 -184.93 322.635 -168.645C315.314 -150.732 319.78 -131.63 324.087 -113.158C324.948 -109.47 325.837 -105.661 326.605 -101.946C342.997 -23.0628 305.608 69.2927 237.706 117.647C225.514 126.324 212.394 133.731 199.693 140.893C191.438 145.546 182.9 150.365 174.715 155.483C156.514 166.854 139.083 180.301 122.219 193.308C110.826 202.093 99.0473 211.188 87.1113 219.569C50.3782 245.375 19.4917 258.642 -10.1071 261.323C-21.829 262.387 -33.6143 261.719 -45.0171 261.077C-50.6525 260.762 -56.4829 260.433 -62.2251 260.312C-114.54 259.261 -169.074 276.623 -215.781 309.201C-216.212 309.495 -216.761 309.401 -217.007 308.976C-217.253 308.551 -217.114 307.968 -216.683 307.674C-169.648 274.87 -114.73 257.383 -62.0358 258.442C-56.2613 258.561 -50.4231 258.891 -44.7648 259.209C-33.4327 259.849 -21.7087 260.507 -10.1108 259.466C19.1559 256.817 49.7551 243.665 86.198 218.058C98.098 209.696 109.856 200.623 121.23 191.852C138.132 178.818 155.602 165.334 173.887 153.909C182.116 148.773 190.671 143.948 198.945 139.281C211.592 132.144 224.675 124.765 236.774 116.149C304.043 68.2508 341.078 -23.2357 324.838 -101.381C324.072 -105.07 323.181 -108.872 322.326 -112.55C317.943 -131.32 313.409 -150.718 320.975 -169.231C327.846 -186.054 342.479 -197.207 359.481 -209.025C359.699 -209.184 359.932 -209.232 360.154 -209.198Z" fill="white"/>
</g>
<path d="M9.68673 222.327C13.06 222.856 15.5732 225.146 16.2451 228.295C16.9226 231.489 15.5528 234.684 12.6647 236.644C2.73386 243.366 -8.67051 245.766 -16.4968 246.599C-28.1823 247.838 -39.9693 246.752 -51.3665 245.698C-54.2511 245.433 -57.1357 245.168 -60.0114 244.934C-124.181 239.817 -183.729 255.466 -223.389 287.883C-223.767 288.191 -224.332 288.162 -224.645 287.821C-224.958 287.479 -224.911 286.947 -224.525 286.641C-203.312 269.3 -177.205 256.812 -146.938 249.518C-120.016 243.026 -89.8764 240.869 -59.7759 243.269C-56.8832 243.498 -53.9986 243.764 -51.1063 244.03C-39.8011 245.07 -28.1093 246.155 -16.6098 244.932C-9.00343 244.125 2.07453 241.802 11.6697 235.303C13.9591 233.752 15.0471 231.217 14.5069 228.689C13.974 226.199 11.9965 224.39 9.33614 223.973C-1.32811 222.299 -13.2691 224.615 -24.8192 226.849C-27.2739 227.326 -29.704 227.799 -32.1075 228.223C-51.3941 231.672 -71.317 232.098 -90.5855 232.506C-115.69 233.041 -141.647 233.591 -166.072 240.91C-182.131 245.719 -197.596 253.567 -210.798 263.614C-211.19 263.912 -211.75 263.861 -212.053 263.514C-212.355 263.159 -212.285 262.631 -211.894 262.332C-198.512 252.157 -182.832 244.2 -166.559 239.319C-141.88 231.928 -115.795 231.375 -90.5634 230.838C-71.3655 230.426 -51.5148 230.004 -32.3851 226.583C-29.997 226.156 -27.5685 225.691 -25.1291 225.212C-13.4145 222.95 -1.30719 220.601 9.68673 222.327Z" fill="white"/>
<path d="M369.145 -199.206C369.436 -199.161 369.677 -198.964 369.784 -198.661C369.948 -198.19 369.696 -197.632 369.23 -197.428C355.576 -191.232 335.251 -175.701 334.999 -162.021C334.741 -147.998 335.678 -139.866 339.179 -125.761C341.438 -116.667 344.128 -107.649 346.724 -98.922C356.723 -65.3706 366.171 -33.6788 352.141 1.04006C334.277 45.2494 294.055 87.2462 261.736 120.992C255.209 127.81 248.951 135.233 242.324 143.095C225.438 163.137 207.972 183.854 185.926 193.619C178.326 196.983 170.393 199.707 162.734 202.34C153.134 205.636 143.205 209.05 133.904 213.738C114.709 223.417 97.7901 238.688 81.4339 253.466C60.6444 272.236 39.1503 291.637 13.0389 299.331C-3.32006 304.147 -20.2541 303.923 -36.6256 303.702C-39.7346 303.664 -42.8417 303.617 -45.9426 303.613C-103.453 303.459 -163.056 315.748 -218.321 339.144C-218.795 339.348 -219.299 339.118 -219.446 338.641C-219.6 338.163 -219.335 337.616 -218.862 337.421C-163.37 313.925 -103.518 301.591 -45.7762 301.739C-42.6676 301.744 -39.5605 301.791 -36.4438 301.831C-20.1986 302.049 -3.40801 302.276 12.6973 297.529C38.3836 289.962 59.7091 270.712 80.3377 252.093C96.8001 237.231 113.819 221.866 133.256 212.065C142.673 207.319 152.662 203.882 162.322 200.569C169.946 197.948 177.835 195.243 185.366 191.909C206.989 182.331 224.294 161.799 241.037 141.937C247.392 134.402 253.965 126.599 260.541 119.738C292.735 86.1245 332.803 44.2884 350.511 0.458297C364.274 -33.6042 354.923 -64.9868 345.018 -98.2126C342.41 -106.958 339.717 -115.994 337.451 -125.131C333.904 -139.419 332.953 -147.663 333.214 -161.879C333.487 -176.606 354.096 -192.521 368.648 -199.115C368.812 -199.208 368.984 -199.231 369.145 -199.206Z" fill="white"/>
<path d="M391.235 -187.331C391.534 -187.284 391.789 -187.076 391.884 -186.759C392.031 -186.283 391.766 -185.736 391.294 -185.54C390.997 -185.419 361.647 -173 361.18 -149.739C361.051 -143.474 363.664 -133.841 366.962 -121.648C376.288 -87.1898 390.382 -35.1086 363.613 14.9099C332.207 73.5834 306.393 99.5766 287.541 118.563C284.583 121.538 281.787 124.355 279.127 127.133C272.058 134.51 264.84 142.587 257.207 151.137C243.458 166.531 229.232 182.457 215.174 194.912C203.58 205.181 186.797 211.087 170.566 216.794C156.323 221.801 142.872 226.529 134.671 233.722C130.596 237.296 124.796 243.292 117.455 250.895C92.8639 276.348 55.7009 314.807 24.2534 323.782C1.20754 330.359 -36.335 333.141 -66.5009 335.374C-89.9031 337.107 -110.121 338.604 -117.286 341.32C-120.916 342.696 -127.535 344.068 -136.691 345.977C-156.417 350.089 -186.223 356.303 -215.269 368.743C-215.742 368.947 -216.248 368.725 -216.402 368.247C-216.557 367.77 -216.299 367.222 -215.825 367.018C-186.604 354.504 -156.69 348.265 -136.889 344.14C-128.156 342.316 -121.254 340.878 -117.763 339.557C-110.349 336.754 -90.0159 335.241 -66.4684 333.497C-36.3828 331.268 1.05468 328.495 23.9233 321.966C54.8715 313.132 91.8078 274.906 116.251 249.615C123.623 241.983 129.445 235.958 133.589 232.326C142.083 224.885 155.707 220.092 170.131 215.02C186.181 209.378 202.784 203.536 214.082 193.524C228.051 181.147 242.233 165.273 255.951 149.916C263.603 141.352 270.822 133.268 277.921 125.862C280.591 123.076 283.397 120.253 286.357 117.269C305.116 98.3778 330.807 72.5083 362.065 14.1058C388.453 -35.1991 374.48 -86.8329 365.24 -121C361.901 -133.334 359.266 -143.08 359.394 -149.622C359.884 -174.224 390.457 -187.149 390.764 -187.278C390.927 -187.337 391.09 -187.353 391.235 -187.331Z" fill="white"/>
<path d="M450.831 -187.321C451.206 -187.263 451.5 -186.948 451.516 -186.526C451.545 -186.018 451.16 -185.54 450.67 -185.474C450.203 -185.404 403.675 -178.352 396.618 -144.434C394.547 -134.487 396.681 -121.113 399.151 -105.629C405.393 -66.448 413.948 -12.7818 367.485 45.7399C335.897 85.5349 313.068 113.317 294.726 135.644C275.916 158.535 262.333 175.07 250.705 190.8C225.578 224.809 167.64 237.783 156.276 240.035C145.665 242.143 127.68 262.947 108.63 284.969C90.9557 305.41 72.6839 326.538 57.4309 336.354C-1.78942 374.481 -58.8263 392.726 -116.951 392.151C-183.562 391.489 -210.461 411.81 -232.069 428.144C-236.245 431.297 -240.184 434.277 -244.239 436.996C-244.668 437.282 -245.215 437.18 -245.459 436.747C-245.704 436.323 -245.542 435.743 -245.112 435.449C-241.103 432.757 -237.185 429.799 -233.035 426.658C-211.19 410.151 -184.004 389.606 -116.777 390.28C-59.0172 390.857 -2.30977 372.703 56.5863 334.787C71.5909 325.124 89.7665 304.107 107.343 283.786C126.621 261.488 144.829 240.434 156.085 238.2C167.325 235.97 224.629 223.141 249.31 189.743C260.963 173.975 274.567 157.418 293.397 134.505C311.738 112.186 334.557 84.4108 366.134 44.6308C412.026 -13.182 403.557 -66.3478 397.368 -105.168C394.87 -120.841 392.717 -134.377 394.858 -144.675C402.218 -180.015 450.089 -187.261 450.571 -187.328C450.666 -187.33 450.754 -187.333 450.831 -187.321Z" fill="white"/>
</g>
<g opacity="0.1">
<path d="M299.709 1337.02C299.324 1337.8 299.027 1337.94 298.753 1338.06C298.271 1338.29 297.776 1338.18 297.464 1337.79C297.144 1337.4 297.229 1336.72 297.678 1336.29C297.835 1336.13 298.007 1336.04 298.186 1335.99C299.008 1334.1 300.946 1325.99 305.292 1295.22C305.422 1294.29 305.526 1293.57 305.59 1293.13C306.997 1262.66 295.519 1227.7 274.102 1197.18C253.299 1167.55 225.913 1145.5 198.978 1136.7C197.719 1136.28 196.442 1135.88 195.17 1135.47C181.031 1130.95 166.409 1126.27 159.382 1113C153.014 1100.98 154.339 1083.16 162.921 1065.36C169.858 1050.95 180.271 1038.29 190.332 1026.05L192.813 1023.03C222.697 986.574 258.824 937.723 273.022 883.236C287.541 827.53 273.27 773.967 238.32 752.955C221.68 742.951 201.22 740.071 181.431 737.296C173.169 736.139 164.634 734.93 156.463 733.232C139.836 729.766 100.646 717.72 96.0414 680.638C94.394 667.36 97.6201 652.908 100.732 638.939C104.579 621.714 108.202 605.446 103.549 591.114C94.1418 562.129 57.7778 560.164 24.4384 560.6C-29.8871 561.304 -81.2198 545.954 -130.868 531.097C-135.501 529.705 -140.121 528.33 -144.742 526.956C-161.425 522.009 -175.673 500.866 -182.669 488.702C-193.211 470.417 -200.976 449.333 -202.968 433.673C-203.034 433.115 -202.655 432.51 -202.114 432.333C-201.569 432.145 -201.072 432.456 -201.006 433.013C-197.111 463.779 -169.987 517.186 -143.92 524.904C-139.299 526.279 -134.67 527.657 -130.045 529.045C-80.5224 543.863 -29.3112 559.188 24.7553 558.487C58.6656 558.043 95.6617 560.084 105.411 590.112C110.237 604.973 106.372 622.299 102.63 639.061C99.559 652.841 96.3788 667.095 97.9767 679.991C102.452 715.972 140.845 727.754 157.147 731.148C165.27 732.839 173.78 734.037 182.01 735.193C201.952 737.995 222.577 740.894 239.49 751.056C257.8 762.065 270.692 781.27 276.779 806.589C282.388 829.965 281.724 857.26 274.902 883.435C260.572 938.422 224.236 987.574 194.168 1024.26L191.682 1027.29C181.725 1039.4 171.42 1051.92 164.626 1066.04C156.37 1083.18 155.059 1100.26 161.128 1111.71C167.858 1124.42 182.178 1128.99 196.023 1133.42C197.304 1133.83 198.576 1134.24 199.84 1134.65C227.085 1143.56 254.749 1165.81 275.739 1195.71C297.72 1227.02 309.016 1261.53 307.546 1292.9L307.531 1293.01C307.473 1293.45 307.367 1294.19 307.231 1295.16C302.821 1326.45 300.869 1334.66 299.709 1337.02Z" fill="white"/>
<path d="M248.905 1338.83C248.018 1340.63 247.124 1341.85 246.278 1342.33C245.762 1342.63 245.197 1342.46 245.014 1341.95C244.832 1341.44 245.099 1340.79 245.615 1340.5C247.872 1339.21 252.699 1324.6 253.503 1305.56C258.951 1258.84 251.155 1217.18 231.557 1188.17C209.903 1156.13 172.231 1140.17 135.57 1147.52C128.472 1148.94 121.253 1151.21 114.28 1153.4C105.928 1156.03 97.2869 1158.75 88.7226 1160.05C78.2263 1161.67 70.837 1160.22 66.1072 1155.65C63.0927 1152.74 61.7359 1148.28 62.364 1143.42C63.0108 1138.46 65.6325 1133.69 69.5581 1130.33C112.715 1093.47 148.167 1062.21 178.879 1023.56C204.486 991.348 236.117 941.054 241.446 884.355C246.371 831.931 224.652 785.946 187.382 769.926C177.002 765.461 161.355 762.584 144.775 759.532C116.558 754.344 84.5793 748.455 72.019 732.911C58.7813 716.526 65.7939 693.483 72.5716 671.212C78.8847 650.471 85.4117 629.024 76.4647 611.99C57.7212 576.301 10.3102 575.914 -31.5243 575.569L-34.0784 575.553C-107.163 574.935 -173.298 542.778 -220.308 484.997C-220.637 484.599 -220.535 483.93 -220.095 483.496C-219.655 483.061 -219.035 483.036 -218.711 483.445C-171.998 540.864 -106.293 572.81 -33.6908 573.424L-31.1367 573.441C11.1404 573.785 59.064 574.176 78.2359 610.689C87.5564 628.429 80.8912 650.325 74.4495 671.494C67.5321 694.239 60.9904 715.716 73.6167 731.335C85.8237 746.447 117.503 752.274 145.456 757.415C162.123 760.478 177.86 763.38 188.395 767.907C226.297 784.209 248.412 830.92 243.412 884.144C238.027 941.459 206.112 992.226 180.284 1024.72C149.437 1063.58 113.881 1094.94 70.6126 1131.89C67.1883 1134.82 64.8979 1138.97 64.3335 1143.31C63.7792 1147.53 64.9706 1151.41 67.585 1153.94C71.9356 1158.16 78.8813 1159.45 88.8158 1157.94C97.2305 1156.64 105.796 1153.96 114.071 1151.35C121.102 1149.15 128.37 1146.86 135.575 1145.41C154.513 1141.61 173.805 1143.71 191.369 1151.46C208.197 1158.88 222.671 1171.08 233.241 1186.72C253.082 1216.09 260.988 1258.21 255.482 1305.34C254.877 1319.68 251.926 1332.68 248.905 1338.83Z" fill="white"/>
<path d="M218.034 1302.41C217.975 1302.53 217.911 1302.66 217.848 1302.77C217.56 1303.31 216.954 1303.58 216.493 1303.37C216.031 1303.16 215.901 1302.5 216.177 1302C223.602 1287.96 230.777 1203.77 202.858 1189.46C173.414 1174.37 153.061 1170.46 110.253 1187.2C79.7682 1199.12 48.292 1200.05 30.0584 1189.55C21.6128 1184.69 16.5972 1177.55 15.5662 1168.89C11.9928 1139.2 68.2718 1097.75 102.146 1075.69C135.131 1054.21 158.136 1011.23 170.495 988.138C171.899 985.511 173.181 983.111 174.343 980.999C178.417 973.568 183.549 966.746 188.983 959.519C199.071 946.107 210.506 930.897 217.843 907.685C230.491 867.685 229.966 842.247 216.03 819.89C199.984 794.15 166.788 784.66 143.218 779.771L141.901 779.5C115.715 774.076 61.2326 762.791 50.7959 729.09C42.4776 702.249 47.0208 677.671 51.0219 655.975C52.1028 650.115 53.1266 644.58 53.851 639.236C57.0912 615.427 52.0844 610.3 42.1173 600.077L40.9682 598.901C30.7909 588.436 -0.608552 584.811 -45.192 588.951C-98.1558 593.865 -159.333 576.37 -176.823 570.889C-212.063 559.846 -233.906 550.022 -234.116 549.924C-234.577 549.713 -234.709 549.082 -234.44 548.554C-234.152 548.01 -233.546 547.74 -233.079 547.941C-232.862 548.042 -211.099 557.822 -175.958 568.836C-158.55 574.296 -97.6361 591.72 -44.9934 586.831C0.743252 582.584 31.8105 586.278 42.4646 597.237L43.6136 598.414C53.9707 609.036 59.1768 614.364 55.8044 639.153C55.0725 644.554 54.0474 650.113 52.9517 656.003C48.9953 677.441 44.5116 701.73 52.6717 728.097C62.825 760.891 116.714 772.042 142.602 777.405L143.919 777.676C167.771 782.619 201.375 792.239 217.727 818.489C231.997 841.379 232.565 867.314 219.7 908.007C212.215 931.665 200.64 947.057 190.423 960.646C185.051 967.79 179.981 974.528 175.999 981.793C174.837 983.905 173.56 986.295 172.16 988.912C159.69 1012.21 136.471 1055.58 102.923 1077.44C69.5698 1099.17 14.1159 1139.86 17.5245 1168.23C18.4993 1176.31 23.2317 1183.02 31.2319 1187.63C49.0494 1197.88 79.9265 1196.94 109.898 1185.21C153.381 1168.2 174.055 1172.16 203.959 1187.49C233.194 1202.49 225.78 1286.65 218.034 1302.41Z" fill="white"/>
<path d="M170.636 948.607C168.587 952.769 166.363 956.92 163.949 961.064C146.791 990.546 122.671 1015.81 103.58 1034.52C78.479 1059.12 51.8052 1082.32 24.3013 1103.44C23.1098 1104.36 21.9147 1105.27 20.7148 1106.19C7.29125 1116.45 -6.58615 1127.06 -16.624 1141.11C-30.8302 1161 -36.3712 1187.6 -31.0828 1210.54C-30.9562 1211.06 -31.2915 1211.68 -31.8077 1211.91C-32.3288 1212.14 -32.8537 1211.9 -32.9718 1211.37C-38.395 1187.83 -32.6896 1160.5 -18.082 1140.04C-7.8241 1125.67 6.21508 1114.94 19.8004 1104.55C21.0003 1103.63 22.1869 1102.72 23.382 1101.81C50.8051 1080.76 77.3931 1057.63 102.43 1033.1C121.403 1014.5 145.367 989.412 162.354 960.215C179.778 930.275 187.724 899.376 184.708 873.223C180.778 839.106 158.924 815.418 141.285 801.555C125.826 789.405 108.092 779.968 90.9495 770.83C83.7886 767.011 76.3761 763.067 69.2255 758.98C54.787 750.717 38.4342 740.199 26.6162 724.864C14.0016 708.497 8.46969 688.69 11.0361 669.091C11.8973 662.533 13.6115 655.495 15.2697 648.694C19.6507 630.73 23.7968 613.757 14.1495 603.401C9.11665 597.991 1.30846 596.33 -5.66642 595.421C-28.7413 592.398 -53.4103 595.553 -77.2681 598.601C-96.1514 601.013 -115.672 603.509 -134.429 602.972C-143.124 602.723 -151.809 601.815 -160.215 600.938C-172.853 599.618 -185.928 598.261 -199.137 599.129C-224.734 600.821 -246.999 611.79 -260.215 629.234C-260.586 629.721 -261.201 629.861 -261.584 629.552C-261.977 629.239 -261.998 628.604 -261.627 628.117C-247.971 610.108 -225.11 598.791 -198.886 597.058C-185.517 596.173 -172.378 597.544 -159.672 598.868C-151.296 599.745 -142.636 600.642 -134.01 600.887C-115.395 601.425 -95.9393 598.938 -77.1295 596.532C-53.1633 593.469 -28.3774 590.302 -5.08441 593.355C2.16391 594.304 10.2949 596.049 15.6534 601.804C25.9438 612.846 21.4753 631.152 17.1516 648.856C15.5055 655.591 13.8035 662.563 12.9668 668.99C10.4727 688.051 15.8804 707.371 28.2055 723.361C39.8541 738.485 56.0577 748.895 70.371 757.084C77.5048 761.163 84.9005 765.101 92.0529 768.917C109.255 778.079 127.051 787.553 142.613 799.781C160.497 813.825 182.647 837.857 186.642 872.58C189.289 895.62 183.629 922.204 170.636 948.607Z" fill="white"/>
<path d="M365.667 1204.6C365.558 1204.83 365.384 1205.02 365.162 1205.15C364.656 1205.44 364.066 1205.27 363.868 1204.76C350.908 1172.44 327.969 1150.37 253.772 1140.2C211.536 1134.4 199.759 1127.89 196.495 1108.56C192.464 1084.65 198.166 1073.83 211.96 1047.67C213.903 1043.98 216.001 1040 218.249 1035.63C222.48 1027.44 227.91 1017.95 234.199 1006.95C255.065 970.462 283.638 920.501 304.214 856.187C330.645 773.586 210.535 730.831 165.318 714.733L164.501 714.439C121.173 699.01 119.587 686.676 114.884 650.068C114.614 647.995 114.342 645.837 114.047 643.598C112.789 634.029 112.546 626.011 112.331 618.945C111.635 595.68 111.216 581.635 73.8796 551.303C42.6461 525.917 -12.4097 523.876 -56.6525 522.244C-81.8508 521.304 -103.611 520.502 -117.181 515.83C-154.999 502.829 -163.187 452.49 -163.269 451.98C-163.349 451.423 -162.98 450.828 -162.438 450.662C-161.89 450.487 -161.381 450.806 -161.3 451.363C-161.222 451.859 -153.184 501.149 -116.333 513.818C-102.996 518.406 -81.36 519.203 -56.3036 520.132C-11.8083 521.786 43.5582 523.837 75.23 549.56C113.178 580.396 113.609 594.767 114.323 618.587C114.531 625.603 114.771 633.56 116.023 643.032C116.319 645.271 116.59 647.428 116.86 649.502C121.46 685.294 123.001 697.347 165.366 712.435L166.184 712.728C211.84 728.986 333.109 772.153 306.098 856.604C285.443 921.17 256.791 971.277 235.86 1007.86C229.585 1018.82 224.16 1028.31 219.966 1036.45C217.708 1040.83 215.601 1044.81 213.667 1048.5C200.146 1074.15 194.549 1084.76 198.464 1107.92C201.333 1124.94 210.204 1132.06 254.298 1138.11C329.291 1148.41 352.525 1170.85 365.721 1203.72C365.833 1204 365.805 1204.32 365.667 1204.6Z" fill="white"/>
</g>
</g>
<g opacity="0.1">
<path d="M1515.64 1414.24C1516.01 1414.99 1516.28 1415.13 1516.54 1415.24C1516.99 1415.46 1517.45 1415.37 1517.73 1415C1518.02 1414.62 1517.93 1413.98 1517.51 1413.57C1517.36 1413.42 1517.2 1413.33 1517.03 1413.28C1516.24 1411.48 1514.31 1403.76 1509.77 1374.53C1509.63 1373.64 1509.52 1372.96 1509.45 1372.54C1507.64 1343.62 1517.69 1310.55 1537.02 1281.79C1555.8 1253.87 1580.81 1233.21 1605.61 1225.1C1606.77 1224.72 1607.95 1224.35 1609.12 1223.98C1622.14 1219.82 1635.61 1215.52 1641.9 1202.99C1647.6 1191.64 1646.07 1174.72 1637.83 1157.75C1631.16 1144.01 1621.3 1131.9 1611.77 1120.19L1609.43 1117.31C1581.13 1082.43 1546.85 1035.74 1532.78 983.909C1518.4 930.915 1530.73 880.223 1562.76 860.612C1578.01 851.276 1596.91 848.734 1615.2 846.286C1622.83 845.265 1630.72 844.198 1638.26 842.663C1653.61 839.53 1689.72 828.466 1693.36 793.323C1694.67 780.739 1691.44 766.995 1688.32 753.712C1684.47 737.331 1680.84 721.862 1684.91 708.305C1693.14 680.891 1726.8 679.366 1757.69 680.091C1808.03 681.267 1855.33 667.182 1901.08 653.548C1905.35 652.271 1909.61 651.01 1913.87 649.749C1929.24 645.212 1942.09 625.282 1948.36 613.805C1957.83 596.554 1964.67 576.62 1966.25 561.779C1966.3 561.251 1965.94 560.674 1965.44 560.5C1964.93 560.317 1964.48 560.607 1964.42 561.135C1961.33 590.292 1937.09 640.715 1913.07 647.795C1908.81 649.056 1904.55 650.32 1900.29 651.594C1854.65 665.192 1807.47 679.254 1757.36 678.083C1725.94 677.345 1691.7 678.936 1683.17 707.337C1678.95 721.394 1682.82 737.87 1686.56 753.81C1689.64 766.914 1692.82 780.469 1691.56 792.691C1688.01 826.791 1652.64 837.612 1637.59 840.679C1630.1 842.208 1622.23 843.265 1614.63 844.285C1596.2 846.757 1577.14 849.315 1561.64 858.8C1544.86 869.075 1533.24 887.178 1528.02 911.145C1523.22 933.273 1524.29 959.179 1531.04 984.08C1545.24 1036.39 1579.72 1083.37 1608.19 1118.46L1610.54 1121.35C1619.97 1132.94 1629.73 1144.92 1636.26 1158.38C1644.19 1174.72 1645.69 1190.94 1640.26 1201.75C1634.24 1213.74 1621.05 1217.95 1608.29 1222.02C1607.12 1222.4 1605.94 1222.78 1604.78 1223.15C1579.69 1231.35 1554.43 1252.21 1535.48 1280.38C1515.64 1309.88 1505.75 1342.53 1507.64 1372.3L1507.65 1372.41C1507.72 1372.83 1507.83 1373.53 1507.97 1374.45C1512.58 1404.18 1514.52 1411.99 1515.64 1414.24Z" fill="white"/>
<path d="M1562.73 1416.44C1563.58 1418.16 1564.43 1419.32 1565.22 1419.78C1565.71 1420.07 1566.23 1419.91 1566.39 1419.43C1566.55 1418.95 1566.29 1418.34 1565.81 1418.05C1563.7 1416.81 1558.98 1402.9 1557.92 1384.83C1552.09 1340.44 1558.62 1300.99 1576.29 1273.64C1595.81 1243.44 1630.45 1228.65 1664.54 1235.96C1671.13 1237.38 1677.86 1239.6 1684.36 1241.75C1692.14 1244.32 1700.19 1246.98 1708.15 1248.3C1717.9 1249.93 1724.72 1248.63 1729.02 1244.33C1731.77 1241.6 1732.95 1237.38 1732.29 1232.76C1731.61 1228.05 1729.1 1223.5 1725.4 1220.27C1684.81 1184.9 1651.44 1154.9 1622.34 1117.94C1598.08 1087.13 1567.94 1039.12 1562.05 985.265C1556.62 935.476 1575.97 892.044 1610.23 877.192C1619.77 873.053 1634.22 870.469 1649.53 867.728C1675.58 863.069 1705.11 857.781 1716.49 843.149C1728.48 827.725 1721.6 805.795 1714.95 784.598C1708.75 764.859 1702.35 744.447 1710.35 728.368C1727.12 694.678 1771.04 694.754 1809.79 694.819L1812.15 694.827C1879.85 694.924 1940.59 665.029 1983.17 610.642C1983.47 610.267 1983.36 609.632 1982.95 609.215C1982.53 608.799 1981.96 608.77 1981.67 609.154C1939.35 663.201 1879.01 692.9 1811.76 692.804L1809.39 692.795C1770.23 692.726 1725.84 692.649 1708.69 727.117C1700.35 743.862 1706.89 764.702 1713.21 784.849C1720 806.495 1726.42 826.936 1714.98 841.638C1703.93 855.863 1674.67 861.096 1648.86 865.712C1633.47 868.463 1618.94 871.07 1609.26 875.267C1574.42 890.381 1554.71 934.498 1560.23 985.047C1566.17 1039.48 1596.59 1087.95 1621.06 1119.03C1650.29 1156.19 1683.75 1186.27 1724.45 1221.74C1727.67 1224.55 1729.87 1228.52 1730.46 1232.63C1731.05 1236.65 1730.01 1240.32 1727.63 1242.7C1723.67 1246.65 1717.25 1247.82 1708.02 1246.29C1700.21 1244.98 1692.23 1242.35 1684.52 1239.81C1677.97 1237.65 1671.19 1235.41 1664.5 1233.97C1646.89 1230.18 1629.05 1231.99 1612.91 1239.18C1597.44 1246.07 1584.24 1257.51 1574.7 1272.25C1556.81 1299.93 1550.19 1339.83 1556.08 1384.6C1556.88 1398.21 1559.83 1410.57 1562.73 1416.44Z" fill="white"/>
<path d="M1590.72 1382.17C1590.78 1382.28 1590.84 1382.4 1590.9 1382.51C1591.18 1383.03 1591.74 1383.29 1592.17 1383.09C1592.59 1382.89 1592.7 1382.27 1592.44 1381.8C1585.32 1368.41 1577.27 1288.45 1602.9 1275.13C1629.92 1261.09 1648.71 1257.57 1688.65 1273.86C1717.09 1285.45 1746.27 1286.63 1762.99 1276.84C1770.73 1272.3 1775.26 1265.57 1776.07 1257.37C1778.88 1229.22 1726.05 1189.37 1694.3 1168.12C1663.38 1147.43 1641.35 1106.43 1629.52 1084.41C1628.17 1081.9 1626.95 1079.61 1625.84 1077.6C1621.94 1070.51 1617.07 1063.99 1611.91 1057.08C1602.34 1044.26 1591.5 1029.72 1584.31 1007.62C1571.93 969.55 1571.99 945.418 1584.52 924.334C1598.96 900.059 1629.56 891.365 1651.31 886.947L1652.53 886.702C1676.7 881.8 1726.98 871.602 1736.09 839.72C1743.35 814.33 1738.73 790.966 1734.66 770.342C1733.56 764.771 1732.52 759.51 1731.76 754.432C1728.36 731.81 1732.91 726.992 1741.97 717.385L1743.02 716.279C1752.27 706.445 1781.3 703.298 1822.67 707.643C1871.82 712.802 1928.21 696.773 1944.32 691.736C1976.78 681.587 1996.86 672.469 1997.05 672.379C1997.47 672.182 1997.58 671.585 1997.33 671.082C1997.05 670.563 1996.48 670.3 1996.06 670.488C1995.86 670.581 1975.86 679.657 1943.49 689.78C1927.45 694.797 1871.31 710.761 1822.46 705.63C1780.01 701.172 1751.29 704.387 1741.6 714.687L1740.56 715.792C1731.14 725.774 1726.41 730.781 1729.95 754.335C1730.71 759.467 1731.76 764.751 1732.87 770.35C1736.89 790.729 1741.45 813.818 1734.33 838.761C1725.47 869.783 1675.74 879.861 1651.84 884.707L1650.63 884.952C1628.61 889.419 1597.64 898.233 1582.93 922.988C1570.09 944.574 1570 969.179 1582.6 1007.91C1589.92 1030.43 1600.91 1045.14 1610.6 1058.13C1615.69 1064.96 1620.5 1071.4 1624.31 1078.33C1625.43 1080.35 1626.65 1082.63 1627.99 1085.12C1639.93 1107.35 1662.17 1148.72 1693.61 1169.77C1724.87 1190.7 1776.93 1229.83 1774.24 1256.73C1773.48 1264.38 1769.2 1270.71 1761.87 1275C1745.53 1284.56 1716.91 1283.38 1688.95 1271.97C1648.38 1255.42 1629.29 1258.99 1601.84 1273.26C1575.01 1287.21 1583.28 1367.14 1590.72 1382.17Z" fill="white"/>
<path d="M1926.2 1033.78C1929.01 1039.45 1933.56 1045.38 1940.67 1051.88C1953.11 1063.27 1965.67 1067.88 1981.57 1073.7C1999.43 1080.25 2021.66 1088.39 2051.66 1109.87C2078.36 1128.97 2105.92 1170.88 2106.19 1171.3C2106.5 1171.79 2107.06 1171.97 2107.44 1171.72C2107.82 1171.48 2107.87 1170.88 2107.56 1170.41C2107.29 1169.99 2079.47 1127.67 2052.39 1108.3C2022.13 1086.65 1999.76 1078.45 1981.79 1071.87C1966.11 1066.12 1953.72 1061.58 1941.62 1050.5C1920.6 1031.26 1922.88 1017.87 1926.02 999.33C1926.74 995.051 1927.5 990.626 1928.01 985.814L1928.54 980.679C1930.81 958.601 1932.32 944.024 1940.78 933.147C1947.54 924.468 1960.79 935.338 1982.76 953.344C1988.86 958.339 1995.77 964.004 2003.28 969.821C2033.34 993.12 2058.44 994.382 2066.68 994.795C2067.84 994.854 2068.75 994.903 2069.15 994.984L2069.3 994.999C2069.91 995.005 2084.33 995.109 2091.92 984.075C2096.5 977.415 2097.56 968.16 2095.07 956.546C2094.95 956.015 2094.47 955.578 2093.99 955.596C2093.52 955.614 2093.22 956.057 2093.34 956.597C2095.71 967.65 2094.73 976.428 2090.43 982.695C2083.5 992.777 2070.07 993.058 2069.01 993.06C2068.47 992.961 2067.62 992.918 2066.37 992.862C2058.27 992.448 2033.6 991.209 2004.07 968.319C1996.59 962.524 1989.69 956.865 1983.61 951.876C1961.56 933.802 1946.99 921.866 1939.32 931.72C1930.6 942.929 1929.07 957.704 1926.76 980.073L1926.23 985.207C1925.73 989.961 1924.99 994.348 1924.26 998.606C1922.15 1011.12 1920.32 1021.88 1926.2 1033.78Z" fill="white"/>
<path d="M1907.46 1048.26C1907.99 1049.32 1908.53 1050.36 1909.11 1051.39C1919.83 1070.37 1939.43 1078.39 1969.1 1090.51C1975.87 1093.28 1982.87 1096.15 1990.52 1099.44C2031.8 1117.2 2082.5 1170.8 2103.22 1202.67C2103.53 1203.15 2104.08 1203.34 2104.46 1203.09C2104.84 1202.85 2104.9 1202.26 2104.58 1201.78C2083.68 1169.65 2032.54 1115.57 1990.84 1097.64C1983.16 1094.34 1976.15 1091.47 1969.37 1088.7C1940.16 1076.75 1920.85 1068.86 1910.56 1050.63C1897.69 1027.84 1900.57 997.889 1903.38 968.923C1904.24 959.956 1904.54 951.164 1904.83 942.666C1905.51 922.965 1906.09 905.942 1913.93 900.676C1924.43 893.617 1937.54 900.686 1955.28 914.384C1959.92 917.971 1964.72 922.032 1969.81 926.341C1983.07 937.57 1998.11 950.301 2018.75 961.957C2042.9 975.588 2061.71 980.269 2074.68 975.886C2084.94 972.417 2087.45 964.456 2087.55 964.118C2087.69 963.65 2087.42 963.062 2086.96 962.8C2086.49 962.538 2086 962.706 2085.86 963.174C2085.84 963.25 2083.49 970.582 2074.24 973.88C2065.62 976.96 2049.07 977.095 2019.26 960.265C1998.81 948.72 1983.86 936.062 1970.68 924.9C1965.57 920.576 1960.76 916.499 1956.06 912.879C1941 901.253 1925.24 890.595 1912.79 898.965C1904.36 904.629 1903.77 922.033 1903.08 942.183C1902.79 950.659 1902.48 959.418 1901.62 968.317C1898.91 996.34 1896.12 1025.28 1907.46 1048.26Z" fill="white"/>
<path d="M1895.4 1081.05C1907.19 1104.95 1923.05 1113.26 1952.82 1121.05C1974.33 1126.68 2001.1 1133.69 2023.12 1145.64C2039.8 1154.68 2064.26 1182.13 2077.35 1197.68C2082.27 1203.53 2087.11 1209.73 2091.73 1216.11C2092.07 1216.57 2092.62 1216.72 2092.98 1216.45C2093.33 1216.17 2093.35 1215.58 2093.02 1215.12C2088.36 1208.68 2083.48 1202.43 2078.52 1196.54C2065.32 1180.85 2040.63 1153.15 2023.62 1143.93C2001.37 1131.86 1974.49 1124.83 1952.88 1119.17C1914.96 1109.24 1900.15 1098.47 1887.17 1054.25C1881.31 1034.31 1883.39 996.238 1886.64 976.788C1888.38 966.373 1889.87 948.852 1890.97 936.06C1891.2 933.368 1891.42 930.867 1891.62 928.651C1892.02 924.026 1892.18 919.24 1892.33 914.601C1892.61 905.713 1892.9 896.516 1895.05 888.289C1898.13 876.507 1906.91 865.255 1919.6 866.695C1931.81 868.079 1942.18 879.773 1952.2 891.092C1953.38 892.423 1954.55 893.744 1955.71 895.026C1970.56 911.513 1995.03 929.258 2019.55 941.313C2046.59 954.608 2068.27 958.257 2079.05 951.327C2079.43 951.082 2079.47 950.498 2079.18 950.024C2078.87 949.543 2078.31 949.352 2077.94 949.593C2054.79 964.472 1985.5 925.644 1956.82 893.804C1955.67 892.519 1954.51 891.207 1953.34 889.886C1943.51 878.797 1932.37 866.224 1919.41 864.752C1905.89 863.22 1896.58 875.009 1893.35 887.385C1891.15 895.808 1890.85 905.11 1890.57 914.105C1890.43 918.711 1890.28 923.472 1889.87 928.042C1889.67 930.257 1889.46 932.768 1889.23 935.46C1888.14 948.215 1886.65 965.693 1884.92 976.038C1881.54 996.258 1879.49 1033.95 1885.51 1054.45C1888.6 1065.06 1891.81 1073.78 1895.4 1081.05Z" fill="white"/>
<path d="M1868.69 1079.49C1874.99 1092.21 1883.17 1103.77 1890.31 1113.2C1894.78 1119.09 1899.64 1125.21 1905.69 1129.43C1913.89 1135.15 1923.18 1136.66 1931.37 1137.99C1970.52 1144.35 2005.27 1151.69 2034.26 1177.28C2042.71 1184.74 2050.58 1193.83 2057.64 1204.33C2057.95 1204.8 2058.52 1204.98 2058.89 1204.73C2059.26 1204.47 2059.31 1203.88 2058.99 1203.41C2051.81 1192.74 2043.8 1183.48 2035.18 1175.88C2003.36 1147.78 1961.69 1141.01 1931.26 1136.07C1923.26 1134.77 1914.2 1133.3 1906.39 1127.85C1900.64 1123.84 1895.91 1117.9 1891.57 1112.17C1881.14 1098.37 1868.44 1080 1862.93 1060.21C1856.07 1035.58 1860.76 1011.29 1866.25 990.772C1867.16 987.36 1868.12 983.961 1869.06 980.546C1874.14 962.39 1879.39 943.607 1878.8 923.136C1878.64 917.482 1878.02 911.611 1877.44 905.918C1876.11 893.084 1874.74 879.82 1878.51 868.833C1880.3 863.649 1882.92 860.215 1886.31 858.625C1889.1 857.314 1892.46 857.227 1895.7 857.144L1923.52 856.423C1929.63 856.265 1936.55 856.087 1943.04 859.214C1951.89 863.477 1958.24 872.85 1964.39 881.927C1965.59 883.687 1966.81 885.499 1968.04 887.244C1978.43 902.005 1996.22 915.973 2016.84 925.57C2038.61 935.692 2061.78 940.269 2082.1 938.463C2082.57 938.423 2082.83 937.949 2082.69 937.418C2082.55 936.884 2082.05 936.478 2081.59 936.523C2036.91 940.507 1988.54 913.544 1969.37 886.288C1968.16 884.569 1966.93 882.756 1965.75 881.015C1959.41 871.67 1952.87 862.01 1943.45 857.478C1936.55 854.152 1929.41 854.343 1923.11 854.498L1895.29 855.22C1892.06 855.3 1888.39 855.4 1885.34 856.83C1881.61 858.582 1878.75 862.293 1876.84 867.852C1872.92 879.207 1874.32 892.703 1875.68 905.75C1876.26 911.399 1876.86 917.231 1877.03 922.804C1877.61 942.979 1872.4 961.625 1867.36 979.651C1866.41 983.069 1865.46 986.478 1864.54 989.892C1858.98 1010.66 1854.24 1035.27 1861.24 1060.41C1863.07 1066.96 1865.66 1073.36 1868.69 1079.49Z" fill="white"/>
<path d="M1846.99 1101.46C1848.68 1104.86 1850.53 1108.34 1852.56 1111.89C1856.87 1119.44 1862.27 1127.98 1869.76 1134.17C1878.04 1141.03 1887.7 1144.08 1896.11 1146.41C1907.3 1149.5 1918.72 1151.93 1929.76 1154.29C1951.79 1158.98 1974.57 1163.85 1996.31 1174.12C2002.2 1176.9 2009.77 1180.88 2016.03 1187.01C2024.85 1195.64 2030.07 1207.56 2033.22 1215.79C2033.42 1216.32 2033.96 1216.66 2034.41 1216.54C2034.86 1216.42 2035.06 1215.9 2034.85 1215.37C2031.61 1206.93 2026.25 1194.66 2017.06 1185.67C2010.54 1179.3 2002.76 1175.2 1996.71 1172.34C1974.76 1161.96 1951.88 1157.08 1929.74 1152.37C1918.72 1150.02 1907.33 1147.59 1896.2 1144.51C1887.99 1142.24 1878.58 1139.27 1870.63 1132.69C1863.47 1126.76 1858.22 1118.47 1854.03 1111.12C1843.9 1093.38 1838.25 1077.83 1836.74 1063.57C1834.41 1041.52 1842.01 1022.32 1849.35 1003.75C1852.11 996.762 1854.96 989.539 1857.27 982.25C1866.95 951.58 1867.45 915.262 1858.7 879.998L1858.61 879.654C1857.04 873.338 1855.26 866.17 1857.9 861.448C1859.86 857.93 1864 856.446 1867.33 855.252C1888.25 847.741 1911.98 839.239 1937.56 843.624C1941.53 844.301 1946.14 845.384 1950.25 848.244C1954.72 851.351 1958.16 856.244 1961.48 860.982L1961.89 861.572C1973.92 878.715 1993.17 896.488 2013.37 909.122C2036.72 923.718 2058.62 929.658 2075.05 925.853C2075.5 925.746 2075.71 925.236 2075.51 924.703C2075.31 924.17 2074.79 923.825 2074.34 923.933C2038.81 932.163 1985.67 892.588 1963.22 860.604L1962.8 860.014C1959.35 855.093 1955.78 850 1950.96 846.649C1946.48 843.536 1941.39 842.359 1937.46 841.691C1911.46 837.238 1887.56 845.814 1866.46 853.385C1862.93 854.652 1858.53 856.229 1856.32 860.186C1853.35 865.502 1855.23 873.085 1856.89 879.776L1856.98 880.12C1865.64 915.009 1865.14 950.946 1855.57 981.283C1853.29 988.517 1850.44 995.715 1847.68 1002.67C1840.26 1021.44 1832.59 1040.85 1834.96 1063.38C1836.19 1075.09 1840.15 1087.64 1846.99 1101.46Z" fill="white"/>
<path d="M1816.93 1114.19C1824.93 1130.32 1836.21 1142.6 1848.75 1148.57C1856.79 1152.38 1865.14 1153.56 1873.21 1154.69L1874.64 1154.89C1912.53 1160.25 1950.9 1169.7 1988.7 1182.97C1996.47 1185.7 2003.91 1188.65 2009.56 1194.71C2015.91 1201.51 2018.75 1210.98 2021.12 1220.09C2021.26 1220.64 2021.76 1221.04 2022.24 1221C2022.72 1220.96 2022.99 1220.49 2022.85 1219.94C2020.39 1210.51 2017.43 1200.7 2010.67 1193.45C2004.64 1186.99 1996.93 1183.92 1988.9 1181.1C1950.98 1167.79 1912.49 1158.31 1874.48 1152.93L1873.06 1152.73C1865.12 1151.61 1856.91 1150.47 1849.15 1146.78C1835 1140.04 1822.02 1124.15 1814.42 1104.26C1804.47 1078.23 1804.46 1049.93 1814.4 1028.54C1817.9 1021.01 1822.62 1014.22 1827.18 1007.66C1832.65 999.788 1838.31 991.647 1841.94 982.124C1850.53 959.674 1847.2 932.269 1843.99 905.77C1842.57 894.125 1841.12 882.081 1840.68 870.619C1840.51 866 1840.5 860.749 1842.59 856.899C1844.77 852.885 1849 850.783 1852.73 848.933L1889.41 830.732C1896.6 827.16 1904.75 823.117 1913.84 823.381C1921.04 823.588 1928.47 826.407 1935.65 829.136L1963.72 839.808C1970.31 842.318 1977.78 845.162 1983.32 851.144C1987.39 855.541 1990.02 861.247 1992.56 866.772C1993.39 868.586 1994.25 870.459 1995.16 872.276C2006.79 895.618 2051.11 907.066 2072.78 901.892C2073.24 901.783 2073.44 901.262 2073.24 900.727C2073.05 900.201 2072.51 899.848 2072.05 899.956C2051.44 904.879 2007.69 893.681 1996.69 871.636C1995.79 869.86 1994.96 868.002 1994.13 866.207C1991.51 860.501 1988.8 854.596 1984.44 849.889C1978.51 843.494 1970.45 840.419 1963.97 837.954L1935.9 827.283C1928.57 824.501 1921 821.618 1913.51 821.405C1904.06 821.134 1895.74 825.266 1888.4 828.91L1851.72 847.111C1847.81 849.046 1843.38 851.252 1841 855.653C1838.71 859.866 1838.71 865.409 1838.9 870.285C1839.33 881.846 1840.8 893.93 1842.22 905.619C1845.4 931.871 1848.69 959.025 1840.27 981.059C1836.69 990.401 1831.09 998.473 1825.66 1006.27C1821.07 1012.89 1816.31 1019.73 1812.76 1027.37C1802.61 1049.2 1802.61 1078.1 1812.77 1104.67C1814.04 1107.98 1815.43 1111.15 1816.93 1114.19Z" fill="white"/>
<path d="M1788.53 1109.5C1790.22 1112.93 1791.94 1116.22 1793.64 1119.35C1802.09 1134.93 1813.99 1154.43 1831.26 1167.06C1849.3 1180.25 1869.82 1183.63 1889.65 1186.88C1893.42 1187.5 1897.31 1188.14 1901.1 1188.84C1931.79 1194.47 1953.13 1206.93 1964.49 1225.86C1966.92 1229.9 1968.87 1234.23 1970.31 1238.73C1970.48 1239.26 1970.99 1239.64 1971.46 1239.56C1971.92 1239.49 1972.17 1238.99 1971.99 1238.45C1970.5 1233.77 1968.46 1229.26 1965.93 1225.05C1954.18 1205.49 1932.34 1192.66 1901.02 1186.9C1897.21 1186.2 1893.32 1185.56 1889.54 1184.94C1869.93 1181.72 1849.65 1178.38 1832.01 1165.49C1815.15 1153.16 1803.44 1133.97 1795.12 1118.63C1780.22 1091.15 1764.01 1051.26 1771.44 1017.45C1772.67 1011.83 1774.55 1006.42 1776.37 1001.19C1778.7 994.494 1781.12 987.568 1782.22 980.099C1784 967.987 1782.33 954.755 1780.71 941.97C1778.98 928.27 1777.19 914.103 1779.75 901.541C1784.52 878.114 1802.01 865.595 1820.53 852.342C1831.62 844.401 1843.09 836.195 1851.58 825.419C1854.16 822.137 1857.28 817.64 1858.47 811.865C1859.7 805.836 1858.84 798.813 1858 792.023C1856.76 781.947 1855.58 772.423 1861.23 767.026C1865.58 762.864 1873.38 762.753 1882.1 766.716C1886.1 768.532 1890.04 770.986 1893.85 773.35C1897.25 775.458 1900.76 777.64 1904.34 779.403C1916.82 785.54 1929.73 786.533 1942.22 787.488C1951.03 788.162 1960.14 788.866 1969.03 791.361C1996.43 799.054 2019.63 822.024 2044.97 849.014C2045.36 849.425 2045.93 849.485 2046.23 849.139C2046.52 848.793 2046.46 848.172 2046.07 847.761C2020.48 820.514 1997.03 797.309 1969.11 789.473C1960.05 786.925 1950.85 786.222 1941.95 785.54C1929.63 784.596 1916.89 783.612 1904.76 777.647C1901.27 775.924 1897.8 773.779 1894.45 771.695C1890.58 769.291 1886.58 766.804 1882.45 764.929C1873.11 760.674 1864.67 760.865 1859.89 765.439C1853.69 771.364 1854.98 781.791 1856.23 791.879C1857.04 798.498 1857.89 805.35 1856.71 811.063C1855.59 816.508 1852.6 820.819 1850.12 823.969C1841.75 834.596 1830.36 842.749 1819.35 850.636C1801.43 863.465 1782.89 876.724 1778 900.748C1775.38 913.627 1777.19 927.964 1778.95 941.832C1780.55 954.478 1782.21 967.561 1780.46 979.411C1779.38 986.716 1777 993.57 1774.69 1000.19C1772.85 1005.48 1770.96 1010.93 1769.7 1016.64C1762.98 1047.19 1775.15 1082.47 1788.53 1109.5Z" fill="white"/>
<path d="M1754.78 1124.11C1759.9 1134.44 1765.92 1144.43 1773.01 1153.8C1793.16 1180.4 1822.32 1200.04 1851.02 1206.32C1855.45 1207.3 1860.03 1208.01 1864.46 1208.72C1878.13 1210.88 1892.27 1213.11 1903.99 1222.9C1915.18 1232.22 1920.84 1245.84 1923.62 1255.62C1923.77 1256.16 1924.27 1256.55 1924.75 1256.5C1925.22 1256.45 1925.47 1255.97 1925.32 1255.43C1921.2 1240.9 1914.13 1229.15 1904.87 1221.42C1892.68 1211.25 1878.27 1208.97 1864.34 1206.77C1859.93 1206.08 1855.37 1205.36 1851 1204.4C1822.78 1198.22 1794.11 1178.92 1774.29 1152.76C1744.02 1112.79 1733.7 1061.1 1728.1 1020.54C1725.04 998.421 1731.21 987.874 1735.28 980.904C1735.82 979.977 1736.32 979.121 1736.75 978.319C1743.52 965.653 1745.65 949.932 1747.71 934.721C1749.86 918.823 1752.08 902.37 1759.66 889.705C1767.51 876.586 1780.53 868.497 1793.11 860.67C1806.4 852.403 1820.15 843.86 1827.97 829.343C1835.52 815.312 1837.42 796.04 1833.61 772.05L1833.33 770.305C1832.52 765.347 1831.68 760.22 1832.53 755.724C1835 742.735 1850.26 739.736 1863.61 744.338C1870.82 746.829 1877.9 750.946 1884.75 754.934C1890.55 758.301 1896.54 761.788 1902.65 764.328C1914.15 769.104 1925.93 770.491 1937.31 771.837C1943.28 772.541 1949.46 773.272 1955.51 774.483C1982.81 779.94 2010.79 796.301 2032.28 819.379C2032.67 819.801 2033.23 819.851 2033.54 819.513C2033.85 819.163 2033.77 818.544 2033.39 818.129C2011.57 794.704 1983.17 778.089 1955.46 772.553C1949.34 771.327 1943.14 770.596 1937.12 769.886C1925.86 768.558 1914.2 767.176 1902.95 762.502C1896.97 760.021 1891.04 756.564 1885.31 753.238C1878.37 749.198 1871.2 745.028 1863.79 742.478C1849.65 737.6 1833.44 740.93 1830.78 754.963C1829.86 759.79 1830.74 765.112 1831.57 770.251L1831.85 771.983C1835.59 795.535 1833.76 814.421 1826.38 828.108C1818.74 842.298 1805.15 850.743 1792 858.916C1779.28 866.825 1766.13 874.998 1758.1 888.405C1750.36 901.347 1748.1 917.972 1745.94 934.045C1743.89 949.102 1741.8 964.677 1735.16 977.088C1734.74 977.874 1734.25 978.704 1733.72 979.616C1729.78 986.352 1723.18 997.635 1726.33 1020.42C1730.65 1051.8 1737.81 1089.83 1754.78 1124.11Z" fill="white"/>
<path d="M1800.39 1109.04C1810.46 1129.38 1826.2 1146.55 1843.65 1155.9C1854.91 1161.93 1866.82 1164.87 1878.34 1167.71C1879.82 1168.07 1881.3 1168.44 1882.78 1168.81C1907.09 1174.92 1931.59 1183.01 1955.59 1192.86C1963.18 1195.98 1971.06 1199.57 1976.69 1206.14C1980.64 1210.76 1983.63 1217.09 1985.55 1224.96C1986.17 1227.5 1986.68 1230.1 1987.05 1232.7C1987.12 1233.24 1987.58 1233.7 1988.07 1233.73C1988.56 1233.77 1988.89 1233.35 1988.81 1232.81C1988.43 1230.14 1987.91 1227.46 1987.28 1224.85C1985.26 1216.6 1982.09 1209.91 1977.86 1204.97C1971.88 1198 1963.73 1194.28 1955.89 1191.05C1931.8 1181.17 1907.22 1173.05 1882.82 1166.92C1881.33 1166.55 1879.85 1166.18 1878.37 1165.82C1866.97 1163 1855.18 1160.1 1844.15 1154.19C1824.97 1143.9 1807.89 1123.91 1798.45 1100.7C1789.95 1079.76 1787.31 1055.81 1791.03 1033.25C1793.6 1017.62 1799.03 1002.92 1804.28 988.719C1811.83 968.278 1819.64 947.14 1818.96 923.047C1818.82 918.322 1818.36 913.394 1817.92 908.627C1816.78 896.513 1815.62 883.986 1819.8 874.066C1823.7 864.78 1831.39 859.374 1839.54 853.636C1845.82 849.208 1852.31 844.639 1856.86 838.13C1861.23 831.858 1863.63 824.006 1865.95 816.418C1867.01 812.96 1868.11 809.393 1869.37 806.027C1872.22 798.449 1878.83 785.642 1891.2 784.986C1896.95 784.687 1902.8 786.959 1909.01 789.375C1912.64 790.783 1916.38 792.243 1920.09 793.125C1927.07 794.791 1944.26 803.877 1960.67 821.193C1974.54 835.83 1988.41 841.957 2001.81 847.871C2016.39 854.311 2030.16 860.388 2043.78 876.646C2044.15 877.088 2044.71 877.181 2045.04 876.867C2045.37 876.552 2045.33 875.931 2044.97 875.499C2030.99 858.808 2016.33 852.334 2002.16 846.076C1988.96 840.248 1975.3 834.223 1961.76 819.931C1944.88 802.115 1927.59 793.001 1920.09 791.214C1916.51 790.359 1912.82 788.93 1909.26 787.54C1903.15 785.161 1896.84 782.711 1890.74 783.03C1877.59 783.727 1870.65 797.079 1867.69 804.973C1866.41 808.38 1865.31 811.981 1864.25 815.464C1861.96 822.937 1859.6 830.671 1855.36 836.744C1850.96 843.059 1844.55 847.56 1838.36 851.917C1830.42 857.504 1822.21 863.282 1818.15 872.944C1813.8 883.271 1814.99 896.052 1816.14 908.405C1816.58 913.129 1817.04 918.023 1817.17 922.683C1817.85 946.4 1810.1 967.38 1802.61 987.663C1797.33 1001.94 1791.87 1016.71 1789.27 1032.51C1785.5 1055.45 1788.19 1079.83 1796.85 1101.15C1797.93 1103.82 1799.11 1106.46 1800.39 1109.04Z" fill="white"/>
<path d="M1628.73 1046.89C1630.7 1050.86 1632.83 1054.82 1635.13 1058.78C1651.52 1086.91 1674.29 1111.11 1692.29 1129.05C1715.95 1152.62 1741.05 1174.88 1766.88 1195.18C1768 1196.07 1769.12 1196.94 1770.25 1197.82C1782.86 1207.68 1795.89 1217.88 1805.43 1231.31C1818.92 1250.31 1824.5 1275.61 1819.98 1297.32C1819.87 1297.82 1820.19 1298.41 1820.68 1298.63C1821.16 1298.86 1821.64 1298.63 1821.74 1298.13C1826.38 1275.85 1820.63 1249.86 1806.76 1230.31C1797.02 1216.58 1783.83 1206.26 1771.07 1196.28C1769.94 1195.4 1768.83 1194.52 1767.71 1193.65C1741.95 1173.41 1716.93 1151.22 1693.33 1127.71C1675.44 1109.88 1652.82 1085.85 1636.59 1057.99C1619.95 1029.41 1612.08 1000.02 1614.43 975.233C1617.5 942.897 1637.35 920.624 1653.46 907.635C1667.58 896.251 1683.86 887.462 1699.58 878.952C1706.15 875.395 1712.96 871.721 1719.51 867.911C1732.75 860.205 1747.72 850.378 1758.42 835.937C1769.83 820.525 1774.63 801.782 1771.92 783.161C1771.01 776.93 1769.31 770.236 1767.66 763.767C1763.3 746.681 1759.17 730.537 1767.94 720.801C1772.51 715.714 1779.72 714.211 1786.16 713.413C1807.49 710.761 1830.4 713.986 1852.55 717.101C1870.09 719.566 1888.21 722.116 1905.58 721.783C1913.63 721.627 1921.66 720.847 1929.44 720.094C1941.12 718.959 1953.21 717.794 1965.46 718.741C1989.21 720.586 2010.02 731.202 2022.55 747.878C2022.9 748.344 2023.48 748.482 2023.83 748.192C2024.18 747.899 2024.19 747.297 2023.84 746.832C2010.89 729.615 1989.52 718.663 1965.2 716.774C1952.8 715.809 1940.65 716.986 1928.9 718.125C1921.15 718.878 1913.14 719.648 1905.16 719.801C1887.92 720.136 1869.85 717.595 1852.39 715.136C1830.13 712.006 1807.12 708.769 1785.59 711.447C1778.89 712.28 1771.39 713.86 1766.52 719.271C1757.17 729.652 1761.62 747.064 1765.92 763.904C1767.55 770.31 1769.25 776.941 1770.13 783.047C1772.76 801.157 1768.07 819.439 1756.92 834.496C1746.38 848.738 1731.54 858.464 1718.42 866.101C1711.88 869.905 1705.09 873.572 1698.53 877.126C1682.75 885.659 1666.42 894.482 1652.2 905.939C1635.87 919.098 1615.75 941.695 1612.63 974.605C1610.56 996.442 1616.25 1021.72 1628.73 1046.89Z" fill="white"/>
<path d="M1710.5 1084.54C1721.86 1107.46 1736.92 1128.43 1750.61 1146.08C1769.8 1170.81 1793.34 1198.46 1822.49 1215.98C1829.26 1220.04 1836.37 1223.58 1843.24 1226.99C1855.96 1233.31 1869.14 1239.86 1880.3 1249.96C1885.53 1254.68 1890.16 1260.12 1894.07 1266.09C1894.39 1266.58 1894.95 1266.77 1895.34 1266.52C1895.73 1266.27 1895.77 1265.67 1895.46 1265.19C1891.43 1259.03 1886.65 1253.43 1881.25 1248.54C1869.84 1238.22 1856.53 1231.61 1843.66 1225.21C1836.83 1221.81 1829.76 1218.31 1823.08 1214.29C1794.27 1196.98 1770.92 1169.55 1751.88 1145C1728.03 1114.26 1700.03 1073.41 1695.06 1029.96C1690.75 992.312 1704.05 960.155 1719.26 927.808C1732.52 899.625 1746.33 873.048 1769.34 857.708C1775.16 853.832 1781.59 850.681 1787.82 847.649C1794.67 844.308 1801.74 840.851 1808.07 836.395C1822.57 826.183 1830.09 811.438 1828.71 795.953C1828.11 789.319 1825.97 782.283 1823.89 775.468C1820.24 763.496 1816.8 752.183 1821.56 743.726C1827.13 733.86 1841.03 734.489 1853.91 736.413L1930.24 747.808C1948.04 750.462 1966.45 753.212 1984.25 761.157C2001.21 768.728 2017.03 780.784 2030.01 796.054C2030.39 796.495 2030.95 796.589 2031.28 796.263C2031.61 795.937 2031.58 795.322 2031.2 794.881C2017.98 779.341 2001.87 767.052 1984.59 759.342C1966.55 751.295 1948.02 748.526 1930.09 745.845L1853.75 734.453C1840.4 732.466 1825.94 731.852 1819.97 742.447C1814.83 751.561 1818.56 763.835 1822.18 775.707C1824.22 782.403 1826.33 789.327 1826.9 795.715C1828.22 810.56 1820.92 824.754 1806.87 834.662C1800.62 839.061 1793.6 842.496 1786.8 845.808C1780.53 848.868 1774.05 852.036 1768.17 855.962C1744.86 871.491 1730.96 898.253 1717.61 926.629C1702.91 957.925 1688.91 991.662 1693.27 1029.79C1695.45 1048.77 1701.92 1067.21 1710.5 1084.54Z" fill="white"/>
<path d="M1683.98 1086.68C1702.85 1124.77 1735.65 1154.15 1767.44 1182.63C1770.98 1185.8 1774.52 1188.97 1778.03 1192.14C1800.76 1212.7 1823.07 1234.5 1844.36 1256.94C1850.67 1263.6 1857.91 1271.42 1863.84 1279.97C1864.17 1280.45 1864.74 1280.62 1865.12 1280.35C1865.49 1280.09 1865.52 1279.48 1865.19 1279.01C1859.15 1270.31 1851.84 1262.4 1845.45 1255.67C1824.13 1233.18 1801.77 1211.34 1778.99 1190.73C1775.48 1187.56 1771.94 1184.4 1768.39 1181.21C1734.67 1151.01 1699.81 1119.78 1681.98 1078.39C1669.85 1050.27 1666.29 1017.45 1671.95 986.006C1676.51 960.631 1686.63 935.769 1703.76 907.751C1714.24 890.621 1728.98 869.259 1750.06 855.916C1756.95 851.554 1764.54 848.045 1771.88 844.647C1781.08 840.387 1790.6 835.984 1798.88 829.852C1812.75 819.585 1825.48 800.249 1819.66 776.782C1818.6 772.522 1816.94 768.099 1815.34 763.835C1811.7 754.114 1808.25 744.939 1811.25 737.386C1814.82 728.383 1826.02 727.112 1835.36 727.004C1894.06 726.36 1956.2 740.429 2015.06 767.681C2015.55 767.91 2016.03 767.689 2016.13 767.188C2016.24 766.694 2015.93 766.11 2015.43 765.884C1956.32 738.512 1893.9 724.376 1834.95 725.033C1825.16 725.143 1813.43 726.52 1809.56 736.3C1806.3 744.535 1810.05 754.55 1813.68 764.233C1815.26 768.438 1816.88 772.783 1817.91 776.912C1823.52 799.485 1811.12 818.179 1797.66 828.156C1789.49 834.2 1780.04 838.575 1770.89 842.813C1763.51 846.227 1755.87 849.755 1748.91 854.158C1727.6 867.639 1712.74 889.174 1702.19 906.426C1684.95 934.611 1674.76 959.648 1670.16 985.238C1664.44 1017.09 1668.05 1050.35 1680.36 1078.89C1681.51 1081.53 1682.71 1084.13 1683.98 1086.68Z" fill="white"/>
<path d="M1452.32 1287.98C1452.42 1288.2 1452.59 1288.38 1452.8 1288.51C1453.27 1288.79 1453.81 1288.62 1453.99 1288.14C1465.45 1257.6 1486.34 1236.88 1554.91 1227.91C1593.94 1222.8 1604.74 1216.74 1607.44 1198.43C1610.78 1175.78 1605.31 1165.46 1592.1 1140.5C1590.24 1136.99 1588.23 1133.19 1586.07 1129.03C1582.01 1121.21 1576.83 1112.16 1570.82 1101.66C1550.87 1066.84 1523.57 1019.17 1503.43 957.951C1477.57 879.325 1588.13 839.88 1629.75 825.027L1630.5 824.756C1670.38 810.52 1671.65 798.833 1675.39 764.14C1675.61 762.175 1675.83 760.13 1676.06 758.008C1677.07 748.94 1677.16 741.335 1677.24 734.632C1677.5 712.562 1677.65 699.239 1711.73 670.807C1740.25 647.011 1791.22 645.59 1832.18 644.455C1855.51 643.798 1875.65 643.241 1888.15 638.934C1922.97 626.951 1929.71 579.262 1929.78 578.779C1929.84 578.252 1929.49 577.684 1928.99 577.522C1928.48 577.35 1928.01 577.648 1927.94 578.175C1927.88 578.645 1921.26 625.34 1887.33 637.018C1875.05 641.246 1855.02 641.8 1831.82 642.447C1790.63 643.6 1739.37 645.029 1710.45 669.141C1675.81 698.046 1675.65 711.678 1675.39 734.274C1675.31 740.929 1675.22 748.477 1674.22 757.452C1673.99 759.574 1673.77 761.619 1673.55 763.584C1669.89 797.503 1668.66 808.926 1629.67 822.846L1628.91 823.117C1586.89 838.117 1475.26 877.943 1501.7 958.329C1521.91 1019.79 1549.29 1067.6 1569.29 1102.51C1575.29 1112.97 1580.47 1122.02 1584.49 1129.78C1586.66 1133.96 1588.68 1137.76 1590.53 1141.28C1603.49 1165.75 1608.85 1175.87 1605.61 1197.8C1603.23 1213.92 1595.13 1220.6 1554.38 1225.93C1485.08 1235 1463.93 1256.07 1452.25 1287.14C1452.16 1287.4 1452.19 1287.71 1452.32 1287.98Z" fill="white"/>
</g>
<defs>
<filter id="filter0_d_24_13" x="-221.128" y="-209.208" width="585.975" height="526.579" filterUnits="userSpaceOnUse" color-interpolation-filters="sRGB">
<feFlood flood-opacity="0" result="BackgroundImageFix"/>
<feColorMatrix in="SourceAlpha" type="matrix" values="0 0 0 0 0 0 0 0 0 0 0 0 0 0 0 0 0 0 127 0" result="hardAlpha"/>
<feOffset dy="4"/>
<feGaussianBlur stdDeviation="2"/>
<feComposite in2="hardAlpha" operator="out"/>
<feColorMatrix type="matrix" values="0 0 0 0 0 0 0 0 0 0 0 0 0 0 0 0 0 0 0.25 0"/>
<feBlend mode="normal" in2="BackgroundImageFix" result="effect1_dropShadow_24_13"/>
<feBlend mode="normal" in="SourceGraphic" in2="effect1_dropShadow_24_13" result="shape"/>
</filter>
</defs>
</svg>
