<svg width="724" height="1240" viewBox="0 0 724 1240" fill="none" xmlns="http://www.w3.org/2000/svg">
<g opacity="0.2">
<path d="M687.261 1215.01C687.904 1215.43 688.225 1215.33 688.514 1215.23C689.031 1215.07 689.433 1214.59 689.562 1214C689.697 1213.39 689.363 1212.84 688.797 1212.79C688.598 1212.77 688.407 1212.81 688.229 1212.91C686.776 1211.82 681.946 1205.91 666.324 1181.22C665.851 1180.47 665.483 1179.9 665.257 1179.54C652.373 1152.88 649.285 1112.29 656.77 1068.14C664.045 1025.27 680.098 984.288 700.8 955.699C701.766 954.359 702.754 953.019 703.735 951.675C714.638 936.756 725.917 921.332 727.129 903.88C728.231 888.076 720.248 872.866 705.786 863.212C694.089 855.389 679.954 851.817 666.296 848.361L662.928 847.511C622.317 837.144 571.399 820.264 537.92 781.504C503.69 741.879 495.996 682.216 519.201 636.391C530.249 614.574 547.427 596.326 564.047 578.683C570.986 571.32 578.15 563.701 584.801 555.913C598.333 540.059 628.747 499.158 618.708 461.882C615.112 448.535 606.715 437.842 598.604 427.502C588.593 414.758 579.148 402.716 577.835 386.113C575.177 352.541 606.914 322.978 636.864 297.909C685.665 257.056 725.666 203.874 764.349 152.426C767.957 147.621 771.561 142.84 775.164 138.06C788.18 120.814 792.84 90.6825 794.447 74.2645C796.886 49.5661 795.777 24.44 791.58 8.6618C791.427 8.10386 790.857 7.84313 790.306 8.09431C789.747 8.34011 789.422 9.0021 789.575 9.56004C797.837 40.5444 793.989 109.883 773.646 136.82C770.043 141.601 766.433 146.391 762.832 151.187C724.245 202.503 684.343 255.57 635.775 296.228C605.311 321.724 573.039 351.84 575.789 386.624C577.149 403.84 587.214 416.661 596.954 429.062C604.957 439.262 613.238 449.81 616.733 462.771C626.466 498.947 596.664 538.998 583.395 554.538C576.784 562.282 569.639 569.872 562.727 577.212C545.981 594.994 528.662 613.387 517.431 635.556C505.275 659.564 501.087 686.895 505.312 714.595C509.222 740.16 520.233 764.502 536.316 783.122C570.104 822.236 621.324 839.23 662.186 849.662L665.562 850.518C679.079 853.938 693.065 857.468 704.523 865.135C718.441 874.435 726.129 888.98 725.077 904.039C723.915 920.748 712.868 935.851 702.189 950.459C701.203 951.813 700.222 953.158 699.248 954.493C678.309 983.412 662.087 1024.8 654.747 1068.06C647.058 1113.35 650.138 1153.39 663.422 1180.83L663.479 1180.92C663.697 1181.27 664.075 1181.86 664.566 1182.64C680.448 1207.76 685.324 1213.74 687.261 1215.01Z" fill="white"/>
<path d="M726.591 1178.38C728.077 1179.35 729.343 1179.77 730.288 1179.57C730.864 1179.44 731.305 1178.85 731.275 1178.25C731.244 1177.64 730.756 1177.26 730.18 1177.38C727.665 1177.94 717.74 1168.28 709.732 1151.51C686.959 1112.99 678.003 1068.96 684.471 1027.42C691.621 981.54 719.295 938.079 754.982 916.683C761.89 912.538 769.234 909.08 776.327 905.737C784.823 901.737 793.612 897.595 801.792 892.22C811.822 885.647 817.896 878.664 820.387 870.86C821.976 865.889 821.484 860.771 819.06 856.813C816.582 852.777 812.405 850.43 807.598 850.369C754.788 849.783 711.028 848.396 668.692 836.632C633.396 826.83 585.778 805.128 559.293 757.407C534.806 713.285 536.679 654.615 563.967 611.404C571.566 599.366 584.496 584.741 598.195 569.241C621.513 542.867 647.935 512.968 653.248 489.136C658.846 464.016 643.736 448.338 629.131 433.185C615.53 419.075 601.467 404.482 602.968 382.059C606.114 335.08 648.481 298.376 685.864 265.988L688.148 264.014C753.449 207.417 800.445 127.329 820.48 38.4935C820.622 37.8771 820.275 37.3447 819.714 37.2849C819.153 37.225 818.588 37.6772 818.454 38.2989C798.546 126.578 751.856 206.142 686.985 262.366L684.701 264.34C646.921 297.067 604.096 334.167 600.882 382.228C599.315 405.583 613.675 420.479 627.556 434.883C642.466 450.361 656.555 464.969 651.211 488.921C646.05 512.087 619.872 541.7 596.774 567.828C583.001 583.405 570 598.122 562.286 610.336C534.538 654.29 532.59 713.925 557.449 758.722C584.219 806.962 632.274 828.879 667.877 838.77C710.413 850.623 754.303 852.011 807.25 852.603C811.441 852.652 815.087 854.695 817.251 858.22C819.366 861.657 819.783 866.114 818.407 870.432C816.119 877.616 810.387 884.128 800.898 890.358C792.857 895.628 784.147 899.739 775.73 903.707C768.581 907.083 761.187 910.564 754.172 914.764C735.736 925.813 719.239 942.521 706.455 963.067C694.207 982.753 685.897 1004.99 682.404 1027.38C675.857 1069.43 684.893 1113.98 707.874 1152.83C713.905 1165.46 721.528 1175.08 726.591 1178.38Z" fill="white"/>
<path d="M736.988 1124.76C737.087 1124.82 737.194 1124.89 737.292 1124.94C737.759 1125.22 738.407 1125 738.741 1124.45C739.074 1123.9 738.941 1123.2 738.5 1122.96C726.444 1115.81 687.707 1044.24 707.311 1009.69C727.983 973.249 744.775 954.037 789.664 936.474C821.63 923.965 850.27 900.627 862.63 877.009C868.353 866.064 870.123 855.675 867.731 846.959C859.554 817.027 793.084 822.318 754.185 828.149C716.305 833.824 674.708 821.459 654.746 809.811C652.477 808.485 650.404 807.274 648.551 806.232C642.039 802.559 634.812 800.256 627.157 797.814C612.948 793.286 601.283 778.84 585.788 763.225C559.083 736.322 549.799 712.629 553.749 681.454C558.297 645.559 584.489 611.366 603.796 588.781L604.875 587.521C626.327 562.436 670.959 510.245 667.414 471.371C664.596 440.406 651.088 421.395 639.172 404.605C635.953 400.071 632.911 395.79 630.21 391.454C618.168 372.145 620.701 363.604 625.738 346.587L626.319 344.627C631.452 327.227 658.278 299.783 699.93 269.32C749.41 233.126 797.677 170.105 811.293 151.649C838.725 114.464 854.587 88.6869 854.738 88.4371C855.071 87.8887 854.948 87.2097 854.504 86.9338C854.036 86.657 853.388 86.8749 853.046 87.4179C852.889 87.6774 837.083 113.352 809.728 150.434C796.178 168.808 748.12 231.561 698.939 267.532C656.209 298.783 629.708 326.035 624.337 344.254L623.755 346.214C618.521 363.896 615.886 372.774 628.423 392.879C631.152 397.261 634.205 401.562 637.448 406.113C649.225 422.701 662.569 441.494 665.347 471.904C668.799 509.728 624.649 561.342 603.441 586.141L602.362 587.401C582.823 610.252 556.314 644.878 551.687 681.474C547.641 713.394 557.077 737.576 584.243 764.947C600.041 780.857 611.903 795.361 626.295 799.953C633.862 802.366 641.003 804.64 647.367 808.231C649.221 809.273 651.285 810.479 653.546 811.8C673.688 823.551 715.628 836.112 754.157 830.345C792.462 824.613 857.899 819.261 865.718 847.861C867.941 856.007 866.261 865.787 860.837 876.146C848.758 899.224 820.65 922.087 789.218 934.373C743.62 952.212 726.561 971.724 705.567 1008.73C685.046 1044.92 723.983 1116.28 736.988 1124.76Z" fill="white"/>
<path d="M888.139 661.097C900.015 668.802 913.417 673.53 924.84 676.958C931.983 679.099 939.639 681.116 947.776 680.022C958.809 678.534 969.268 671.584 978.494 665.442C1022.57 636.13 1062.4 611.911 1103.59 612.36C1115.59 612.49 1127.65 614.898 1139.42 619.53C1139.95 619.74 1140.62 619.409 1140.91 618.8C1141.2 618.191 1141.01 617.517 1140.48 617.308C1128.5 612.605 1116.22 610.158 1103.99 610.025C1058.77 609.526 1011.85 640.726 977.584 663.509C968.58 669.5 958.374 676.29 947.876 677.696C940.132 678.736 932.7 676.791 925.755 674.704C909.05 669.678 888.085 661.873 874.145 645.952C856.791 626.135 851.823 596.043 849.244 569.214C848.811 564.757 848.437 560.266 848.04 555.773C845.993 531.826 843.868 507.062 834.86 485.888C832.373 480.039 829.323 474.371 826.372 468.871C819.71 456.478 812.832 443.664 812.336 428.529C812.104 421.385 813.476 415.326 816.415 410.519C818.835 406.557 822.36 403.37 825.762 400.295L854.943 373.904C861.355 368.105 868.615 361.543 876.771 358.883C887.893 355.255 898.457 359.351 908.688 363.318C910.67 364.088 912.712 364.881 914.728 365.6C931.78 371.692 956.341 370.129 982.121 361.317C1009.32 352.01 1035.75 335.519 1056.53 314.892C1057.02 314.412 1057.1 313.669 1056.74 313.237C1056.37 312.795 1055.67 312.828 1055.2 313.304C1009.49 358.686 947.213 374.623 915.741 363.365C913.757 362.654 911.716 361.86 909.751 361.101C899.212 357.022 888.322 352.804 876.492 356.666C867.819 359.493 860.329 366.274 853.72 372.24L824.539 398.631C821.144 401.696 817.302 405.178 814.652 409.508C811.418 414.802 809.906 421.375 810.156 429.033C810.657 444.687 817.663 457.717 824.436 470.315C827.366 475.772 830.389 481.407 832.85 487.165C841.726 508.033 843.831 532.622 845.873 556.389C846.264 560.891 846.646 565.389 847.072 569.856C849.681 597.014 854.726 627.495 872.439 647.723C877.048 652.986 882.422 657.387 888.139 661.097Z" fill="white"/>
<path d="M877.435 696.773C880.579 698.814 883.936 700.774 887.508 702.668C895.083 706.676 904.219 710.733 914.576 710.428C926.036 710.107 937.387 704.518 947.14 699.312C960.106 692.385 973.053 684.553 985.57 676.984C1010.54 661.874 1036.36 646.265 1063.3 637.28C1070.59 634.843 1080.13 632.147 1089.18 632.882C1101.93 633.923 1112.24 641.714 1118.89 647.481C1119.32 647.86 1120.02 647.728 1120.44 647.197C1120.86 646.666 1120.86 645.935 1120.43 645.567C1113.6 639.64 1102.99 631.628 1089.71 630.547C1080.3 629.782 1070.48 632.546 1062.99 635.044C1035.79 644.109 1009.85 659.803 984.765 674.982C972.278 682.542 959.36 690.349 946.453 697.241C936.94 702.325 925.881 707.766 914.89 708.084C904.975 708.368 896.106 704.427 888.734 700.521C870.911 691.089 858.661 679.888 851.274 666.28C839.866 645.231 840.004 618.148 840.125 591.948C840.173 582.097 840.221 571.909 839.668 562.151C837.31 521.121 823.054 482.5 799.542 453.404L799.31 453.122C795.097 447.913 790.317 442 791.155 434.638C791.777 429.157 795.506 423.832 798.499 419.553C817.344 392.623 838.716 362.106 867.284 343.433C871.71 340.538 876.974 337.484 882.445 336.745C888.386 335.946 893.973 337.962 899.378 339.918L900.05 340.164C919.622 347.231 946.999 348.399 973.287 343.297C1003.66 337.394 1029.01 323.713 1044.65 304.766C1045.09 304.241 1045.1 303.515 1044.67 303.137C1044.25 302.758 1043.56 302.869 1043.13 303.395C1009.3 344.36 937.567 351.12 901.045 337.94L900.373 337.695C894.76 335.662 888.949 333.559 882.532 334.43C876.576 335.234 870.771 338.626 866.384 341.502C837.366 360.468 815.832 391.231 796.83 418.382C793.653 422.922 789.693 428.58 788.985 434.752C788.041 443.04 793.099 449.295 797.563 454.813L797.794 455.095C821.056 483.882 835.161 522.099 837.491 562.685C838.05 572.359 837.999 582.516 837.947 592.335C837.818 618.808 837.683 646.186 849.336 667.702C855.393 678.894 864.642 688.47 877.435 696.773Z" fill="white"/>
<path d="M853.538 729.652C868.287 739.23 884.862 741.865 900.193 736.823C910.01 733.59 919.081 727.337 927.853 721.281L929.403 720.216C970.595 691.856 1013.93 667.31 1058.23 647.241C1067.32 643.121 1076.18 639.522 1084.45 640.748C1093.73 642.127 1100.48 649.396 1106.61 656.719C1106.97 657.16 1107.65 657.134 1108.13 656.663C1108.61 656.191 1108.69 655.465 1108.32 655.024C1101.98 647.442 1094.97 639.918 1085.09 638.453C1076.26 637.144 1067.09 640.865 1057.68 645.13C1013.25 665.257 969.77 689.886 928.454 718.324L926.904 719.39C918.276 725.336 909.366 731.491 899.883 734.606C882.589 740.287 862.798 735.433 846.938 721.612C826.179 703.522 814.744 674.171 816.345 643.097C816.909 632.16 819.024 620.897 821.074 610.013C823.534 596.945 826.074 583.437 825.969 570.311C825.748 539.345 811.253 513.903 797.243 489.299C791.084 478.489 784.723 467.301 779.648 455.802C777.601 451.169 775.474 445.73 776.068 439.87C776.694 433.756 780.203 427.789 783.293 422.535L813.726 370.828C819.69 360.688 826.454 349.198 835.924 341.335C843.424 335.105 852.213 331.379 860.711 327.783L893.924 313.732C901.726 310.437 910.576 306.693 918.698 307.939C924.663 308.857 929.669 312.426 934.519 315.881C936.11 317.015 937.746 318.194 939.416 319.264C960.829 333.054 1011.1 305.258 1031.33 280.499C1031.75 279.978 1031.75 279.254 1031.33 278.878C1030.92 278.508 1030.22 278.622 1029.8 279.142C1010.55 302.699 960.967 330.245 940.74 317.225C939.097 316.187 937.485 315.01 935.911 313.886C930.905 310.317 925.727 306.621 919.345 305.635C910.655 304.31 901.106 308.34 893.433 311.587L860.22 325.638C851.55 329.311 842.587 333.098 834.787 339.582C824.937 347.764 818.044 359.488 811.955 369.837L781.523 421.545C778.281 427.048 774.609 433.3 773.927 440.001C773.273 446.417 775.516 452.162 777.672 457.055C782.791 468.654 789.179 479.874 795.358 490.727C809.239 515.102 823.589 540.319 823.812 570.708C823.905 583.593 821.396 596.977 818.954 609.926C816.892 620.904 814.755 632.254 814.179 643.358C812.546 675.076 824.219 705.046 845.401 723.512C848.05 725.798 850.758 727.846 853.538 729.652Z" fill="white"/>
<path d="M813.875 746.026C817.041 748.082 820.165 749.978 823.216 751.725C838.369 760.392 858.718 770.035 881.886 767.608C906.08 765.073 928.875 749.995 950.903 735.414C955.082 732.646 959.408 729.783 963.642 727.08C997.978 705.141 1025.31 698.844 1044.87 708.384C1049.05 710.419 1052.85 713.181 1056.18 716.597C1056.57 717 1057.26 716.937 1057.72 716.429C1058.17 715.931 1058.22 715.193 1057.82 714.784C1054.36 711.227 1050.4 708.343 1046.04 706.233C1025.83 696.385 997.815 702.741 962.771 725.126C958.515 727.844 954.189 730.707 949.995 733.48C928.208 747.897 905.678 762.795 882.033 765.277C859.414 767.651 839.392 758.162 824.476 749.619C797.74 734.325 764.607 707.205 758.613 665.007C757.618 658.003 757.379 650.628 757.16 643.485C756.866 634.349 756.575 624.894 754.683 616.066C751.625 601.745 744.499 589.388 737.613 577.449C730.238 564.653 722.606 551.426 720.171 535.931C715.627 507.039 728.798 478.041 742.744 447.34C751.093 428.951 759.727 409.942 764.207 390.942C765.567 385.16 766.997 377.611 765.891 370.477C764.733 363.031 760.973 356.454 757.341 350.092C751.945 340.655 746.848 331.734 750.547 320.952C753.394 312.643 761.494 305.448 772.209 301.69C777.121 299.968 782.236 298.962 787.172 297.986C791.573 297.116 796.13 296.215 800.587 294.812C816.102 289.931 829.986 279.256 843.411 268.927C852.88 261.641 862.684 254.106 872.979 248.658C904.706 231.866 938.266 234.899 975.693 240.208C976.265 240.287 976.878 239.838 977.05 239.204C977.221 238.57 976.898 237.98 976.326 237.901C938.538 232.547 904.626 229.49 872.294 246.606C861.798 252.157 851.907 259.768 842.343 267.123C829.093 277.317 815.39 287.846 800.304 292.596C795.96 293.956 791.467 294.854 787.127 295.705C782.105 296.699 776.921 297.718 771.849 299.498C760.364 303.516 751.636 311.369 748.504 320.503C744.445 332.337 750.029 342.101 755.427 351.553C758.969 357.755 762.638 364.171 763.735 371.226C764.777 377.953 763.406 385.189 762.098 390.742C757.683 409.477 749.106 428.362 740.813 446.627C727.321 476.337 713.361 507.059 718.024 536.686C720.521 552.571 728.243 565.959 735.715 578.906C742.53 590.711 749.575 602.928 752.566 616.942C754.411 625.579 754.714 634.925 754.997 643.966C755.223 651.172 755.469 658.61 756.471 665.735C761.877 703.869 788.92 729.827 813.875 746.026Z" fill="white"/>
<path d="M785.277 782.815C794.758 788.971 805.025 793.966 816.157 797.343C847.786 806.919 885.915 801.135 918.163 781.865C923.146 778.894 928.176 775.517 933.048 772.269C948.07 762.224 963.611 751.833 979.707 751.469C995.063 751.119 1006.43 760.216 1013.27 767.896C1013.65 768.318 1014.32 768.276 1014.79 767.798C1015.26 767.314 1015.33 766.59 1014.96 766.158C1004.8 754.741 992.728 748.862 980.024 749.146C963.283 749.527 947.441 760.115 932.135 770.354C927.293 773.592 922.283 776.938 917.368 779.881C885.658 798.831 848.165 804.519 817.068 795.099C769.552 780.716 737.951 736.168 715.728 698.975C703.613 678.693 705.721 662.168 707.119 651.243C707.303 649.792 707.476 648.45 707.592 647.232C709.469 627.955 705.309 609.67 701.281 591.98C697.073 573.489 692.709 554.361 695.432 534.352C698.243 513.632 708.448 493.496 718.298 474.031C728.712 453.464 739.486 432.2 741.695 410.056C743.834 388.651 738.005 366.87 724.342 345.322L723.344 343.759C720.499 339.324 717.557 334.739 716.62 329.29C713.913 313.547 728.499 296.693 744.172 289.483C752.652 285.584 761.648 283.503 770.352 281.494C777.711 279.788 785.324 278.03 792.681 275.175C806.512 269.808 819.264 260.659 831.595 251.818C838.062 247.178 844.755 242.381 851.505 238.202C881.969 219.329 917.555 211.196 949.136 215.901C949.714 215.985 950.315 215.533 950.494 214.907C950.67 214.266 950.342 213.689 949.779 213.6C917.717 208.83 881.592 217.078 850.673 236.237C843.841 240.465 837.12 245.288 830.609 249.956C818.41 258.709 805.787 267.753 792.25 273.006C785.052 275.804 777.515 277.539 770.241 279.227C761.422 281.263 752.312 283.372 743.615 287.377C726.999 295.021 711.567 313.071 714.496 330.076C715.496 335.93 718.56 340.682 721.504 345.282L722.5 346.83C735.904 367.991 741.647 389.31 739.557 410.194C737.392 431.843 726.74 452.866 716.44 473.202C706.473 492.882 696.174 513.218 693.291 534.401C690.517 554.841 694.913 574.18 699.176 592.867C703.159 610.382 707.291 628.488 705.447 647.38C705.336 648.573 705.159 649.883 704.98 651.308C703.626 661.869 701.37 679.548 713.85 700.444C731.029 729.232 753.833 762.398 785.277 782.815Z" fill="white"/>
<path d="M829.44 736.184C848.254 748.395 871.711 752.115 893.78 746.063C908.018 742.16 921.673 734.424 934.88 726.924C936.577 725.961 938.275 724.999 939.981 724.043C967.908 708.341 996.837 694.563 1025.96 683.09C1035.17 679.453 1044.88 676.065 1053.44 677.844C1059.46 679.103 1065.16 683.037 1070.38 689.555C1072.06 691.657 1073.65 693.935 1075.1 696.323C1075.39 696.822 1076.06 696.889 1076.58 696.483C1077.11 696.076 1077.28 695.342 1076.99 694.842C1075.5 692.384 1073.87 690.037 1072.14 687.875C1066.67 681.043 1060.63 676.891 1054.2 675.554C1045.1 673.66 1035.05 677.167 1025.54 680.914C996.311 692.436 967.275 706.262 939.252 722.018C937.546 722.975 935.848 723.937 934.144 724.909C921.07 732.32 907.551 739.998 893.604 743.812C869.349 750.45 843.338 744.985 824.017 729.18C806.599 714.917 794.086 692.157 788.791 665.065C785.13 646.309 784.827 625.926 784.54 606.228C784.124 577.882 783.691 548.573 773.167 523.884C771.101 519.044 768.615 514.284 766.211 509.679C760.096 497.981 753.783 485.876 754.113 471.657C754.423 458.347 760.269 445.674 766.454 432.24C771.228 421.871 776.161 411.167 778.268 400.195C780.295 389.624 779.608 379.195 778.953 369.109C778.646 364.518 778.345 359.77 778.297 355.085C778.191 344.535 779.9 325.063 792.58 313.122C798.473 307.579 805.521 304.644 813.001 301.536C817.369 299.716 821.882 297.844 826.121 295.399C834.102 290.801 855.793 284.709 880.014 287.974C900.486 290.737 917.491 284.56 933.924 278.583C951.797 272.091 968.68 265.952 989.551 270.644C990.115 270.775 990.741 270.362 990.961 269.729C991.18 269.095 990.886 268.48 990.332 268.354C968.906 263.537 950.933 270.067 933.556 276.382C917.366 282.268 900.628 288.355 880.641 285.658C855.724 282.293 833.921 288.444 825.346 293.388C821.248 295.749 816.812 297.598 812.519 299.378C805.159 302.433 797.552 305.605 791.301 311.486C777.82 324.181 775.998 344.517 776.108 355.508C776.155 360.252 776.468 365.037 776.778 369.659C777.423 379.592 778.108 389.859 776.137 400.1C774.102 410.738 769.231 421.293 764.526 431.501C758.491 444.593 752.247 458.135 751.928 471.981C751.579 486.787 758.032 499.129 764.261 511.062C766.645 515.625 769.118 520.348 771.153 525.123C781.512 549.428 781.944 578.516 782.358 606.641C782.649 626.445 782.947 646.927 786.657 665.89C792.043 693.422 804.778 716.59 822.528 731.112C824.734 732.939 827.052 734.634 829.44 736.184Z" fill="white"/>
<path d="M626.945 798.757C630.526 801.084 634.267 803.258 638.185 805.273C666.041 819.619 698.782 824.32 724.192 826.822C757.596 830.104 791.925 830.774 826.214 828.794C827.702 828.714 829.188 828.619 830.682 828.529C847.399 827.519 864.681 826.475 879.709 831.81C900.98 839.367 916.751 860.329 920.861 886.503C920.95 887.106 921.511 887.428 922.088 887.229C922.673 887.035 923.069 886.375 922.974 885.782C918.749 858.916 902.535 837.395 880.661 829.618C865.297 824.151 847.814 825.207 830.895 826.229C829.401 826.319 827.922 826.405 826.436 826.5C792.247 828.474 758.028 827.803 724.711 824.535C699.459 822.049 666.933 817.388 639.351 803.177C611.062 788.607 591.324 765.484 583.796 738.062C573.97 702.294 585.169 662.048 596.291 634.588C606.039 610.521 619.005 587.213 631.534 564.667C636.766 555.247 642.186 545.505 647.303 535.838C657.63 516.307 668.867 493.08 673.922 468.903C679.317 443.098 676.675 419.713 666.486 403.053C663.074 397.48 658.669 392.136 654.41 386.973C643.159 373.338 632.522 360.46 637.506 342.791C640.102 333.565 646.801 325.686 653.012 319.197C673.554 297.715 698.048 280.851 721.735 264.539C740.483 251.627 759.865 238.282 777.325 222.655C785.418 215.41 793.241 207.544 800.814 199.932C812.197 188.487 823.978 176.655 836.768 166.841C861.556 147.831 886.883 140.371 906.252 146.391C906.795 146.557 907.43 146.195 907.669 145.59C907.914 144.975 907.683 144.352 907.14 144.186C887.132 137.98 861.105 145.588 835.711 165.064C822.763 174.991 810.928 186.888 799.481 198.392C791.937 205.979 784.133 213.814 776.103 221C758.778 236.514 739.461 249.815 720.784 262.673C696.989 279.058 672.38 296.005 651.644 317.691C645.191 324.439 638.222 332.659 635.456 342.476C630.138 361.32 641.607 375.212 652.701 388.645C656.922 393.755 661.291 399.046 664.627 404.512C674.535 420.717 677.1 443.536 671.828 468.747C666.85 492.586 655.711 515.59 645.472 534.949C640.368 544.596 634.961 554.318 629.735 563.728C617.161 586.344 604.15 609.738 594.336 633.962C583.055 661.793 571.715 702.606 581.718 739.007C588.36 763.155 604.234 783.997 626.945 798.757Z" fill="white"/>
<path d="M724.525 776.39C745.411 789.956 769.304 798.205 790.46 804.243C820.104 812.701 855.392 820.287 892.35 812.408C900.927 810.579 909.638 807.897 918.061 805.303C933.664 800.493 949.813 795.517 965.334 796.001C972.601 796.227 979.54 797.714 985.956 800.407C986.478 800.63 987.132 800.317 987.429 799.715C987.726 799.113 987.529 798.451 987.016 798.233C980.401 795.454 973.245 793.928 965.741 793.693C949.873 793.201 933.558 798.228 917.78 803.083C909.403 805.663 900.746 808.336 892.268 810.143C855.746 817.93 820.739 810.396 791.323 801.999C754.483 791.484 709.306 774.223 686.698 733.753C667.107 698.683 667.79 653.599 670.366 606.607C672.605 565.67 676.059 525.897 693.483 489.533C697.89 480.341 703.223 471.347 708.39 462.663C714.065 453.11 719.929 443.231 724.626 432.985C735.376 409.514 737.151 387.571 729.496 372.799C726.212 366.475 721.181 361.111 716.304 355.92C707.738 346.801 699.648 338.178 701.127 325.191C702.865 310.031 717.374 298.295 731.357 288.805L814.241 232.549C833.563 219.431 853.554 205.865 875.013 198.21C895.456 190.921 916.549 189.272 936.01 193.487C936.575 193.607 937.193 193.2 937.401 192.568C937.608 191.937 937.324 191.333 936.76 191.213C916.938 186.937 895.461 188.597 874.634 196.027C852.882 203.795 832.761 217.45 813.299 230.652L730.409 286.918C715.911 296.767 700.836 309.017 698.972 325.295C697.377 339.29 706.152 348.647 714.647 357.691C719.435 362.795 724.392 368.067 727.547 374.164C734.886 388.325 733.113 409.504 722.694 432.265C718.06 442.379 712.242 452.186 706.599 461.673C701.401 470.423 696.034 479.469 691.578 488.773C673.926 525.596 670.45 565.643 668.197 606.861C665.72 652.312 664.954 699.655 684.786 735.171C694.672 752.837 708.74 766.137 724.525 776.39Z" fill="white"/>
<path d="M700.015 796.568C734.579 819.023 779.859 820.172 823.741 821.292C828.635 821.417 833.521 821.536 838.372 821.691C869.826 822.69 901.362 825.341 932.099 829.562C941.217 830.818 951.75 832.445 961.237 835.986C961.762 836.183 962.412 835.856 962.691 835.245C962.963 834.644 962.751 833.987 962.226 833.79C952.569 830.196 941.931 828.544 932.71 827.279C901.908 823.045 870.311 820.397 838.785 819.395C833.935 819.24 829.049 819.121 824.146 818.99C777.602 817.812 729.478 816.588 694.646 789.809C670.971 771.618 654.153 741.012 647.291 703.632C641.757 673.47 642.088 638.918 648.32 594.889C652.128 567.971 658.585 532.92 674.74 500.495C680.021 489.893 686.353 479.556 692.481 469.547C700.161 457.002 708.111 444.028 714.092 430.379C724.119 407.517 729.341 376.331 713.974 357.342C711.18 353.899 707.715 350.813 704.367 347.845C696.741 341.075 689.543 334.685 689.567 324.255C689.594 311.824 700.509 300.588 710.002 292.19C769.646 239.478 838.713 198.854 909.735 174.7C910.323 174.505 910.729 173.847 910.626 173.247C910.538 172.642 909.989 172.315 909.395 172.519C838.064 196.775 768.689 237.574 708.792 290.525C698.845 299.32 687.428 311.137 687.405 324.636C687.384 336.005 695.239 342.981 702.831 349.729C706.135 352.653 709.538 355.685 712.242 359.027C727.035 377.282 721.895 407.512 712.164 429.718C706.255 443.182 698.365 456.066 690.732 468.54C684.57 478.599 678.199 488.997 672.859 499.705C656.527 532.476 650.017 567.811 646.178 594.924C639.907 639.216 639.575 674.011 645.162 704.425C652.113 742.28 669.168 773.3 693.196 791.763C695.428 793.458 697.696 795.061 700.015 796.568Z" fill="white"/>
</g>
</svg>
