<svg width="647" height="780" viewBox="0 0 647 780" fill="none" xmlns="http://www.w3.org/2000/svg">
<g opacity="0.2">
<path d="M-160.715 187.741C-155.761 186.283 -150.303 185.857 -145.175 186.323C-137.023 187.061 -128.751 189.427 -120.754 191.712C-114.932 193.378 -108.917 195.103 -103.022 196.165C-91.5878 198.235 -80.1532 197.944 -69.0968 197.658C-65.7253 197.568 -62.2301 197.478 -58.7936 197.459C-45.833 197.381 -29.0095 198.293 -13.7534 206.166C2.25674 214.424 13.8058 230.074 14.3279 244.224C14.7976 256.878 7.34002 266.036 0.135239 274.897C-4.44924 280.529 -9.19133 286.358 -11.9426 293.077C-14.38 299.033 -14.8604 306.621 -15.321 313.961C-15.9636 324.207 -16.6301 334.8 -22.567 341.544C-34.463 355.076 -76.6222 356.061 -95.3202 343.257C-104.923 336.679 -112.154 327.249 -118.737 318.155C-138.216 291.251 -155.466 262.78 -170.014 233.512C-174.61 224.263 -179.365 213.595 -177.476 204.09C-175.742 195.391 -168.912 190.154 -160.715 187.741ZM-24.0383 340.163C-18.4347 333.794 -17.7844 323.474 -17.1545 313.491C-16.6821 306.013 -16.1972 298.29 -13.6601 292.099C-10.824 285.185 -6.01956 279.275 -1.37275 273.562C5.98953 264.521 12.9414 255.976 12.4934 243.932C11.9152 228.298 -1.80762 214.244 -14.3126 207.787C-29.1556 200.133 -45.681 199.24 -58.4089 199.321C-61.8346 199.346 -65.3151 199.432 -68.6793 199.52C-79.834 199.808 -91.3668 200.101 -102.983 197.995C-108.98 196.909 -115.049 195.173 -120.918 193.495C-128.821 191.235 -136.999 188.895 -144.969 188.175C-157.925 187.01 -173.046 191.71 -175.633 204.781C-177.402 213.714 -172.808 224.01 -168.359 232.954C-153.869 262.095 -136.691 290.463 -117.288 317.255C-110.831 326.18 -103.744 335.42 -94.4672 341.772C-76.7687 353.905 -35.2896 352.95 -24.0383 340.163Z" fill="white"/>
<path d="M-140.195 209.749C-136.11 208.547 -131.616 208.206 -127.381 208.604C-120.643 209.238 -113.802 211.244 -107.189 213.184C-102.386 214.593 -97.4241 216.045 -92.5673 216.956C-83.1477 218.712 -73.7336 218.496 -64.6213 218.288C-61.8407 218.229 -58.9656 218.16 -56.1308 218.147C-45.4278 218.115 -31.5175 218.924 -18.8765 225.566C-5.98547 232.34 -0.00999363 240.757 0.505098 252.872C0.950021 263.452 -5.3095 271.075 -11.3639 278.441C-15.2499 283.168 -19.2752 288.06 -21.5208 293.706C-23.5485 298.797 -23.4039 305.759 -23.2651 312.49C-23.0788 321.449 -22.8871 330.711 -27.6834 336.268C-37.3456 347.466 -62.5079 351.853 -78.0913 341.012C-84.1662 336.788 -92.1432 324.806 -97.9748 316.052C-99.7999 313.311 -101.384 310.936 -102.673 309.136C-108.613 300.851 -114.637 293.762 -120.47 286.894C-130.534 275.044 -140.035 263.851 -147.753 248.246C-151.595 240.47 -155.576 231.502 -154.064 223.516C-152.68 216.158 -147.011 211.756 -140.195 209.749ZM-29.1937 334.89C-24.7672 329.754 -24.9536 320.813 -25.1238 312.161C-25.2651 305.261 -25.4122 298.131 -23.2663 292.737C-20.9357 286.878 -16.8409 281.903 -12.8853 277.093C-6.73567 269.61 -0.923096 262.548 -1.35017 252.587C-1.83353 241.196 -7.24731 233.596 -19.4719 227.18C-31.7073 220.758 -45.3016 219.971 -55.7793 220.009C-58.5995 220.018 -61.4674 220.085 -64.237 220.149C-73.4367 220.365 -82.9488 220.583 -92.5608 218.785C-97.5229 217.861 -102.536 216.388 -107.382 214.974C-113.901 213.06 -120.644 211.087 -127.2 210.471C-137.82 209.47 -150.19 213.335 -152.247 224.188C-153.654 231.624 -149.828 240.217 -146.128 247.696C-138.54 263.035 -129.129 274.121 -119.166 285.858C-113.312 292.756 -107.248 299.896 -101.25 308.252C-99.9356 310.09 -98.3481 312.472 -96.505 315.235C-90.7814 323.824 -82.9556 335.582 -77.257 339.542C-62.4369 349.849 -38.4312 345.605 -29.1937 334.89Z" fill="white"/>
<path d="M-116.152 228.954C-115.704 228.821 -115.243 228.72 -114.767 228.65C-111.313 228.151 -107.689 229.362 -104.177 230.527L-103.388 230.789C-92.8111 234.281 -82.0819 236.321 -71.5052 236.847C-70.1998 236.913 -68.8762 236.964 -67.5347 237.018C-56.2594 237.462 -43.4844 237.967 -34.6608 247.075C-26.2687 255.736 -25.7156 268.149 -28.0059 276.88C-29.6161 283.047 -32.1652 288.784 -34.63 294.327C-37.1535 300.012 -39.7614 305.89 -41.3513 312.21C-41.7684 313.874 -42.0451 315.956 -42.3373 318.166C-43.3057 325.444 -44.5158 334.502 -51.951 335.604C-67.8155 337.942 -85.0206 308.32 -97.5804 286.687C-101.619 279.731 -105.105 273.726 -107.642 270.449C-108.742 269.031 -109.896 267.602 -111.013 266.216C-115.436 260.745 -120.011 255.079 -122.366 248.572C-124.197 243.511 -124.035 237.887 -121.95 233.89C-120.597 231.366 -118.622 229.675 -116.152 228.954ZM-29.766 276.117C-27.6094 267.886 -28.079 256.236 -35.8363 248.237C-44.0287 239.783 -55.8363 239.32 -67.2554 238.865C-68.6041 238.813 -69.9384 238.756 -71.2439 238.691C-81.9967 238.154 -92.8983 236.077 -103.636 232.536L-104.436 232.268C-107.73 231.171 -111.138 230.037 -114.178 230.476C-116.812 230.857 -118.915 232.408 -120.257 234.974C-122.137 238.574 -122.281 243.661 -120.625 248.243C-118.4 254.391 -113.953 259.899 -109.656 265.221C-108.527 266.613 -107.367 268.058 -106.249 269.497C-103.623 272.898 -100.091 278.969 -96.0131 285.994C-84.4674 305.873 -67.0247 335.912 -52.5148 333.779C-46.1568 332.846 -45.0771 324.747 -44.1314 317.599C-43.8352 315.343 -43.5473 313.214 -43.1115 311.465C-41.4917 305.012 -38.8582 299.082 -36.3053 293.336C-33.8662 287.844 -31.3464 282.169 -29.766 276.117Z" fill="white"/>
<path d="M-183.567 175.073C-177.328 173.237 -169.166 173.266 -162.15 173.285C-159.459 173.297 -156.92 173.301 -154.74 173.205C-139.812 172.54 -123.948 175.114 -108.847 180.639C-106.775 181.397 -104.873 182.107 -103.081 182.778C-94.4329 186 -88.1839 188.328 -77.9659 190.551C-65.6156 193.229 -48.4967 194.727 -27.0781 194.995C-15.956 195.137 4.61234 197.605 17.3845 212.543C25.8632 222.458 29.342 236.787 26.4666 249.937C23.6961 262.591 15.8414 272.772 9.29866 280.224C8.7052 280.899 8.09714 281.579 7.4964 282.256C2.00546 288.442 -3.67226 294.834 -5.32512 303.243C-6.41462 308.803 -6.06936 314.684 -5.73744 320.371C-5.07317 331.675 -4.45232 342.356 -14.5439 349.619C-30.6313 361.194 -50.086 365.623 -66.5846 361.475C-95.9283 354.088 -116.564 341.465 -133.507 320.539C-153.786 295.479 -173.513 256.72 -184.066 229.424C-184.646 227.932 -185.262 226.378 -185.892 224.776C-192.098 209.121 -199.822 189.639 -191.069 179.436C-189.303 177.36 -186.672 175.987 -183.567 175.073ZM-7.14313 302.553C-5.41135 293.736 0.398228 287.198 6.01374 280.869C6.61448 280.191 7.21524 279.514 7.8087 278.838C14.2343 271.51 21.9568 261.53 24.6488 249.211C27.4006 236.643 24.1139 222.991 16.0758 213.589C3.89949 199.343 -15.9821 196.987 -26.7514 196.857C-48.2865 196.587 -65.5362 195.074 -78.0136 192.371C-88.3842 190.121 -94.684 187.773 -103.419 184.523C-105.212 183.852 -107.109 183.15 -109.174 182.39C-124.017 176.958 -139.631 174.427 -154.308 175.081C-156.528 175.18 -159.092 175.175 -161.802 175.158C-171.997 175.128 -184.676 175.086 -189.579 180.803C-197.709 190.287 -190.211 209.2 -184.191 224.391C-183.55 226 -182.938 227.563 -182.358 229.056C-171.873 256.184 -152.286 294.689 -132.166 319.545C-115.353 340.313 -95.7099 352.316 -66.4788 359.674C-47.6269 364.417 -27.9412 356.772 -15.8072 348.041C-6.35858 341.236 -6.95666 330.986 -7.59099 320.13C-7.9294 314.319 -8.27758 308.323 -7.14313 302.553ZM-6.23592 302.894L-6.24322 302.896L-6.23592 302.894Z" fill="white"/>
<path d="M-188.549 160.201C-162.583 152.559 -122.698 157.903 -87.4581 174.962C-70.3044 183.267 -52.6193 183.312 -35.52 183.36C-12.2067 183.421 9.81135 183.487 26.8735 204.815C55.6255 240.768 31.6567 269.583 17.3392 286.801L16.1846 288.188C4.32636 302.491 4.57293 313.786 4.97002 332.496C5.02986 335.171 5.0851 337.999 5.11737 341.012C5.36456 365.714 -26.4592 373.98 -27.8694 374.332C-94.2959 391.37 -134.252 338.062 -153.456 312.446C-156.292 308.666 -158.735 305.405 -160.639 303.237C-183.735 276.933 -211.562 217.963 -211.117 186.645C-210.978 177.177 -208.373 170.588 -203.37 167.067C-199.215 164.154 -194.213 161.868 -188.549 160.201ZM-27.8058 372.292C-22.7905 370.816 3.48442 362.055 3.2712 340.679C3.24252 337.673 3.18358 334.855 3.12375 332.181C2.71082 313.091 2.46928 301.571 14.6721 286.844L15.8305 285.448C29.8253 268.628 53.248 240.466 25.5249 205.793C9.16322 185.333 -12.371 185.276 -35.164 185.214C-52.478 185.167 -70.3886 185.116 -87.9776 176.6C-130.33 156.098 -179.4 152.678 -202.114 168.647C-206.722 171.89 -209.128 178.064 -209.256 187.009C-209.695 217.906 -182.184 276.146 -159.348 302.151C-157.379 304.388 -154.911 307.687 -152.045 311.512C-133.137 336.732 -93.7951 389.219 -28.6221 372.515L-28.6148 372.513C-28.5967 372.516 -28.3088 372.44 -27.8058 372.292Z" fill="white"/>
<path d="M-194.944 115.408C-179.993 111.007 -162.452 110.811 -144.492 115.458C-135.9 117.682 -129.299 120.447 -123.74 124.154C-119.307 127.11 -115.329 130.826 -111.489 134.422C-110.138 135.686 -108.732 136.997 -107.334 138.256C-90.2843 153.553 -69.3529 164.206 -48.3975 168.249C-39.7438 169.918 -30.8218 170.544 -22.1976 171.15C-5.61421 172.317 11.5396 173.521 27.4245 182.211C34.4254 186.037 39.7603 190.649 43.2921 195.908C46.2549 200.334 47.961 205.228 49.5824 210.281C54.087 224.286 57.9397 239.073 55.6489 252.371C53.3995 265.434 45.5578 275.516 37.9652 285.273C32.1755 292.713 26.1879 300.408 22.7071 309.384C19.5553 317.486 18.4391 326.687 17.3611 335.59C16.5943 341.855 15.8116 348.34 14.3225 354.451L13.4236 354.072L14.3225 354.451C6.4366 386.854 -32.4297 392.05 -63.3164 386.651C-75.4272 384.534 -87.2146 379.588 -98.1512 374.57C-140.212 355.244 -170.897 332.972 -191.967 306.457C-206.126 288.638 -217.803 266.416 -227.663 238.514C-242.789 195.713 -243.539 162.824 -229.908 140.746C-222.361 128.491 -209.96 119.828 -194.944 115.408ZM12.5066 353.69C13.9696 347.667 14.752 341.236 15.5076 335.019C16.6007 326.022 17.7358 316.718 20.9505 308.427C24.5126 299.249 30.5624 291.473 36.4144 283.952C43.8898 274.336 51.629 264.392 53.8105 251.706C56.0298 238.795 52.2408 224.276 47.8146 210.516C46.243 205.627 44.6014 200.892 41.8041 196.722C38.4955 191.79 33.446 187.442 26.7856 183.801C11.3099 175.34 -5.61499 174.149 -21.9841 172.999C-30.6664 172.392 -39.6392 171.764 -48.4127 170.067C-69.7456 165.956 -91.0611 155.113 -108.421 139.532C-109.834 138.259 -111.243 136.941 -112.609 135.663C-116.377 132.135 -120.275 128.485 -124.549 125.643C-129.895 122.079 -136.267 119.416 -144.623 117.257C-179.924 108.127 -213.55 118.035 -228.309 141.919C-241.676 163.562 -240.89 195.949 -225.96 238.191C-216.189 265.843 -204.634 287.85 -190.638 305.458C-169.816 331.662 -139.414 353.714 -97.6897 372.88C-86.8837 377.847 -75.2448 382.721 -63.3664 384.799C-33.1404 390.089 4.86319 385.102 12.5066 353.69Z" fill="white"/>
<path d="M-121.915 31.9072C-121.893 31.9008 -121.872 31.8944 -121.85 31.888C-121.378 31.7926 -120.852 32.1239 -120.665 32.6264C-112.823 53.9517 -102.501 73.4724 -89.9966 90.6569C-69.1708 119.252 -41.8999 141.462 -13.2056 153.186C-8.08792 155.276 -2.76656 157.11 2.38624 158.879C14.2527 162.956 26.521 167.18 37.2845 174.894C53.3062 186.383 65.2155 205.885 68.3765 225.798C71.2333 243.808 67.4138 262.341 57.6232 277.984C55.7482 280.981 53.6472 283.895 51.6154 286.709C47.4317 292.505 43.1024 298.504 40.6074 305.465C37.4824 314.179 37.2861 324.231 37.0998 333.962C37.0039 338.939 36.8994 344.077 36.4151 349.027C33.9557 373.983 21.2714 395.651 1.60106 408.461C0.812796 408.907 -17.2282 418.827 -53.0103 412.05C-61.1268 410.511 -76.6112 403.591 -91.5864 396.892C-106.673 390.147 -122.279 383.174 -130.263 381.711C-139.084 380.097 -147.749 379.986 -156.005 381.374C-156.484 381.454 -157.007 381.113 -157.179 380.606C-157.351 380.099 -157.103 379.636 -156.627 379.549C-148.176 378.121 -139.313 378.235 -130.277 379.891C-122.052 381.398 -106.331 388.425 -91.1297 395.226C-76.2692 401.87 -60.9067 408.737 -53.013 410.236C-17.91 416.887 0.264412 406.936 0.448776 406.837C19.7175 394.278 32.1718 373.006 34.5841 348.506C35.0679 343.627 35.1613 338.519 35.2641 333.575C35.4587 323.718 35.6634 313.522 38.8733 304.561C41.4347 297.404 45.8259 291.325 50.0607 285.443C52.0779 282.651 54.1643 279.759 56.0138 276.795C65.6073 261.477 69.3551 243.346 66.5669 225.74C63.4947 206.385 51.9477 187.448 36.4232 176.318C25.9352 168.797 13.8248 164.632 2.10907 160.599C-3.06523 158.818 -8.42255 156.977 -13.5905 154.867C-42.6757 142.984 -70.3076 120.5 -91.3859 91.5458C-104.026 74.1889 -114.443 54.4751 -122.356 32.9582C-122.542 32.4911 -122.341 32.0331 -121.915 31.9072Z" fill="white"/>
<path d="M-64.7955 8.44381C-64.6437 8.39897 -64.4634 8.39893 -64.2728 8.45791C-63.7656 8.61851 -63.4163 9.13613 -63.4815 9.62539C-66.7086 34.1233 -65.6311 55.1152 -60.1793 73.8043C-53.3479 97.2383 -39.0997 117.595 -21.1039 129.653C-10.7663 136.586 0.86525 140.875 12.1084 145.03C22.3844 148.824 33.0055 152.746 42.7632 158.688C72.0721 176.539 90.4963 212.769 85.6048 242.964C84.0271 252.742 80.2348 261.665 76.5747 270.302C74.2522 275.777 71.8561 281.433 70.0431 287.236C66.0579 300.021 64.719 314.251 63.4161 328.018C61.6366 346.865 59.7943 366.351 51.1324 382.274C44.721 394.064 34.3769 404.302 19.5077 413.58C5.91767 422.063 -5.98911 426.102 -17.9591 426.294C-32.2049 426.528 -46.7995 421.199 -60.9016 416.052C-70.1999 412.662 -79.8146 409.152 -89.2582 407.249C-111.245 402.826 -132.992 407.164 -148.903 419.153C-149.269 419.43 -149.849 419.308 -150.199 418.88C-150.549 418.451 -150.537 417.88 -150.171 417.603C-133.908 405.36 -111.699 400.92 -89.2402 405.444C-79.6454 407.372 -69.9552 410.904 -60.585 414.327C-46.6483 419.416 -32.2334 424.675 -18.3375 424.446C-6.67042 424.255 4.98335 420.29 18.3378 411.956C33.0005 402.802 43.1846 392.735 49.4824 381.165C57.9906 365.518 59.8172 346.196 61.5847 327.503C62.8918 313.655 64.246 299.333 68.2756 286.392C70.1037 280.514 72.5145 274.818 74.8552 269.311C78.4822 260.764 82.2306 251.924 83.778 242.333C88.5371 212.913 70.5887 177.607 42.0298 160.217C32.4624 154.387 21.9383 150.498 11.763 146.746C0.393979 142.548 -11.3562 138.214 -21.927 131.129C-40.3819 118.763 -54.9726 97.9398 -61.9514 73.9995C-67.4805 55.0495 -68.5813 33.8073 -65.3232 9.05193C-65.2667 8.74258 -65.063 8.5228 -64.7955 8.44381Z" fill="white"/>
<path d="M-29.3027 17.0019C-28.9694 16.9036 -28.5582 17.0312 -28.275 17.3476C-27.8984 17.761 -27.8738 18.3403 -28.2195 18.6467C-40.1003 29.1458 -43.3391 49.1663 -36.2732 68.4676C-30.0153 85.5539 -16.5248 101.832 1.733 114.312C12.3222 121.553 24.1583 127.377 35.6053 133.013C56.1112 143.116 77.3124 153.555 91.4749 172.327C103.844 188.723 109.682 210.715 107.925 234.236C106.757 249.894 102.613 264.769 98.6062 279.15C97.4029 283.487 96.1515 287.971 95.0053 292.398C89.4792 313.751 85.7787 336.067 83.9918 358.726C83.8279 360.845 83.6784 362.978 83.5216 365.113C82.4328 380.367 81.3113 396.145 74.6256 409.058C60.6747 436.016 26.4865 442.455 7.35577 443.893C-4.89525 444.813 -17.6183 444.548 -29.9077 444.297C-44.9946 443.983 -60.5913 443.667 -75.369 445.537C-96.1896 448.176 -113.726 455.916 -124.735 467.34C-125.055 467.666 -125.633 467.623 -126.025 467.232C-126.423 466.843 -126.484 466.256 -126.163 465.931C-114.932 454.272 -97.0873 446.378 -75.9303 443.703C-61.0295 441.814 -45.3642 442.136 -30.2122 442.449C-17.9553 442.701 -5.28285 442.963 6.8886 442.049C25.719 440.637 59.3279 434.333 72.9706 407.982C79.5097 395.343 80.6264 379.735 81.6995 364.646C81.8527 362.503 82.0022 360.371 82.1733 358.249C83.9574 335.493 87.6802 313.081 93.2287 291.633C94.375 287.189 95.6301 282.694 96.8407 278.355C100.829 264.042 104.944 249.247 106.107 233.759C107.828 210.719 102.145 189.233 90.1014 173.266C76.2862 154.951 56.2774 145.093 35.0871 134.66C23.5644 128.983 11.6527 123.119 0.93044 115.784C-17.7303 103.031 -31.5467 86.3433 -37.9676 68.8073C-45.2851 48.8248 -41.9034 28.0688 -29.5605 17.1579C-29.4949 17.0852 -29.4042 17.0318 -29.3027 17.0019Z" fill="white"/>
<path d="M-0.0668392 -23.3372C0.0925503 -23.3842 0.284075 -23.3785 0.475208 -23.3193C0.979978 -23.1483 1.31942 -22.6174 1.24354 -22.1329C-1.7891 -3.12646 -4.91685 16.5212 -3.08027 36.9354C-1.04681 59.5577 7.35591 80.177 20.5981 95.0052C37.3569 113.782 60.9725 123.302 83.8096 132.519C88.354 134.351 93.0497 136.245 97.5897 138.177C103.045 140.496 108.725 143.148 112.909 147.771C116.086 151.278 118.039 155.545 119.929 159.964C127.397 177.456 135.978 200.369 135.995 222.457C136.008 247.488 125.371 268.853 115.071 289.514C106.346 307.018 97.3308 325.114 94.7547 345.434C93.8177 352.856 93.7121 360.752 93.6085 368.381C93.4164 383.075 93.217 398.26 87.0485 410.717C78.6564 427.652 59.5086 438.569 30.1459 443.177C18.2184 445.042 5.79889 446.004 -6.21915 446.927C-24.1902 448.308 -42.7724 449.736 -59.9137 454.268C-93.1679 463.063 -115.018 484.029 -118.333 510.38C-118.391 510.868 -118.852 511.137 -119.36 510.976C-119.865 510.823 -120.226 510.298 -120.161 509.808C-116.773 482.841 -94.5147 461.416 -60.6847 452.46C-43.4021 447.896 -24.7476 446.464 -6.70425 445.079C5.274 444.159 17.6646 443.206 29.5269 441.343C58.4083 436.814 77.1819 426.158 85.3576 409.652C91.3755 397.514 91.5663 382.51 91.7607 368.002C91.8647 360.319 91.9634 352.372 92.9156 344.857C95.5189 324.271 104.596 306.059 113.377 288.441C123.595 267.946 134.152 246.747 134.136 222.108C134.12 200.366 125.631 177.71 118.238 160.401C116.358 156.005 114.569 152.098 111.636 148.858C107.779 144.592 102.365 142.074 97.1435 139.855C92.6251 137.935 87.9294 136.04 83.3958 134.214C60.3136 124.91 36.4494 115.276 19.3141 96.086C5.75292 80.8986 -2.85609 59.8247 -4.92958 36.7521C-6.78618 16.1128 -3.63587 -3.64821 -0.591643 -22.7558C-0.528012 -23.0501 -0.327658 -23.2603 -0.0668392 -23.3372Z" fill="white"/>
<path d="M22.9774 -2.19194C23.1006 -2.22829 23.2382 -2.23325 23.3899 -2.20684C23.8956 -2.10692 24.3045 -1.62268 24.3045 -1.1157C24.027 40.6883 51.416 86.6269 89.4188 108.117C92.2939 109.742 95.2889 111.287 98.1867 112.781C104.829 116.203 111.688 119.74 117.77 124.59C125.039 130.39 131.641 138.413 137.945 149.113C157.954 183.068 163.189 224.03 151.616 256.019C147.485 267.438 141.332 277.862 135.373 287.935C129.052 298.639 122.518 309.709 118.45 321.919C113.269 337.49 112.086 354.951 110.933 371.843C110.265 381.655 109.573 391.793 108.113 401.509C104.217 427.41 99.2045 447.734 73.2514 454.292L40.605 460.449C32.4008 462.37 28.3063 463.781 25.307 464.817C20.6467 466.431 18.7137 467.099 8.52933 467.211C-27.9679 467.601 -57.9432 479.57 -75.8891 500.906C-82.7675 509.079 -88.5069 519.328 -93.4372 532.246C-93.6068 532.687 -94.1324 532.833 -94.6117 532.574C-95.091 532.315 -95.3401 531.748 -95.1705 531.307C-90.1849 518.239 -84.3649 507.86 -77.3879 499.56C-59.1684 477.903 -28.7902 465.753 8.15925 465.363C18.0651 465.253 19.9291 464.615 24.4262 463.058C27.4472 462.016 31.5889 460.581 39.9054 458.636L72.5374 452.484C97.6604 446.162 102.349 427.116 106.287 400.909C107.735 391.259 108.427 381.156 109.087 371.382C110.245 354.391 111.436 336.821 116.68 321.062C120.792 308.696 127.37 297.561 133.728 286.792C139.647 276.775 145.767 266.406 149.85 255.116C161.249 223.614 156.09 183.271 136.388 149.83C130.234 139.389 123.819 131.577 116.783 125.966C110.885 121.266 104.123 117.781 97.5852 114.408C94.6659 112.903 91.6492 111.346 88.7309 109.698C69.6754 98.9248 52.5513 81.7206 40.5298 61.2687C28.7299 41.1962 22.2999 18.9178 22.4331 -1.47116C22.4647 -1.83623 22.6729 -2.10216 22.9774 -2.19194Z" fill="white"/>
<path d="M49.9936 -15.9434C50.1022 -15.9755 50.2214 -15.984 50.3513 -15.9691C50.86 -15.8972 51.2934 -15.4302 51.3184 -14.9225L51.4539 -12.3253C51.9879 -1.84523 52.5373 8.99437 54.0085 19.7129C58.0491 49.146 69.9162 73.215 87.4228 87.4951C94.2489 93.0639 102.089 97.3212 109.67 101.442C118.33 106.15 127.281 111.012 134.87 117.883C150.937 132.428 158.205 152.544 165.412 175.422C170.806 192.548 176.384 210.259 177.594 227.803C179.806 259.774 167.386 287.494 155.38 314.301C150.009 326.293 144.458 338.684 140.278 351.31C136.781 361.878 134.074 373.137 131.47 384.028C126.077 406.522 120.497 429.781 107.574 448.157C86.9289 477.505 51.0584 490.381 16.3756 502.835C12.6495 504.175 8.93059 505.512 5.24777 506.856C-29.6253 519.633 -71.1135 539.45 -82.5425 579.69C-82.6689 580.154 -83.1758 580.339 -83.6689 580.12C-84.162 579.902 -84.4539 579.349 -84.3203 578.883C-72.7205 538.024 -30.8478 517.987 4.3259 505.095C8.01241 503.74 11.7348 502.411 15.4609 501.072C49.941 488.695 85.5979 475.891 105.987 446.903C118.75 428.752 124.296 405.636 129.659 383.275C132.274 372.354 134.985 361.067 138.508 350.429C142.714 337.733 148.28 325.302 153.669 313.279C165.601 286.653 177.933 259.119 175.751 227.575C174.554 210.258 169.014 192.668 163.655 175.656C156.554 153.102 149.407 133.288 133.777 119.146C126.399 112.47 117.574 107.669 109.037 103.032C101.358 98.8598 93.4251 94.5413 86.4231 88.8379C63.3932 70.0519 55.0863 40.8211 52.1712 19.6069C50.6898 8.81144 50.1407 -2.06376 49.6033 -12.5873L49.4678 -15.1845C49.4634 -15.5561 49.6751 -15.8495 49.9936 -15.9434Z" fill="white"/>
<path d="M77.1504 -26.334C77.259 -26.366 77.3784 -26.3746 77.5011 -26.3575C78.0067 -26.2933 78.4405 -25.8259 78.4729 -25.3201C79.9928 0.170894 85.1185 25.8246 93.7108 50.9178C95.996 57.5839 98.6726 64.6055 102.805 70.7802C110.876 82.8309 123.704 90.8836 136.105 98.6805C137.666 99.6595 139.22 100.641 140.763 101.616C169.753 120.089 189.088 139.223 199.872 160.133C218.388 196.019 211.481 233.46 202.077 271.859C185.624 339.023 165.157 422.612 105.351 468.449C86.0135 483.27 63.0689 493.672 40.8895 503.734C26.0863 510.446 10.7791 517.387 -3.31948 525.58C-34.1047 543.467 -55.4211 567.723 -63.3465 593.885C-63.4837 594.343 -63.9946 594.52 -64.4809 594.299C-64.9707 594.071 -65.2557 593.515 -65.1185 593.057C-57.0893 566.544 -35.5431 541.998 -4.45295 523.933C9.71095 515.703 25.0509 508.743 39.8903 502.02C62.0008 491.988 84.862 481.619 104.08 466.895C163.497 421.36 183.901 338.048 200.29 271.107C209.609 233.062 216.466 195.982 198.274 160.72C187.685 140.205 168.63 121.362 140.004 103.129C138.468 102.151 136.917 101.178 135.356 100.199C122.74 92.27 109.692 84.0776 101.335 71.5958C97.0562 65.2067 94.305 58.0205 91.9775 51.2069C83.3287 25.9349 78.1645 0.105916 76.6351 -25.5688C76.6126 -25.9443 76.8244 -26.2378 77.1504 -26.334Z" fill="white"/>
<path d="M118.839 -34.7255C119.056 -34.7896 119.315 -34.7598 119.563 -34.629C120.037 -34.361 120.284 -33.7958 120.104 -33.3613C113.226 -16.3078 107.914 -0.807724 112.481 16.1286C117.504 34.7573 133.249 49.5364 148.464 63.8336C151.502 66.6872 154.641 69.6354 157.618 72.5516C220.9 134.434 247.099 230.334 219.911 300.571C215.026 313.178 208.56 325.064 202.295 336.562C198.222 344.035 194.014 351.769 190.292 359.617C182.008 377.059 175.677 395.99 169.549 414.302C165.408 426.672 161.135 439.471 156.281 451.714C141.353 489.404 123.519 513.754 100.145 528.355C90.8899 534.139 80.496 538.441 70.4422 542.607C65.4749 544.669 60.3341 546.799 55.3976 549.073C10.4584 569.838 -24.8255 607.554 -43.9553 655.272C-44.1355 655.707 -44.6595 655.852 -45.1333 655.585C-45.6072 655.317 -45.8551 654.751 -45.675 654.317C-26.4091 606.266 9.12219 568.282 54.3871 547.367C59.3489 545.077 64.497 542.945 69.486 540.877C79.4783 536.738 89.8143 532.452 98.979 526.739C122.092 512.305 139.754 488.174 154.561 450.777C159.397 438.566 163.667 425.794 167.8 413.445C173.942 395.092 180.284 376.113 188.605 358.589C192.353 350.708 196.572 342.961 200.652 335.469C206.888 324.015 213.339 312.169 218.184 299.653C245.121 230.076 219.167 135.079 156.476 73.7757C153.517 70.8808 150.382 67.9404 147.354 65.0925C131.888 50.5678 115.9 35.559 110.709 16.3061C105.988 -1.18771 111.388 -16.9623 118.377 -34.2967C118.462 -34.5256 118.629 -34.6636 118.839 -34.7255Z" fill="white"/>
<path d="M65.1594 499.48C68.3617 498.511 71.937 499.452 74.4838 501.929C77.0642 504.443 77.9033 507.827 76.6757 510.774C72.444 520.89 64.2462 527.841 58.1098 531.896C48.9446 537.948 38.2348 542.003 27.8762 545.921C25.2554 546.913 22.6346 547.906 20.041 548.923C-37.767 571.697 -78.6151 610.724 -92.0212 656.012C-92.1496 656.442 -92.6483 656.657 -93.1286 656.491C-93.6089 656.324 -93.9028 655.837 -93.7671 655.404C-86.5978 631.18 -72.2198 609.133 -51.0434 589.876C-32.2096 572.743 -7.91951 558.045 19.1973 547.363C21.8022 546.335 24.4231 545.342 27.0511 544.347C37.3224 540.456 47.9512 536.441 56.9681 530.482C62.9334 526.542 70.9012 519.798 74.9882 510.021C75.9625 507.687 75.2979 505.001 73.2523 503.013C71.2371 501.055 68.4194 500.309 65.8939 501.073C55.7704 504.135 47.0632 511.24 38.6378 518.107C36.8482 519.568 35.0774 521.015 33.2989 522.409C19.0526 533.628 2.36846 542.466 -13.7696 551.011C-34.7943 562.145 -56.5342 573.656 -72.7241 590.453C-83.3702 601.495 -91.6053 614.95 -96.5347 629.372C-96.6809 629.8 -97.189 629.994 -97.6653 629.818C-98.1446 629.635 -98.4167 629.142 -98.2705 628.714C-93.2694 614.102 -84.9199 600.46 -74.1363 589.265C-57.7756 572.297 -35.9287 560.729 -14.7971 549.538C1.27861 541.02 17.9036 532.216 32.0338 521.088C33.7977 519.699 35.5718 518.259 37.3467 516.802C45.8955 509.842 54.7229 502.637 65.1594 499.48Z" fill="white"/>
<path d="M130.192 -31.1579C130.467 -31.2391 130.795 -31.1672 131.075 -30.948C131.509 -30.6058 131.645 -30.0158 131.379 -29.6443C123.706 -18.5928 116.238 3.35076 124.599 15.368C133.17 27.6869 139.059 34.3803 150.861 45.213C158.474 52.1966 166.402 58.9361 174.069 65.46C203.559 90.5359 231.418 114.221 241.303 150.266C253.892 196.165 246.172 249.399 239.969 292.173C238.718 300.814 238.074 309.871 237.394 319.462C235.664 343.91 233.866 369.186 221.328 386.821C217.003 392.899 211.997 398.558 207.165 404.022C201.106 410.87 194.843 417.955 189.909 425.89C179.73 442.27 174.982 462.577 170.402 482.222C164.571 507.179 158.539 532.977 141.262 550.493C130.436 561.464 115.963 568.283 101.969 574.872C99.3139 576.126 96.655 577.373 94.0282 578.654C45.2588 602.342 2.51683 637.733 -29.5912 680.999C-29.8648 681.373 -30.4351 681.382 -30.8583 681.027C-31.2887 680.675 -31.4069 680.089 -31.1298 679.723C1.1096 636.275 44.0331 600.742 92.9946 576.953C95.6286 575.67 98.2876 574.423 100.95 573.167C114.836 566.628 129.188 559.87 139.844 549.066C156.84 531.836 162.824 506.239 168.613 481.48C173.231 461.718 178.005 441.289 188.312 424.702C193.308 416.668 199.607 409.537 205.706 402.651C210.516 397.211 215.498 391.586 219.782 385.565C232.079 368.266 233.857 343.218 235.578 318.986C236.234 309.792 236.907 300.275 238.172 291.576C244.352 248.968 252.042 195.939 239.559 150.435C229.859 115.071 202.277 91.6156 173.07 66.7845C165.381 60.2493 157.439 53.4962 149.794 46.4777C137.838 35.5042 131.866 28.7196 123.177 16.2314C114.178 3.29331 121.645 -19.1029 129.829 -30.8732C129.909 -31.0212 130.04 -31.1131 130.192 -31.1579Z" fill="white"/>
<path d="M154.123 -30.9695C154.405 -31.0527 154.75 -30.9774 155.03 -30.7406C155.453 -30.3865 155.571 -29.8004 155.294 -29.4348C155.119 -29.2057 138.057 -6.23197 152.234 14.2146C156.05 19.7227 164.296 27.0274 174.727 36.2771C204.206 62.4146 248.763 101.921 257.441 156.563C267.616 220.662 262.051 253.989 257.989 278.331C257.35 282.148 256.748 285.759 256.237 289.28C254.875 298.632 253.826 308.655 252.722 319.262C250.728 338.363 248.664 358.123 244.569 374.793C241.189 388.538 230.684 400.634 220.521 412.328C211.603 422.59 203.18 432.28 200.745 441.94C199.535 446.741 198.382 454.364 196.932 464.026C192.064 496.377 184.703 545.261 163.708 566.105C148.323 581.381 118.29 599.359 94.1568 613.803C75.4346 625.009 59.2603 634.69 54.8971 640.023C52.6863 642.725 47.9445 646.662 41.3909 652.119C27.2706 663.872 5.93588 681.632 -10.8545 704.499C-11.128 704.873 -11.6944 704.889 -12.1245 704.537C-12.5546 704.185 -12.6798 703.601 -12.4064 703.228C4.48612 680.224 25.8971 662.397 40.0718 650.601C46.3205 645.394 51.2621 641.283 53.389 638.686C57.9088 633.173 74.1702 623.431 93.0083 612.156C117.076 597.749 147.026 579.822 162.291 564.661C182.951 544.146 190.266 495.559 195.111 463.411C196.569 453.711 197.723 446.052 198.955 441.174C201.483 431.175 210.011 421.357 219.042 410.964C229.092 399.401 239.485 387.436 242.775 374.037C246.844 357.472 248.904 337.775 250.894 318.72C252.005 308.093 253.051 298.062 254.42 288.672C254.935 285.141 255.54 281.52 256.176 277.696C260.219 253.475 265.758 220.306 255.627 156.504C247.073 102.641 202.9 63.4746 173.674 37.5547C163.121 28.1991 154.786 20.8055 150.795 15.0563C135.798 -6.56727 153.578 -30.4893 153.756 -30.7283C153.858 -30.8471 153.985 -30.9289 154.123 -30.9695Z" fill="white"/>
<path d="M200.859 -56.3421C201.213 -56.4467 201.659 -56.2947 201.937 -55.9337C202.279 -55.5031 202.253 -54.9281 201.88 -54.6672C201.528 -54.4126 166.557 -28.9867 181.82 3.46318C186.294 12.9808 196.474 23.7375 208.259 36.1917C238.074 67.7102 278.916 110.879 276.225 181.08C274.402 228.815 272.472 262.462 270.923 289.5C269.333 317.224 268.188 337.248 268.193 355.761C268.215 395.78 227.294 431.092 219.085 437.763C211.423 443.997 209.224 469.561 206.886 496.628C204.722 521.747 202.484 547.713 195.718 562.581C169.459 620.318 132.601 659.844 83.0391 683.439C26.2381 710.475 16.1919 739.315 8.12673 762.49C6.56616 766.967 5.09768 771.194 3.36759 775.241C3.18396 775.668 2.65671 775.806 2.17964 775.53C1.70611 775.263 1.48008 774.691 1.66017 774.257C3.3683 770.251 4.83296 766.052 6.37894 761.598C14.5362 738.173 24.6858 709.019 82.015 681.739C131.27 658.297 167.906 618.987 194.022 561.567C200.673 546.936 202.9 521.107 205.056 496.132C207.414 468.731 209.645 442.856 217.775 436.244C225.893 429.644 266.368 394.722 266.351 355.419C266.342 336.862 267.492 316.811 269.085 289.06C270.637 262.03 272.563 228.392 274.387 180.675C277.038 111.327 236.582 68.5586 207.039 37.3321C195.112 24.7252 184.814 13.8348 180.18 3.98325C164.283 -29.8304 200.269 -55.9815 200.635 -56.2404C200.714 -56.2816 200.787 -56.3207 200.859 -56.3421Z" fill="white"/>
</g>
</svg>
