<svg width="1920" height="1424" viewBox="0 0 1920 1424" fill="none" xmlns="http://www.w3.org/2000/svg">
<g opacity="0.2">
<path d="M-160.715 187.742C-155.761 186.283 -150.303 185.857 -145.175 186.323C-137.023 187.061 -128.751 189.427 -120.754 191.713C-114.932 193.378 -108.917 195.103 -103.022 196.166C-91.5878 198.235 -80.1532 197.945 -69.0968 197.658C-65.7253 197.569 -62.2301 197.478 -58.7936 197.459C-45.833 197.381 -29.0095 198.293 -13.7534 206.166C2.25674 214.424 13.8058 230.075 14.3279 244.224C14.7976 256.878 7.34002 266.037 0.135239 274.898C-4.44924 280.529 -9.19133 286.359 -11.9426 293.077C-14.38 299.033 -14.8604 306.621 -15.321 313.962C-15.9636 324.208 -16.6301 334.8 -22.567 341.545C-34.463 355.076 -76.6222 356.061 -95.3202 343.257C-104.923 336.679 -112.154 327.249 -118.737 318.156C-138.216 291.251 -155.466 262.78 -170.014 233.512C-174.61 224.263 -179.365 213.595 -177.476 204.091C-175.742 195.392 -168.912 190.154 -160.715 187.742ZM-24.0383 340.163C-18.4347 333.794 -17.7844 323.474 -17.1545 313.491C-16.6821 306.013 -16.1972 298.29 -13.6601 292.099C-10.824 285.185 -6.01956 279.275 -1.37275 273.563C5.98953 264.521 12.9414 255.976 12.4934 243.933C11.9152 228.298 -1.80762 214.244 -14.3126 207.788C-29.1556 200.133 -45.681 199.24 -58.4089 199.322C-61.8346 199.347 -65.3151 199.432 -68.6793 199.52C-79.834 199.808 -91.3668 200.101 -102.983 197.996C-108.98 196.909 -115.049 195.173 -120.918 193.495C-128.821 191.235 -136.999 188.896 -144.969 188.175C-157.925 187.01 -173.046 191.711 -175.633 204.782C-177.402 213.714 -172.808 224.01 -168.359 232.954C-153.869 262.095 -136.691 290.463 -117.288 317.255C-110.831 326.18 -103.744 335.42 -94.4672 341.772C-76.7687 353.905 -35.2896 352.951 -24.0383 340.163Z" fill="white"/>
<path d="M-140.195 209.75C-136.11 208.547 -131.616 208.207 -127.381 208.604C-120.643 209.238 -113.802 211.244 -107.189 213.184C-102.386 214.593 -97.4241 216.045 -92.5673 216.956C-83.1477 218.712 -73.7336 218.496 -64.6213 218.288C-61.8407 218.229 -58.9656 218.16 -56.1308 218.148C-45.4278 218.115 -31.5175 218.925 -18.8765 225.567C-5.98547 232.341 -0.00999363 240.757 0.505098 252.872C0.950021 263.453 -5.3095 271.076 -11.3639 278.441C-15.2499 283.168 -19.2752 288.06 -21.5208 293.707C-23.5485 298.797 -23.4039 305.759 -23.2651 312.49C-23.0788 321.449 -22.8871 330.711 -27.6834 336.268C-37.3456 347.466 -62.5079 351.853 -78.0913 341.012C-84.1662 336.788 -92.1432 324.806 -97.9748 316.052C-99.7999 313.311 -101.384 310.936 -102.673 309.136C-108.613 300.852 -114.637 293.763 -120.47 286.894C-130.534 275.044 -140.035 263.851 -147.753 248.246C-151.595 240.47 -155.576 231.502 -154.064 223.517C-152.68 216.158 -147.011 211.756 -140.195 209.75ZM-29.1937 334.89C-24.7672 329.755 -24.9536 320.813 -25.1238 312.162C-25.2651 305.262 -25.4122 298.131 -23.2663 292.737C-20.9357 286.879 -16.8409 281.903 -12.8853 277.094C-6.73567 269.61 -0.923096 262.548 -1.35017 252.587C-1.83353 241.196 -7.24731 233.597 -19.4719 227.18C-31.7073 220.758 -45.3016 219.972 -55.7793 220.01C-58.5995 220.018 -61.4674 220.085 -64.237 220.15C-73.4367 220.365 -82.9488 220.584 -92.5608 218.785C-97.5229 217.861 -102.536 216.388 -107.382 214.974C-113.901 213.06 -120.644 211.088 -127.2 210.471C-137.82 209.47 -150.19 213.335 -152.247 224.188C-153.654 231.624 -149.828 240.218 -146.128 247.696C-138.54 263.035 -129.129 274.121 -119.166 285.858C-113.312 292.756 -107.248 299.896 -101.25 308.252C-99.9356 310.09 -98.3481 312.472 -96.505 315.235C-90.7814 323.825 -82.9556 335.583 -77.257 339.542C-62.4369 349.849 -38.4312 345.606 -29.1937 334.89Z" fill="white"/>
<path d="M-116.152 228.954C-115.704 228.822 -115.243 228.72 -114.767 228.651C-111.313 228.151 -107.689 229.363 -104.177 230.528L-103.388 230.79C-92.8111 234.281 -82.0819 236.321 -71.5052 236.848C-70.1998 236.913 -68.8762 236.964 -67.5347 237.019C-56.2594 237.463 -43.4844 237.968 -34.6608 247.076C-26.2687 255.736 -25.7156 268.149 -28.0059 276.88C-29.6161 283.047 -32.1652 288.784 -34.63 294.327C-37.1535 300.012 -39.7614 305.89 -41.3513 312.211C-41.7684 313.874 -42.0451 315.956 -42.3373 318.166C-43.3057 325.445 -44.5158 334.502 -51.951 335.604C-67.8155 337.942 -85.0206 308.32 -97.5804 286.688C-101.619 279.731 -105.105 273.726 -107.642 270.45C-108.742 269.031 -109.896 267.603 -111.013 266.216C-115.436 260.745 -120.011 255.08 -122.366 248.572C-124.197 243.512 -124.035 237.888 -121.95 233.89C-120.597 231.366 -118.622 229.676 -116.152 228.954ZM-29.766 276.117C-27.6094 267.886 -28.079 256.236 -35.8363 248.238C-44.0287 239.784 -55.8363 239.32 -67.2554 238.865C-68.6041 238.813 -69.9384 238.756 -71.2439 238.691C-81.9967 238.154 -92.8983 236.077 -103.636 232.536L-104.436 232.268C-107.73 231.171 -111.138 230.038 -114.178 230.477C-116.812 230.857 -118.915 232.409 -120.257 234.974C-122.137 238.574 -122.281 243.662 -120.625 248.243C-118.4 254.391 -113.953 259.899 -109.656 265.222C-108.527 266.614 -107.367 268.058 -106.249 269.498C-103.623 272.898 -100.091 278.969 -96.0131 285.994C-84.4674 305.873 -67.0247 335.912 -52.5148 333.78C-46.1568 332.846 -45.0771 324.747 -44.1314 317.6C-43.8352 315.344 -43.5473 313.214 -43.1115 311.466C-41.4917 305.013 -38.8582 299.083 -36.3053 293.336C-33.8662 287.844 -31.3464 282.169 -29.766 276.117Z" fill="white"/>
<path d="M-183.567 175.073C-177.328 173.237 -169.166 173.267 -162.15 173.285C-159.459 173.298 -156.92 173.301 -154.74 173.205C-139.812 172.54 -123.948 175.114 -108.847 180.639C-106.775 181.397 -104.873 182.108 -103.081 182.778C-94.4329 186 -88.1839 188.328 -77.9659 190.551C-65.6156 193.229 -48.4967 194.727 -27.0781 194.995C-15.956 195.137 4.61234 197.605 17.3845 212.543C25.8632 222.458 29.342 236.787 26.4666 249.937C23.6961 262.592 15.8414 272.772 9.29866 280.224C8.7052 280.899 8.09714 281.579 7.4964 282.257C2.00546 288.442 -3.67226 294.834 -5.32512 303.243C-6.41462 308.804 -6.06936 314.684 -5.73744 320.372C-5.07317 331.675 -4.45232 342.357 -14.5439 349.619C-30.6313 361.194 -50.086 365.624 -66.5846 361.475C-95.9283 354.088 -116.564 341.465 -133.507 320.539C-153.786 295.48 -173.513 256.72 -184.066 229.425C-184.646 227.932 -185.262 226.379 -185.892 224.776C-192.098 209.121 -199.822 189.64 -191.069 179.436C-189.303 177.36 -186.672 175.987 -183.567 175.073ZM-7.14313 302.553C-5.41135 293.737 0.398228 287.198 6.01374 280.869C6.61448 280.191 7.21524 279.514 7.8087 278.838C14.2343 271.511 21.9568 261.53 24.6488 249.212C27.4006 236.643 24.1139 222.991 16.0758 213.59C3.89949 199.344 -15.9821 196.987 -26.7514 196.857C-48.2865 196.588 -65.5362 195.075 -78.0136 192.372C-88.3842 190.121 -94.684 187.773 -103.419 184.523C-105.212 183.852 -107.109 183.15 -109.174 182.39C-124.017 176.958 -139.631 174.427 -154.308 175.081C-156.528 175.18 -159.092 175.175 -161.802 175.159C-171.997 175.128 -184.676 175.087 -189.579 180.804C-197.709 190.287 -190.211 209.201 -184.191 224.391C-183.55 226 -182.938 227.563 -182.358 229.056C-171.873 256.184 -152.286 294.689 -132.166 319.545C-115.353 340.313 -95.7099 352.316 -66.4788 359.674C-47.6269 364.417 -27.9412 356.772 -15.8072 348.041C-6.35858 341.237 -6.95666 330.987 -7.59099 320.13C-7.9294 314.319 -8.27758 308.324 -7.14313 302.553ZM-6.23592 302.894L-6.24322 302.896L-6.23592 302.894Z" fill="white"/>
<path d="M-188.549 160.201C-162.583 152.559 -122.698 157.903 -87.4581 174.962C-70.3044 183.267 -52.6193 183.312 -35.52 183.36C-12.2067 183.421 9.81135 183.488 26.8735 204.815C55.6255 240.768 31.6567 269.583 17.3392 286.802L16.1846 288.188C4.32636 302.491 4.57293 313.786 4.97002 332.496C5.02986 335.171 5.0851 337.999 5.11737 341.012C5.36456 365.714 -26.4592 373.98 -27.8694 374.333C-94.2959 391.37 -134.252 338.062 -153.456 312.446C-156.292 308.666 -158.735 305.405 -160.639 303.237C-183.735 276.933 -211.562 217.963 -211.117 186.645C-210.978 177.177 -208.373 170.588 -203.37 167.067C-199.215 164.154 -194.213 161.868 -188.549 160.201ZM-27.8058 372.293C-22.7905 370.817 3.48442 362.055 3.2712 340.679C3.24252 337.673 3.18358 334.856 3.12375 332.181C2.71082 313.091 2.46928 301.571 14.6721 286.844L15.8305 285.448C29.8253 268.629 53.248 240.466 25.5249 205.793C9.16322 185.333 -12.371 185.276 -35.164 185.214C-52.478 185.167 -70.3886 185.117 -87.9776 176.6C-130.33 156.098 -179.4 152.679 -202.114 168.647C-206.722 171.891 -209.128 178.064 -209.256 187.01C-209.695 217.906 -182.184 276.146 -159.348 302.151C-157.379 304.389 -154.911 307.687 -152.045 311.512C-133.137 336.733 -93.7951 389.219 -28.6221 372.515L-28.6148 372.513C-28.5967 372.517 -28.3088 372.441 -27.8058 372.293Z" fill="white"/>
<path d="M-194.944 115.408C-179.993 111.007 -162.452 110.811 -144.492 115.459C-135.9 117.682 -129.299 120.448 -123.74 124.154C-119.307 127.111 -115.329 130.827 -111.489 134.422C-110.138 135.686 -108.732 136.997 -107.334 138.256C-90.2843 153.553 -69.3529 164.206 -48.3975 168.249C-39.7438 169.919 -30.8218 170.544 -22.1976 171.15C-5.61421 172.317 11.5396 173.521 27.4245 182.211C34.4254 186.038 39.7603 190.65 43.2921 195.909C46.2549 200.334 47.961 205.228 49.5824 210.281C54.087 224.287 57.9397 239.073 55.6489 252.372C53.3995 265.435 45.5578 275.516 37.9652 285.273C32.1755 292.714 26.1879 300.409 22.7071 309.385C19.5553 317.487 18.4391 326.687 17.3611 335.59C16.5943 341.855 15.8116 348.34 14.3225 354.451L13.4236 354.073L14.3225 354.451C6.4366 386.854 -32.4297 392.051 -63.3164 386.652C-75.4272 384.535 -87.2146 379.588 -98.1512 374.571C-140.212 355.245 -170.897 332.972 -191.967 306.457C-206.126 288.638 -217.803 266.416 -227.663 238.514C-242.789 195.713 -243.539 162.824 -229.908 140.746C-222.361 128.491 -209.96 119.829 -194.944 115.408ZM12.5066 353.69C13.9696 347.667 14.752 341.236 15.5076 335.019C16.6007 326.022 17.7358 316.718 20.9505 308.428C24.5126 299.249 30.5624 291.473 36.4144 283.952C43.8898 274.336 51.629 264.392 53.8105 251.707C56.0298 238.796 52.2408 224.276 47.8146 210.516C46.243 205.627 44.6014 200.893 41.8041 196.722C38.4955 191.79 33.446 187.443 26.7856 183.802C11.3099 175.34 -5.61499 174.149 -21.9841 172.999C-30.6664 172.393 -39.6392 171.764 -48.4127 170.067C-69.7456 165.957 -91.0611 155.113 -108.421 139.532C-109.834 138.259 -111.243 136.941 -112.609 135.663C-116.377 132.136 -120.275 128.486 -124.549 125.643C-129.895 122.079 -136.267 119.417 -144.623 117.257C-179.924 108.128 -213.55 118.035 -228.309 141.919C-241.676 163.562 -240.89 195.949 -225.96 238.191C-216.189 265.843 -204.634 287.851 -190.638 305.458C-169.816 331.662 -139.414 353.714 -97.6897 372.88C-86.8837 377.847 -75.2448 382.721 -63.3664 384.799C-33.1404 390.089 4.86319 385.102 12.5066 353.69Z" fill="white"/>
<path d="M-121.915 31.9074C-121.893 31.901 -121.872 31.8946 -121.85 31.8882C-121.378 31.7928 -120.852 32.1241 -120.665 32.6266C-112.823 53.9519 -102.501 73.4727 -89.9966 90.6572C-69.1708 119.252 -41.8999 141.462 -13.2056 153.186C-8.08792 155.276 -2.76656 157.11 2.38624 158.88C14.2527 162.957 26.521 167.181 37.2845 174.895C53.3062 186.383 65.2155 205.886 68.3765 225.798C71.2333 243.808 67.4138 262.341 57.6232 277.984C55.7482 280.982 53.6472 283.896 51.6154 286.71C47.4317 292.506 43.1024 298.504 40.6074 305.465C37.4824 314.179 37.2861 324.231 37.0998 333.962C37.0039 338.939 36.8994 344.077 36.4151 349.027C33.9557 373.983 21.2714 395.651 1.60106 408.461C0.812796 408.907 -17.2282 418.828 -53.0103 412.05C-61.1268 410.511 -76.6112 403.591 -91.5864 396.892C-106.673 390.147 -122.279 383.174 -130.263 381.711C-139.084 380.097 -147.749 379.986 -156.005 381.374C-156.484 381.454 -157.007 381.113 -157.179 380.606C-157.351 380.099 -157.103 379.636 -156.627 379.549C-148.176 378.121 -139.313 378.235 -130.277 379.892C-122.052 381.399 -106.331 388.426 -91.1297 395.226C-76.2692 401.87 -60.9067 408.737 -53.013 410.236C-17.91 416.887 0.264412 406.936 0.448776 406.837C19.7175 394.278 32.1718 373.006 34.5841 348.507C35.0679 343.628 35.1613 338.519 35.2641 333.575C35.4587 323.718 35.6634 313.522 38.8733 304.562C41.4347 297.404 45.8259 291.325 50.0607 285.443C52.0779 282.651 54.1643 279.759 56.0138 276.796C65.6073 261.477 69.3551 243.346 66.5669 225.74C63.4947 206.386 51.9477 187.449 36.4232 176.318C25.9352 168.797 13.8248 164.632 2.10907 160.599C-3.06523 158.819 -8.42255 156.977 -13.5905 154.867C-42.6757 142.984 -70.3076 120.5 -91.3859 91.5461C-104.026 74.1891 -114.443 54.4753 -122.356 32.9584C-122.542 32.4914 -122.341 32.0333 -121.915 31.9074Z" fill="white"/>
<path d="M-64.7955 8.44405C-64.6437 8.39922 -64.4634 8.39918 -64.2728 8.45816C-63.7656 8.61876 -63.4163 9.13638 -63.4815 9.62564C-66.7086 34.1236 -65.6311 55.1155 -60.1793 73.8045C-53.3479 97.2385 -39.0997 117.595 -21.1039 129.653C-10.7663 136.586 0.86525 140.875 12.1084 145.03C22.3844 148.824 33.0055 152.746 42.7632 158.688C72.0721 176.539 90.4963 212.769 85.6048 242.964C84.0271 252.742 80.2348 261.666 76.5747 270.302C74.2522 275.777 71.8561 281.433 70.0431 287.236C66.0579 300.021 64.719 314.251 63.4161 328.018C61.6366 346.865 59.7943 366.351 51.1324 382.274C44.721 394.064 34.3769 404.302 19.5077 413.58C5.91767 422.063 -5.98911 426.103 -17.9591 426.294C-32.2049 426.529 -46.7995 421.199 -60.9016 416.052C-70.1999 412.662 -79.8146 409.152 -89.2582 407.249C-111.245 402.826 -132.992 407.165 -148.903 419.153C-149.269 419.43 -149.849 419.309 -150.199 418.88C-150.549 418.451 -150.537 417.88 -150.171 417.603C-133.908 405.36 -111.699 400.921 -89.2402 405.444C-79.6454 407.373 -69.9552 410.905 -60.585 414.327C-46.6483 419.416 -32.2334 424.675 -18.3375 424.446C-6.67042 424.255 4.98335 420.29 18.3378 411.957C33.0005 402.802 43.1846 392.735 49.4824 381.165C57.9906 365.518 59.8172 346.196 61.5847 327.504C62.8918 313.656 64.246 299.333 68.2756 286.392C70.1037 280.514 72.5145 274.818 74.8552 269.311C78.4822 260.764 82.2306 251.924 83.778 242.333C88.5371 212.913 70.5887 177.607 42.0298 160.217C32.4624 154.387 21.9383 150.499 11.763 146.746C0.393979 142.548 -11.3562 138.214 -21.927 131.129C-40.3819 118.763 -54.9726 97.94 -61.9514 73.9997C-67.4805 55.0497 -68.5813 33.8075 -65.3232 9.05218C-65.2667 8.74283 -65.063 8.52304 -64.7955 8.44405Z" fill="white"/>
<path d="M-29.3027 17.0021C-28.9694 16.9038 -28.5582 17.0314 -28.275 17.3478C-27.8984 17.7612 -27.8738 18.3406 -28.2195 18.6469C-40.1003 29.146 -43.3391 49.1666 -36.2732 68.4678C-30.0153 85.5542 -16.5248 101.832 1.733 114.312C12.3222 121.553 24.1583 127.377 35.6053 133.014C56.1112 143.116 77.3124 153.555 91.4749 172.328C103.844 188.723 109.682 210.715 107.925 234.236C106.757 249.895 102.613 264.769 98.6062 279.15C97.4029 283.487 96.1515 287.971 95.0053 292.398C89.4792 313.751 85.7787 336.067 83.9918 358.726C83.8279 360.846 83.6784 362.978 83.5216 365.113C82.4328 380.367 81.3113 396.145 74.6256 409.059C60.6747 436.016 26.4865 442.455 7.35577 443.893C-4.89525 444.813 -17.6183 444.548 -29.9077 444.297C-44.9946 443.983 -60.5913 443.668 -75.369 445.537C-96.1896 448.176 -113.726 455.916 -124.735 467.341C-125.055 467.666 -125.633 467.623 -126.025 467.232C-126.423 466.843 -126.484 466.257 -126.163 465.931C-114.932 454.272 -97.0873 446.379 -75.9303 443.703C-61.0295 441.815 -45.3642 442.136 -30.2122 442.449C-17.9553 442.701 -5.28285 442.963 6.8886 442.049C25.719 440.637 59.3279 434.333 72.9706 407.982C79.5097 395.344 80.6264 379.735 81.6995 364.646C81.8527 362.504 82.0022 360.371 82.1733 358.249C83.9574 335.494 87.6802 313.082 93.2287 291.633C94.375 287.189 95.6301 282.694 96.8407 278.355C100.829 264.042 104.944 249.247 106.107 233.759C107.828 210.72 102.145 189.233 90.1014 173.266C76.2862 154.951 56.2774 145.093 35.0871 134.66C23.5644 128.983 11.6527 123.119 0.93044 115.785C-17.7303 103.032 -31.5467 86.3436 -37.9676 68.8075C-45.2851 48.825 -41.9034 28.069 -29.5605 17.1581C-29.4949 17.0855 -29.4042 17.032 -29.3027 17.0021Z" fill="white"/>
<path d="M-0.0668392 -23.337C0.0925503 -23.384 0.284075 -23.3783 0.475208 -23.3191C0.979978 -23.148 1.31942 -22.6172 1.24354 -22.1327C-1.7891 -3.12622 -4.91685 16.5215 -3.08027 36.9356C-1.04681 59.5579 7.35591 80.1772 20.5981 95.0055C37.3569 113.782 60.9725 123.302 83.8096 132.519C88.354 134.351 93.0497 136.246 97.5897 138.177C103.045 140.496 108.725 143.149 112.909 147.771C116.086 151.278 118.039 155.545 119.929 159.965C127.397 177.456 135.978 200.369 135.995 222.457C136.008 247.488 125.371 268.853 115.071 289.514C106.346 307.018 97.3308 325.114 94.7547 345.435C93.8177 352.856 93.7121 360.752 93.6085 368.381C93.4164 383.075 93.217 398.26 87.0485 410.717C78.6564 427.652 59.5086 438.57 30.1459 443.178C18.2184 445.043 5.79889 446.004 -6.21915 446.927C-24.1902 448.308 -42.7724 449.737 -59.9137 454.268C-93.1679 463.063 -115.018 484.03 -118.333 510.38C-118.391 510.868 -118.852 511.138 -119.36 510.976C-119.865 510.823 -120.226 510.299 -120.161 509.809C-116.773 482.841 -94.5147 461.417 -60.6847 452.46C-43.4021 447.896 -24.7476 446.464 -6.70425 445.079C5.274 444.159 17.6646 443.206 29.5269 441.343C58.4083 436.814 77.1819 426.158 85.3576 409.652C91.3755 397.514 91.5663 382.51 91.7607 368.002C91.8647 360.32 91.9634 352.372 92.9156 344.857C95.5189 324.271 104.596 306.059 113.377 288.441C123.595 267.946 134.152 246.747 134.136 222.108C134.12 200.366 125.631 177.71 118.238 160.401C116.358 156.006 114.569 152.099 111.636 148.858C107.779 144.592 102.365 142.074 97.1435 139.855C92.6251 137.935 87.9294 136.041 83.3958 134.214C60.3136 124.91 36.4494 115.276 19.3141 96.0863C5.75292 80.8988 -2.85609 59.825 -4.92958 36.7524C-6.78618 16.113 -3.63587 -3.64797 -0.591643 -22.7556C-0.528012 -23.0499 -0.327658 -23.26 -0.0668392 -23.337Z" fill="white"/>
<path d="M22.9774 -2.1917C23.1006 -2.22804 23.2382 -2.23301 23.3899 -2.2066C23.8956 -2.10667 24.3045 -1.62244 24.3045 -1.11546C24.027 40.6885 51.416 86.6271 89.4188 108.117C92.2939 109.742 95.2889 111.287 98.1867 112.781C104.829 116.203 111.688 119.74 117.77 124.591C125.039 130.39 131.641 138.414 137.945 149.114C157.954 183.069 163.189 224.03 151.616 256.019C147.485 267.438 141.332 277.862 135.373 287.935C129.052 298.639 122.518 309.709 118.45 321.919C113.269 337.49 112.086 354.951 110.933 371.843C110.265 381.655 109.573 391.793 108.113 401.509C104.217 427.41 99.2045 447.735 73.2514 454.293L40.605 460.449C32.4008 462.37 28.3063 463.782 25.307 464.817C20.6467 466.431 18.7137 467.099 8.52933 467.211C-27.9679 467.601 -57.9432 479.57 -75.8891 500.906C-82.7675 509.08 -88.5069 519.328 -93.4372 532.246C-93.6068 532.687 -94.1324 532.833 -94.6117 532.575C-95.091 532.316 -95.3401 531.749 -95.1705 531.307C-90.1849 518.239 -84.3649 507.861 -77.3879 499.56C-59.1684 477.903 -28.7902 465.754 8.15925 465.364C18.0651 465.254 19.9291 464.615 24.4262 463.058C27.4472 462.016 31.5889 460.581 39.9054 458.636L72.5374 452.484C97.6604 446.162 102.349 427.116 106.287 400.909C107.735 391.259 108.427 381.156 109.087 371.382C110.245 354.391 111.436 336.821 116.68 321.062C120.792 308.697 127.37 297.561 133.728 286.792C139.647 276.776 145.767 266.406 149.85 255.117C161.249 223.615 156.09 183.271 136.388 149.831C130.234 139.389 123.819 131.577 116.783 125.967C110.885 121.267 104.123 117.781 97.5852 114.408C94.6659 112.903 91.6492 111.346 88.7309 109.699C69.6754 98.9251 52.5513 81.7208 40.5298 61.2689C28.7299 41.1964 22.2999 18.918 22.4331 -1.47091C22.4647 -1.83599 22.6729 -2.10191 22.9774 -2.1917Z" fill="white"/>
<path d="M49.9936 -15.9432C50.1022 -15.9752 50.2214 -15.9838 50.3513 -15.9688C50.86 -15.8969 51.2934 -15.4299 51.3184 -14.9223L51.4539 -12.3251C51.9879 -1.84499 52.5373 8.99461 54.0085 19.7132C58.0491 49.1463 69.9162 73.2153 87.4228 87.4954C94.2489 93.0642 102.089 97.3215 109.67 101.442C118.33 106.15 127.281 111.012 134.87 117.883C150.937 132.428 158.205 152.544 165.412 175.422C170.806 192.548 176.384 210.26 177.594 227.804C179.806 259.774 167.386 287.494 155.38 314.301C150.009 326.293 144.458 338.684 140.278 351.31C136.781 361.878 134.074 373.137 131.47 384.028C126.077 406.522 120.497 429.781 107.574 448.158C86.9289 477.505 51.0584 490.381 16.3756 502.835C12.6495 504.175 8.93059 505.512 5.24777 506.856C-29.6253 519.633 -71.1135 539.45 -82.5425 579.691C-82.6689 580.154 -83.1758 580.339 -83.6689 580.121C-84.162 579.902 -84.4539 579.349 -84.3203 578.883C-72.7205 538.024 -30.8478 517.987 4.3259 505.095C8.01241 503.741 11.7348 502.411 15.4609 501.072C49.941 488.695 85.5979 475.891 105.987 446.903C118.75 428.752 124.296 405.636 129.659 383.275C132.274 372.354 134.985 361.068 138.508 350.429C142.714 337.734 148.28 325.303 153.669 313.279C165.601 286.653 177.933 259.119 175.751 227.575C174.554 210.258 169.014 192.669 163.655 175.656C156.554 153.102 149.407 133.288 133.777 119.147C126.399 112.471 117.574 107.669 109.037 103.032C101.358 98.8601 93.4251 94.5415 86.4231 88.8381C63.3932 70.0522 55.0863 40.8214 52.1712 19.6071C50.6898 8.81168 50.1407 -2.06352 49.6033 -12.587L49.4678 -15.1842C49.4634 -15.5559 49.6751 -15.8492 49.9936 -15.9432Z" fill="white"/>
<path d="M77.1504 -26.3338C77.259 -26.3658 77.3784 -26.3743 77.5011 -26.3572C78.0067 -26.2931 78.4405 -25.8257 78.4729 -25.3198C79.9928 0.171138 85.1185 25.8248 93.7108 50.9181C95.996 57.5842 98.6726 64.6058 102.805 70.7804C110.876 82.8311 123.704 90.8838 136.105 98.6807C137.666 99.6598 139.22 100.641 140.763 101.616C169.753 120.089 189.088 139.223 199.872 160.133C218.388 196.02 211.481 233.46 202.077 271.86C185.624 339.024 165.157 422.612 105.351 468.449C86.0135 483.27 63.0689 493.673 40.8895 503.734C26.0863 510.446 10.7791 517.387 -3.31948 525.58C-34.1047 543.467 -55.4211 567.723 -63.3465 593.885C-63.4837 594.343 -63.9946 594.52 -64.4809 594.3C-64.9707 594.071 -65.2557 593.515 -65.1185 593.057C-57.0893 566.544 -35.5431 541.999 -4.45295 523.933C9.71095 515.703 25.0509 508.743 39.8903 502.02C62.0008 491.988 84.862 481.619 104.08 466.896C163.497 421.36 183.901 338.048 200.29 271.107C209.609 233.062 216.466 195.982 198.274 160.72C187.685 140.206 168.63 121.362 140.004 103.129C138.468 102.151 136.917 101.178 135.356 100.199C122.74 92.2702 109.692 84.0778 101.335 71.5961C97.0562 65.207 94.305 58.0208 91.9775 51.2072C83.3287 25.9351 78.1645 0.10616 76.6351 -25.5686C76.6126 -25.9441 76.8244 -26.2376 77.1504 -26.3338Z" fill="white"/>
<path d="M118.839 -34.7253C119.056 -34.7893 119.315 -34.7595 119.563 -34.6288C120.037 -34.3608 120.284 -33.7955 120.104 -33.361C113.226 -16.3076 107.914 -0.80748 112.481 16.1289C117.504 34.7575 133.249 49.5367 148.464 63.8339C151.502 66.6875 154.641 69.6357 157.618 72.5519C220.9 134.435 247.099 230.334 219.911 300.571C215.026 313.179 208.56 325.064 202.295 336.563C198.222 344.035 194.014 351.769 190.292 359.617C182.008 377.059 175.677 395.99 169.549 414.303C165.408 426.672 161.135 439.471 156.281 451.715C141.353 489.404 123.519 513.755 100.145 528.355C90.8899 534.139 80.496 538.441 70.4422 542.608C65.4749 544.669 60.3341 546.799 55.3976 549.073C10.4584 569.838 -24.8255 607.554 -43.9553 655.272C-44.1355 655.707 -44.6595 655.853 -45.1333 655.585C-45.6072 655.317 -45.8551 654.752 -45.675 654.317C-26.4091 606.266 9.12219 568.282 54.3871 547.367C59.3489 545.077 64.497 542.945 69.486 540.877C79.4783 536.738 89.8143 532.453 98.979 526.74C122.092 512.305 139.754 488.174 154.561 450.777C159.397 438.566 163.667 425.795 167.8 413.445C173.942 395.092 180.284 376.113 188.605 358.59C192.353 350.708 196.572 342.962 200.652 335.469C206.888 324.015 213.339 312.169 218.184 299.654C245.121 230.076 219.167 135.079 156.476 73.7759C153.517 70.881 150.382 67.9407 147.354 65.0928C131.888 50.5681 115.9 35.5593 110.709 16.3063C105.988 -1.18747 111.388 -16.9621 118.377 -34.2964C118.462 -34.5254 118.629 -34.6634 118.839 -34.7253Z" fill="white"/>
<path d="M65.1594 499.48C68.3617 498.511 71.937 499.453 74.4838 501.929C77.0642 504.443 77.9033 507.828 76.6757 510.774C72.444 520.891 64.2462 527.841 58.1098 531.896C48.9446 537.948 38.2348 542.004 27.8762 545.921C25.2554 546.914 22.6346 547.907 20.041 548.923C-37.767 571.697 -78.6151 610.725 -92.0212 656.012C-92.1496 656.443 -92.6483 656.657 -93.1286 656.491C-93.6089 656.324 -93.9028 655.837 -93.7671 655.404C-86.5978 631.18 -72.2198 609.134 -51.0434 589.876C-32.2096 572.743 -7.91951 558.046 19.1973 547.363C21.8022 546.335 24.4231 545.342 27.0511 544.347C37.3224 540.456 47.9512 536.441 56.9681 530.482C62.9334 526.543 70.9012 519.798 74.9882 510.021C75.9625 507.687 75.2979 505.001 73.2523 503.013C71.2371 501.056 68.4194 500.309 65.8939 501.073C55.7704 504.135 47.0632 511.24 38.6378 518.107C36.8482 519.568 35.0774 521.015 33.2989 522.409C19.0526 533.628 2.36846 542.466 -13.7696 551.011C-34.7943 562.146 -56.5342 573.657 -72.7241 590.454C-83.3702 601.495 -91.6053 614.95 -96.5347 629.372C-96.6809 629.801 -97.189 629.994 -97.6653 629.818C-98.1446 629.636 -98.4167 629.142 -98.2705 628.714C-93.2694 614.102 -84.9199 600.461 -74.1363 589.266C-57.7756 572.297 -35.9287 560.729 -14.7971 549.539C1.27861 541.021 17.9036 532.217 32.0338 521.089C33.7977 519.699 35.5718 518.259 37.3467 516.802C45.8955 509.842 54.7229 502.637 65.1594 499.48Z" fill="white"/>
<path d="M130.192 -31.1577C130.467 -31.2388 130.795 -31.167 131.075 -30.9478C131.509 -30.6055 131.645 -30.0156 131.379 -29.644C123.706 -18.5926 116.238 3.35101 124.599 15.3682C133.17 27.6871 139.059 34.3806 150.861 45.2132C158.474 52.1969 166.402 58.9364 174.069 65.4603C203.559 90.5361 231.418 114.221 241.303 150.267C253.892 196.165 246.172 249.399 239.969 292.173C238.718 300.814 238.074 309.871 237.394 319.462C235.664 343.91 233.866 369.186 221.328 386.822C217.003 392.9 211.997 398.558 207.165 404.022C201.106 410.87 194.843 417.955 189.909 425.891C179.73 442.271 174.982 462.577 170.402 482.222C164.571 507.179 158.539 532.977 141.262 550.493C130.436 561.464 115.963 568.283 101.969 574.872C99.3139 576.127 96.655 577.373 94.0282 578.654C45.2588 602.342 2.51683 637.733 -29.5912 681C-29.8648 681.373 -30.4351 681.382 -30.8583 681.028C-31.2887 680.675 -31.4069 680.089 -31.1298 679.723C1.1096 636.276 44.0331 600.742 92.9946 576.953C95.6286 575.67 98.2876 574.424 100.95 573.167C114.836 566.628 129.188 559.871 139.844 549.066C156.84 531.836 162.824 506.239 168.613 481.48C173.231 461.718 178.005 441.289 188.312 424.702C193.308 416.669 199.607 409.537 205.706 402.651C210.516 397.211 215.498 391.587 219.782 385.565C232.079 368.267 233.857 343.219 235.578 318.986C236.234 309.793 236.907 300.275 238.172 291.576C244.352 248.968 252.042 195.939 239.559 150.436C229.859 115.071 202.277 91.6159 173.07 66.7848C165.381 60.2495 157.439 53.4965 149.794 46.478C137.838 35.5044 131.866 28.7199 123.177 16.2316C114.178 3.29355 121.645 -19.1026 129.829 -30.873C129.909 -31.021 130.04 -31.1128 130.192 -31.1577Z" fill="white"/>
<path d="M154.123 -30.9692C154.405 -31.0525 154.75 -30.9772 155.03 -30.7404C155.453 -30.3862 155.571 -29.8002 155.294 -29.4345C155.119 -29.2055 138.057 -6.23173 152.234 14.2148C156.05 19.723 164.296 27.0277 174.727 36.2773C204.206 62.4148 248.763 101.921 257.441 156.563C267.616 220.662 262.051 253.99 257.989 278.332C257.35 282.148 256.748 285.759 256.237 289.281C254.875 298.633 253.826 308.655 252.722 319.262C250.728 338.363 248.664 358.123 244.569 374.794C241.189 388.538 230.684 400.635 220.521 412.328C211.603 422.59 203.18 432.28 200.745 441.94C199.535 446.742 198.382 454.364 196.932 464.027C192.064 496.377 184.703 545.261 163.708 566.106C148.323 581.382 118.29 599.36 94.1568 613.804C75.4346 625.009 59.2603 634.69 54.8971 640.023C52.6863 642.725 47.9445 646.662 41.3909 652.119C27.2706 663.873 5.93588 681.633 -10.8545 704.5C-11.128 704.873 -11.6944 704.89 -12.1245 704.538C-12.5546 704.186 -12.6798 703.602 -12.4064 703.228C4.48612 680.225 25.8971 662.398 40.0718 650.601C46.3205 645.394 51.2621 641.283 53.389 638.686C57.9088 633.173 74.1702 623.431 93.0083 612.156C117.076 597.749 147.026 579.822 162.291 564.661C182.951 544.147 190.266 495.559 195.111 463.411C196.569 453.711 197.723 446.053 198.955 441.174C201.483 431.176 210.011 421.357 219.042 410.964C229.092 399.402 239.485 387.436 242.775 374.037C246.844 357.472 248.904 337.775 250.894 318.72C252.005 308.093 253.051 298.063 254.42 288.673C254.935 285.141 255.54 281.521 256.176 277.696C260.219 253.475 265.758 220.306 255.627 156.504C247.073 102.642 202.9 63.4749 173.674 37.5549C163.121 28.1993 154.786 20.8058 150.795 15.0565C135.798 -6.56703 153.578 -30.489 153.756 -30.728C153.858 -30.8468 153.985 -30.9287 154.123 -30.9692Z" fill="white"/>
<path d="M200.859 -56.3418C201.213 -56.4464 201.659 -56.2945 201.937 -55.9335C202.279 -55.5029 202.253 -54.9279 201.88 -54.6669C201.528 -54.4124 166.557 -28.9865 181.82 3.46343C186.294 12.981 196.474 23.7377 208.259 36.1919C238.074 67.7104 278.916 110.879 276.225 181.081C274.402 228.815 272.472 262.463 270.923 289.501C269.333 317.224 268.188 337.248 268.193 355.761C268.215 395.781 227.294 431.092 219.085 437.763C211.423 443.997 209.224 469.561 206.886 496.628C204.722 521.748 202.484 547.713 195.718 562.581C169.459 620.318 132.601 659.845 83.0391 683.439C26.2381 710.476 16.1919 739.315 8.12673 762.491C6.56616 766.967 5.09768 771.194 3.36759 775.242C3.18396 775.668 2.65671 775.806 2.17964 775.531C1.70611 775.263 1.48008 774.691 1.66017 774.257C3.3683 770.251 4.83296 766.052 6.37894 761.598C14.5362 738.173 24.6858 709.02 82.015 681.739C131.27 658.297 167.906 618.987 194.022 561.567C200.673 546.936 202.9 521.107 205.056 496.132C207.414 468.731 209.645 442.856 217.775 436.244C225.893 429.645 266.368 394.722 266.351 355.419C266.342 336.863 267.492 316.811 269.085 289.06C270.637 262.03 272.563 228.392 274.387 180.675C277.038 111.327 236.582 68.5588 207.039 37.3324C195.112 24.7254 184.814 13.8351 180.18 3.9835C164.283 -29.8301 200.269 -55.9813 200.635 -56.2401C200.714 -56.2814 200.787 -56.3205 200.859 -56.3418Z" fill="white"/>
</g>
<g opacity="0.2">
<path d="M1883.26 1399.01C1883.9 1399.43 1884.22 1399.33 1884.51 1399.23C1885.03 1399.07 1885.43 1398.59 1885.56 1398C1885.7 1397.39 1885.36 1396.84 1884.8 1396.79C1884.6 1396.77 1884.41 1396.81 1884.23 1396.91C1882.78 1395.82 1877.95 1389.91 1862.32 1365.22C1861.85 1364.47 1861.48 1363.9 1861.26 1363.54C1848.37 1336.88 1845.28 1296.29 1852.77 1252.14C1860.05 1209.27 1876.1 1168.29 1896.8 1139.7C1897.77 1138.36 1898.75 1137.02 1899.73 1135.67C1910.64 1120.76 1921.92 1105.33 1923.13 1087.88C1924.23 1072.08 1916.25 1056.87 1901.79 1047.21C1890.09 1039.39 1875.95 1035.82 1862.3 1032.36L1858.93 1031.51C1818.32 1021.14 1767.4 1004.26 1733.92 965.504C1699.69 925.879 1692 866.216 1715.2 820.391C1726.25 798.574 1743.43 780.326 1760.05 762.683C1766.99 755.32 1774.15 747.701 1780.8 739.913C1794.33 724.059 1824.75 683.158 1814.71 645.882C1811.11 632.535 1802.71 621.842 1794.6 611.502C1784.59 598.758 1775.15 586.716 1773.83 570.113C1771.18 536.541 1802.91 506.978 1832.86 481.909C1881.67 441.056 1921.67 387.874 1960.35 336.426C1963.96 331.621 1967.56 326.84 1971.16 322.06C1984.18 304.814 1988.84 274.683 1990.45 258.265C1992.89 233.566 1991.78 208.44 1987.58 192.662C1987.43 192.104 1986.86 191.843 1986.31 192.094C1985.75 192.34 1985.42 193.002 1985.58 193.56C1993.84 224.544 1989.99 293.883 1969.65 320.82C1966.04 325.601 1962.43 330.391 1958.83 335.187C1920.24 386.503 1880.34 439.57 1831.77 480.228C1801.31 505.724 1769.04 535.84 1771.79 570.624C1773.15 587.84 1783.21 600.661 1792.95 613.062C1800.96 623.262 1809.24 633.81 1812.73 646.771C1822.47 682.947 1792.66 722.998 1779.4 738.538C1772.78 746.282 1765.64 753.872 1758.73 761.212C1741.98 778.994 1724.66 797.387 1713.43 819.556C1701.28 843.564 1697.09 870.895 1701.31 898.595C1705.22 924.16 1716.23 948.502 1732.32 967.122C1766.1 1006.24 1817.32 1023.23 1858.19 1033.66L1861.56 1034.52C1875.08 1037.94 1889.06 1041.47 1900.52 1049.14C1914.44 1058.43 1922.13 1072.98 1921.08 1088.04C1919.91 1104.75 1908.87 1119.85 1898.19 1134.46C1897.2 1135.81 1896.22 1137.16 1895.25 1138.49C1874.31 1167.41 1858.09 1208.8 1850.75 1252.06C1843.06 1297.35 1846.14 1337.39 1859.42 1364.83L1859.48 1364.92C1859.7 1365.27 1860.07 1365.86 1860.57 1366.64C1876.45 1391.76 1881.32 1397.74 1883.26 1399.01Z" fill="white"/>
<path d="M1922.59 1362.38C1924.08 1363.35 1925.34 1363.77 1926.29 1363.57C1926.86 1363.44 1927.31 1362.85 1927.27 1362.25C1927.24 1361.64 1926.76 1361.26 1926.18 1361.38C1923.66 1361.94 1913.74 1352.28 1905.73 1335.51C1882.96 1296.99 1874 1252.96 1880.47 1211.42C1887.62 1165.54 1915.29 1122.08 1950.98 1100.68C1957.89 1096.54 1965.23 1093.08 1972.33 1089.74C1980.82 1085.74 1989.61 1081.59 1997.79 1076.22C2007.82 1069.65 2013.9 1062.66 2016.39 1054.86C2017.98 1049.89 2017.48 1044.77 2015.06 1040.81C2012.58 1036.78 2008.4 1034.43 2003.6 1034.37C1950.79 1033.78 1907.03 1032.4 1864.69 1020.63C1829.4 1010.83 1781.78 989.128 1755.29 941.407C1730.81 897.285 1732.68 838.615 1759.97 795.404C1767.57 783.366 1780.5 768.741 1794.2 753.241C1817.51 726.867 1843.93 696.968 1849.25 673.136C1854.85 648.016 1839.74 632.338 1825.13 617.185C1811.53 603.075 1797.47 588.482 1798.97 566.059C1802.11 519.08 1844.48 482.376 1881.86 449.988L1884.15 448.014C1949.45 391.417 1996.44 311.329 2016.48 222.493C2016.62 221.877 2016.27 221.345 2015.71 221.285C2015.15 221.225 2014.59 221.677 2014.45 222.299C1994.55 310.578 1947.86 390.142 1882.99 446.366L1880.7 448.34C1842.92 481.067 1800.1 518.167 1796.88 566.228C1795.32 589.583 1809.67 604.479 1823.56 618.883C1838.47 634.361 1852.55 648.969 1847.21 672.921C1842.05 696.087 1815.87 725.7 1792.77 751.828C1779 767.405 1766 782.122 1758.29 794.336C1730.54 838.29 1728.59 897.925 1753.45 942.722C1780.22 990.962 1828.27 1012.88 1863.88 1022.77C1906.41 1034.62 1950.3 1036.01 2003.25 1036.6C2007.44 1036.65 2011.09 1038.69 2013.25 1042.22C2015.37 1045.66 2015.78 1050.11 2014.41 1054.43C2012.12 1061.62 2006.39 1068.13 1996.9 1074.36C1988.86 1079.63 1980.15 1083.74 1971.73 1087.71C1964.58 1091.08 1957.19 1094.56 1950.17 1098.76C1931.74 1109.81 1915.24 1126.52 1902.45 1147.07C1890.21 1166.75 1881.9 1188.99 1878.4 1211.38C1871.86 1253.43 1880.89 1297.98 1903.87 1336.83C1909.91 1349.46 1917.53 1359.08 1922.59 1362.38Z" fill="white"/>
<path d="M1932.99 1308.76C1933.09 1308.82 1933.19 1308.89 1933.29 1308.94C1933.76 1309.22 1934.41 1309 1934.74 1308.45C1935.07 1307.9 1934.94 1307.2 1934.5 1306.96C1922.44 1299.81 1883.71 1228.24 1903.31 1193.69C1923.98 1157.25 1940.78 1138.04 1985.66 1120.47C2017.63 1107.96 2046.27 1084.63 2058.63 1061.01C2064.35 1050.06 2066.12 1039.68 2063.73 1030.96C2055.55 1001.03 1989.08 1006.32 1950.18 1012.15C1912.3 1017.82 1870.71 1005.46 1850.75 993.811C1848.48 992.485 1846.4 991.274 1844.55 990.232C1838.04 986.559 1830.81 984.256 1823.16 981.814C1808.95 977.286 1797.28 962.84 1781.79 947.225C1755.08 920.322 1745.8 896.629 1749.75 865.454C1754.3 829.559 1780.49 795.366 1799.8 772.781L1800.87 771.521C1822.33 746.436 1866.96 694.245 1863.41 655.371C1860.6 624.406 1847.09 605.395 1835.17 588.605C1831.95 584.071 1828.91 579.79 1826.21 575.454C1814.17 556.145 1816.7 547.604 1821.74 530.587L1822.32 528.627C1827.45 511.227 1854.28 483.783 1895.93 453.32C1945.41 417.126 1993.68 354.105 2007.29 335.649C2034.73 298.464 2050.59 272.687 2050.74 272.437C2051.07 271.889 2050.95 271.21 2050.5 270.934C2050.04 270.657 2049.39 270.875 2049.05 271.418C2048.89 271.677 2033.08 297.352 2005.73 334.434C1992.18 352.808 1944.12 415.561 1894.94 451.532C1852.21 482.783 1825.71 510.035 1820.34 528.254L1819.76 530.214C1814.52 547.896 1811.89 556.774 1824.42 576.879C1827.15 581.261 1830.2 585.562 1833.45 590.113C1845.22 606.701 1858.57 625.494 1861.35 655.904C1864.8 693.728 1820.65 745.342 1799.44 770.141L1798.36 771.401C1778.82 794.252 1752.31 828.878 1747.69 865.474C1743.64 897.394 1753.08 921.576 1780.24 948.947C1796.04 964.857 1807.9 979.361 1822.29 983.953C1829.86 986.366 1837 988.64 1843.37 992.231C1845.22 993.273 1847.29 994.479 1849.55 995.8C1869.69 1007.55 1911.63 1020.11 1950.16 1014.34C1988.46 1008.61 2053.9 1003.26 2061.72 1031.86C2063.94 1040.01 2062.26 1049.79 2056.84 1060.15C2044.76 1083.22 2016.65 1106.09 1985.22 1118.37C1939.62 1136.21 1922.56 1155.72 1901.57 1192.73C1881.05 1228.92 1919.98 1300.28 1932.99 1308.76Z" fill="white"/>
<path d="M2084.14 845.097C2096.01 852.802 2109.42 857.53 2120.84 860.958C2127.98 863.099 2135.64 865.116 2143.78 864.022C2154.81 862.534 2165.27 855.584 2174.49 849.442C2218.57 820.13 2258.4 795.911 2299.59 796.36C2311.59 796.49 2323.65 798.898 2335.42 803.53C2335.95 803.74 2336.62 803.409 2336.91 802.8C2337.2 802.191 2337.01 801.517 2336.48 801.308C2324.5 796.605 2312.22 794.158 2299.99 794.025C2254.77 793.526 2207.85 824.726 2173.58 847.509C2164.58 853.5 2154.37 860.29 2143.88 861.696C2136.13 862.736 2128.7 860.791 2121.76 858.704C2105.05 853.678 2084.08 845.873 2070.14 829.952C2052.79 810.135 2047.82 780.043 2045.24 753.214C2044.81 748.757 2044.44 744.266 2044.04 739.773C2041.99 715.826 2039.87 691.062 2030.86 669.888C2028.37 664.039 2025.32 658.371 2022.37 652.871C2015.71 640.478 2008.83 627.664 2008.34 612.529C2008.1 605.385 2009.48 599.326 2012.41 594.519C2014.84 590.557 2018.36 587.37 2021.76 584.295L2050.94 557.904C2057.36 552.105 2064.61 545.543 2072.77 542.883C2083.89 539.255 2094.46 543.351 2104.69 547.318C2106.67 548.088 2108.71 548.881 2110.73 549.6C2127.78 555.692 2152.34 554.129 2178.12 545.317C2205.32 536.01 2231.75 519.519 2252.53 498.892C2253.02 498.412 2253.1 497.669 2252.74 497.237C2252.37 496.795 2251.67 496.828 2251.2 497.304C2205.49 542.686 2143.21 558.623 2111.74 547.365C2109.76 546.654 2107.72 545.86 2105.75 545.101C2095.21 541.022 2084.32 536.804 2072.49 540.666C2063.82 543.493 2056.33 550.274 2049.72 556.24L2020.54 582.631C2017.14 585.696 2013.3 589.178 2010.65 593.508C2007.42 598.802 2005.91 605.375 2006.16 613.033C2006.66 628.687 2013.66 641.717 2020.44 654.315C2023.37 659.772 2026.39 665.407 2028.85 671.165C2037.73 692.033 2039.83 716.622 2041.87 740.389C2042.26 744.891 2042.65 749.389 2043.07 753.856C2045.68 781.014 2050.73 811.495 2068.44 831.723C2073.05 836.986 2078.42 841.387 2084.14 845.097Z" fill="white"/>
<path d="M2073.43 880.773C2076.58 882.814 2079.94 884.774 2083.51 886.668C2091.08 890.676 2100.22 894.733 2110.58 894.428C2122.04 894.107 2133.39 888.518 2143.14 883.312C2156.11 876.385 2169.05 868.553 2181.57 860.984C2206.54 845.874 2232.36 830.265 2259.3 821.28C2266.59 818.843 2276.13 816.147 2285.18 816.882C2297.93 817.923 2308.24 825.714 2314.89 831.481C2315.32 831.86 2316.02 831.728 2316.44 831.197C2316.86 830.666 2316.86 829.935 2316.43 829.567C2309.6 823.64 2298.99 815.628 2285.71 814.547C2276.3 813.782 2266.48 816.546 2258.99 819.044C2231.79 828.109 2205.85 843.803 2180.76 858.982C2168.28 866.542 2155.36 874.349 2142.45 881.241C2132.94 886.325 2121.88 891.766 2110.89 892.084C2100.97 892.368 2092.11 888.427 2084.73 884.521C2066.91 875.089 2054.66 863.888 2047.27 850.28C2035.87 829.231 2036 802.148 2036.13 775.948C2036.17 766.097 2036.22 755.909 2035.67 746.151C2033.31 705.121 2019.05 666.5 1995.54 637.404L1995.31 637.122C1991.1 631.913 1986.32 626 1987.16 618.638C1987.78 613.157 1991.51 607.832 1994.5 603.553C2013.34 576.623 2034.72 546.106 2063.28 527.433C2067.71 524.538 2072.97 521.484 2078.45 520.745C2084.39 519.946 2089.97 521.962 2095.38 523.918L2096.05 524.164C2115.62 531.231 2143 532.399 2169.29 527.297C2199.66 521.394 2225.01 507.713 2240.65 488.766C2241.09 488.241 2241.1 487.515 2240.67 487.137C2240.25 486.758 2239.56 486.869 2239.13 487.395C2205.3 528.36 2133.57 535.12 2097.04 521.94L2096.37 521.695C2090.76 519.662 2084.95 517.559 2078.53 518.43C2072.58 519.234 2066.77 522.626 2062.38 525.502C2033.37 544.468 2011.83 575.231 1992.83 602.382C1989.65 606.922 1985.69 612.58 1984.99 618.752C1984.04 627.04 1989.1 633.295 1993.56 638.813L1993.79 639.095C2017.06 667.882 2031.16 706.099 2033.49 746.685C2034.05 756.359 2034 766.516 2033.95 776.335C2033.82 802.808 2033.68 830.186 2045.34 851.702C2051.39 862.894 2060.64 872.47 2073.43 880.773Z" fill="white"/>
<path d="M2049.54 913.652C2064.29 923.23 2080.86 925.865 2096.19 920.823C2106.01 917.59 2115.08 911.337 2123.85 905.281L2125.4 904.216C2166.59 875.856 2209.93 851.31 2254.23 831.241C2263.32 827.121 2272.18 823.522 2280.45 824.748C2289.73 826.127 2296.48 833.396 2302.61 840.719C2302.97 841.16 2303.65 841.134 2304.13 840.663C2304.61 840.191 2304.69 839.465 2304.32 839.024C2297.98 831.442 2290.97 823.918 2281.09 822.453C2272.26 821.144 2263.09 824.865 2253.68 829.13C2209.25 849.257 2165.77 873.886 2124.45 902.324L2122.9 903.39C2114.28 909.336 2105.37 915.491 2095.88 918.606C2078.59 924.287 2058.8 919.433 2042.94 905.612C2022.18 887.522 2010.74 858.171 2012.34 827.097C2012.91 816.16 2015.02 804.897 2017.07 794.013C2019.53 780.945 2022.07 767.437 2021.97 754.311C2021.75 723.345 2007.25 697.903 1993.24 673.299C1987.08 662.489 1980.72 651.301 1975.65 639.802C1973.6 635.169 1971.47 629.73 1972.07 623.87C1972.69 617.756 1976.2 611.789 1979.29 606.535L2009.73 554.828C2015.69 544.688 2022.45 533.198 2031.92 525.335C2039.42 519.105 2048.21 515.379 2056.71 511.783L2089.92 497.732C2097.73 494.437 2106.58 490.693 2114.7 491.939C2120.66 492.857 2125.67 496.426 2130.52 499.881C2132.11 501.015 2133.75 502.194 2135.42 503.264C2156.83 517.054 2207.1 489.258 2227.33 464.499C2227.75 463.978 2227.75 463.254 2227.33 462.878C2226.92 462.508 2226.22 462.622 2225.8 463.142C2206.55 486.699 2156.97 514.245 2136.74 501.225C2135.1 500.187 2133.49 499.01 2131.91 497.886C2126.91 494.317 2121.73 490.621 2115.34 489.635C2106.65 488.31 2097.11 492.34 2089.43 495.587L2056.22 509.638C2047.55 513.311 2038.59 517.098 2030.79 523.582C2020.94 531.764 2014.04 543.488 2007.96 553.837L1977.52 605.545C1974.28 611.048 1970.61 617.3 1969.93 624.001C1969.27 630.417 1971.52 636.162 1973.67 641.055C1978.79 652.654 1985.18 663.874 1991.36 674.727C2005.24 699.102 2019.59 724.319 2019.81 754.708C2019.9 767.593 2017.4 780.977 2014.95 793.926C2012.89 804.904 2010.76 816.254 2010.18 827.358C2008.55 859.076 2020.22 889.046 2041.4 907.512C2044.05 909.798 2046.76 911.846 2049.54 913.652Z" fill="white"/>
<path d="M2009.87 930.026C2013.04 932.082 2016.17 933.978 2019.22 935.725C2034.37 944.392 2054.72 954.035 2077.89 951.608C2102.08 949.073 2124.87 933.995 2146.9 919.414C2151.08 916.646 2155.41 913.783 2159.64 911.08C2193.98 889.141 2221.31 882.844 2240.87 892.384C2245.05 894.419 2248.85 897.181 2252.18 900.597C2252.57 901 2253.26 900.937 2253.72 900.429C2254.17 899.931 2254.22 899.193 2253.82 898.784C2250.36 895.227 2246.4 892.343 2242.04 890.233C2221.83 880.385 2193.82 886.741 2158.77 909.126C2154.52 911.844 2150.19 914.707 2145.99 917.48C2124.21 931.897 2101.68 946.795 2078.03 949.277C2055.41 951.651 2035.39 942.162 2020.48 933.619C1993.74 918.325 1960.61 891.205 1954.61 849.007C1953.62 842.003 1953.38 834.628 1953.16 827.485C1952.87 818.349 1952.57 808.894 1950.68 800.066C1947.62 785.745 1940.5 773.388 1933.61 761.449C1926.24 748.653 1918.61 735.426 1916.17 719.931C1911.63 691.039 1924.8 662.041 1938.74 631.34C1947.09 612.951 1955.73 593.942 1960.21 574.942C1961.57 569.16 1963 561.611 1961.89 554.477C1960.73 547.031 1956.97 540.454 1953.34 534.092C1947.95 524.655 1942.85 515.734 1946.55 504.952C1949.39 496.643 1957.49 489.448 1968.21 485.69C1973.12 483.968 1978.24 482.962 1983.17 481.986C1987.57 481.116 1992.13 480.215 1996.59 478.812C2012.1 473.931 2025.99 463.256 2039.41 452.927C2048.88 445.641 2058.68 438.106 2068.98 432.658C2100.71 415.866 2134.27 418.899 2171.69 424.208C2172.26 424.287 2172.88 423.838 2173.05 423.204C2173.22 422.57 2172.9 421.98 2172.33 421.901C2134.54 416.547 2100.63 413.49 2068.29 430.606C2057.8 436.157 2047.91 443.768 2038.34 451.123C2025.09 461.317 2011.39 471.846 1996.3 476.596C1991.96 477.956 1987.47 478.854 1983.13 479.705C1978.11 480.699 1972.92 481.718 1967.85 483.498C1956.36 487.516 1947.64 495.369 1944.5 504.503C1940.44 516.337 1946.03 526.101 1951.43 535.553C1954.97 541.755 1958.64 548.171 1959.74 555.226C1960.78 561.953 1959.41 569.189 1958.1 574.742C1953.68 593.477 1945.11 612.362 1936.81 630.627C1923.32 660.337 1909.36 691.059 1914.02 720.686C1916.52 736.571 1924.24 749.959 1931.71 762.906C1938.53 774.711 1945.58 786.928 1948.57 800.942C1950.41 809.579 1950.71 818.925 1951 827.966C1951.22 835.172 1951.47 842.61 1952.47 849.735C1957.88 887.869 1984.92 913.827 2009.87 930.026Z" fill="white"/>
<path d="M1981.28 966.815C1990.76 972.971 2001.02 977.966 2012.16 981.343C2043.79 990.919 2081.92 985.135 2114.16 965.865C2119.15 962.894 2124.18 959.517 2129.05 956.269C2144.07 946.224 2159.61 935.833 2175.71 935.469C2191.06 935.119 2202.43 944.216 2209.27 951.896C2209.65 952.318 2210.32 952.276 2210.79 951.798C2211.26 951.314 2211.33 950.59 2210.96 950.158C2200.8 938.741 2188.73 932.862 2176.02 933.146C2159.28 933.527 2143.44 944.115 2128.13 954.354C2123.29 957.592 2118.28 960.938 2113.37 963.881C2081.66 982.831 2044.17 988.519 2013.07 979.099C1965.55 964.716 1933.95 920.168 1911.73 882.975C1899.61 862.693 1901.72 846.168 1903.12 835.243C1903.3 833.792 1903.48 832.45 1903.59 831.232C1905.47 811.955 1901.31 793.67 1897.28 775.98C1893.07 757.489 1888.71 738.361 1891.43 718.352C1894.24 697.632 1904.45 677.496 1914.3 658.031C1924.71 637.464 1935.49 616.2 1937.7 594.056C1939.83 572.651 1934 550.87 1920.34 529.322L1919.34 527.759C1916.5 523.324 1913.56 518.739 1912.62 513.29C1909.91 497.547 1924.5 480.693 1940.17 473.483C1948.65 469.584 1957.65 467.503 1966.35 465.494C1973.71 463.788 1981.32 462.03 1988.68 459.175C2002.51 453.808 2015.26 444.659 2027.59 435.818C2034.06 431.178 2040.75 426.381 2047.51 422.202C2077.97 403.329 2113.55 395.196 2145.14 399.901C2145.71 399.985 2146.32 399.533 2146.49 398.907C2146.67 398.266 2146.34 397.689 2145.78 397.6C2113.72 392.83 2077.59 401.078 2046.67 420.237C2039.84 424.465 2033.12 429.288 2026.61 433.956C2014.41 442.709 2001.79 451.753 1988.25 457.006C1981.05 459.804 1973.52 461.539 1966.24 463.227C1957.42 465.263 1948.31 467.372 1939.61 471.377C1923 479.021 1907.57 497.071 1910.5 514.076C1911.5 519.93 1914.56 524.682 1917.5 529.282L1918.5 530.83C1931.9 551.991 1937.65 573.31 1935.56 594.194C1933.39 615.843 1922.74 636.866 1912.44 657.202C1902.47 676.882 1892.17 697.218 1889.29 718.401C1886.52 738.841 1890.91 758.18 1895.18 776.867C1899.16 794.382 1903.29 812.488 1901.45 831.38C1901.34 832.573 1901.16 833.883 1900.98 835.308C1899.63 845.869 1897.37 863.548 1909.85 884.444C1927.03 913.232 1949.83 946.398 1981.28 966.815Z" fill="white"/>
<path d="M2025.44 920.184C2044.25 932.395 2067.71 936.115 2089.78 930.063C2104.02 926.16 2117.67 918.424 2130.88 910.924C2132.58 909.961 2134.27 908.999 2135.98 908.043C2163.91 892.341 2192.84 878.563 2221.96 867.09C2231.17 863.453 2240.88 860.065 2249.44 861.844C2255.46 863.103 2261.16 867.037 2266.38 873.555C2268.06 875.657 2269.65 877.935 2271.1 880.323C2271.39 880.822 2272.06 880.889 2272.58 880.483C2273.11 880.076 2273.28 879.342 2272.99 878.842C2271.5 876.384 2269.87 874.037 2268.14 871.875C2262.67 865.043 2256.63 860.891 2250.2 859.554C2241.1 857.66 2231.05 861.167 2221.54 864.914C2192.31 876.436 2163.28 890.262 2135.25 906.018C2133.55 906.975 2131.85 907.937 2130.14 908.909C2117.07 916.32 2103.55 923.998 2089.6 927.812C2065.35 934.45 2039.34 928.985 2020.02 913.18C2002.6 898.917 1990.09 876.157 1984.79 849.065C1981.13 830.309 1980.83 809.926 1980.54 790.228C1980.12 761.882 1979.69 732.573 1969.17 707.884C1967.1 703.044 1964.62 698.284 1962.21 693.679C1956.1 681.981 1949.78 669.876 1950.11 655.657C1950.42 642.347 1956.27 629.674 1962.45 616.24C1967.23 605.871 1972.16 595.167 1974.27 584.195C1976.3 573.624 1975.61 563.195 1974.95 553.109C1974.65 548.518 1974.35 543.77 1974.3 539.085C1974.19 528.535 1975.9 509.063 1988.58 497.122C1994.47 491.579 2001.52 488.644 2009 485.536C2013.37 483.716 2017.88 481.844 2022.12 479.399C2030.1 474.801 2051.79 468.709 2076.01 471.974C2096.49 474.737 2113.49 468.56 2129.92 462.583C2147.8 456.091 2164.68 449.952 2185.55 454.644C2186.11 454.775 2186.74 454.362 2186.96 453.729C2187.18 453.095 2186.89 452.48 2186.33 452.354C2164.91 447.537 2146.93 454.067 2129.56 460.382C2113.37 466.268 2096.63 472.355 2076.64 469.658C2051.72 466.293 2029.92 472.444 2021.35 477.388C2017.25 479.749 2012.81 481.598 2008.52 483.378C2001.16 486.433 1993.55 489.605 1987.3 495.486C1973.82 508.181 1972 528.517 1972.11 539.508C1972.15 544.252 1972.47 549.037 1972.78 553.659C1973.42 563.592 1974.11 573.859 1972.14 584.1C1970.1 594.738 1965.23 605.293 1960.53 615.501C1954.49 628.593 1948.25 642.135 1947.93 655.981C1947.58 670.787 1954.03 683.129 1960.26 695.062C1962.64 699.625 1965.12 704.348 1967.15 709.123C1977.51 733.428 1977.94 762.516 1978.36 790.641C1978.65 810.445 1978.95 830.927 1982.66 849.89C1988.04 877.422 2000.78 900.59 2018.53 915.112C2020.73 916.939 2023.05 918.634 2025.44 920.184Z" fill="white"/>
<path d="M1822.95 982.757C1826.53 985.084 1830.27 987.258 1834.18 989.273C1862.04 1003.62 1894.78 1008.32 1920.19 1010.82C1953.6 1014.1 1987.92 1014.77 2022.21 1012.79C2023.7 1012.71 2025.19 1012.62 2026.68 1012.53C2043.4 1011.52 2060.68 1010.48 2075.71 1015.81C2096.98 1023.37 2112.75 1044.33 2116.86 1070.5C2116.95 1071.11 2117.51 1071.43 2118.09 1071.23C2118.67 1071.04 2119.07 1070.37 2118.97 1069.78C2114.75 1042.92 2098.54 1021.4 2076.66 1013.62C2061.3 1008.15 2043.81 1009.21 2026.9 1010.23C2025.4 1010.32 2023.92 1010.4 2022.44 1010.5C1988.25 1012.47 1954.03 1011.8 1920.71 1008.54C1895.46 1006.05 1862.93 1001.39 1835.35 987.177C1807.06 972.607 1787.32 949.484 1779.8 922.062C1769.97 886.294 1781.17 846.048 1792.29 818.588C1802.04 794.521 1815.01 771.213 1827.53 748.667C1832.77 739.247 1838.19 729.505 1843.3 719.838C1853.63 700.307 1864.87 677.08 1869.92 652.903C1875.32 627.098 1872.68 603.713 1862.49 587.053C1859.07 581.48 1854.67 576.136 1850.41 570.973C1839.16 557.338 1828.52 544.46 1833.51 526.791C1836.1 517.565 1842.8 509.686 1849.01 503.197C1869.55 481.715 1894.05 464.851 1917.74 448.539C1936.48 435.627 1955.87 422.282 1973.33 406.655C1981.42 399.41 1989.24 391.544 1996.81 383.932C2008.2 372.487 2019.98 360.655 2032.77 350.841C2057.56 331.831 2082.88 324.371 2102.25 330.391C2102.8 330.557 2103.43 330.195 2103.67 329.59C2103.91 328.975 2103.68 328.352 2103.14 328.186C2083.13 321.98 2057.11 329.588 2031.71 349.064C2018.76 358.991 2006.93 370.888 1995.48 382.392C1987.94 389.979 1980.13 397.814 1972.1 405C1954.78 420.514 1935.46 433.815 1916.78 446.673C1892.99 463.058 1868.38 480.005 1847.64 501.691C1841.19 508.439 1834.22 516.659 1831.46 526.476C1826.14 545.32 1837.61 559.212 1848.7 572.645C1852.92 577.755 1857.29 583.046 1860.63 588.512C1870.54 604.717 1873.1 627.536 1867.83 652.747C1862.85 676.586 1851.71 699.59 1841.47 718.949C1836.37 728.596 1830.96 738.318 1825.74 747.728C1813.16 770.344 1800.15 793.738 1790.34 817.962C1779.06 845.793 1767.71 886.606 1777.72 923.007C1784.36 947.155 1800.23 967.997 1822.95 982.757Z" fill="white"/>
<path d="M1920.53 960.39C1941.41 973.956 1965.3 982.205 1986.46 988.243C2016.1 996.701 2051.39 1004.29 2088.35 996.408C2096.93 994.579 2105.64 991.897 2114.06 989.303C2129.66 984.493 2145.81 979.517 2161.33 980.001C2168.6 980.227 2175.54 981.714 2181.96 984.407C2182.48 984.63 2183.13 984.317 2183.43 983.715C2183.73 983.113 2183.53 982.451 2183.02 982.233C2176.4 979.454 2169.25 977.928 2161.74 977.693C2145.87 977.201 2129.56 982.228 2113.78 987.083C2105.4 989.663 2096.75 992.336 2088.27 994.143C2051.75 1001.93 2016.74 994.396 1987.32 985.999C1950.48 975.484 1905.31 958.223 1882.7 917.753C1863.11 882.683 1863.79 837.599 1866.37 790.607C1868.6 749.67 1872.06 709.897 1889.48 673.533C1893.89 664.341 1899.22 655.347 1904.39 646.663C1910.06 637.11 1915.93 627.231 1920.63 616.985C1931.38 593.514 1933.15 571.571 1925.5 556.799C1922.21 550.475 1917.18 545.111 1912.3 539.92C1903.74 530.801 1895.65 522.178 1897.13 509.191C1898.87 494.031 1913.37 482.295 1927.36 472.805L2010.24 416.549C2029.56 403.431 2049.55 389.865 2071.01 382.21C2091.46 374.921 2112.55 373.272 2132.01 377.487C2132.57 377.607 2133.19 377.2 2133.4 376.568C2133.61 375.937 2133.32 375.333 2132.76 375.213C2112.94 370.937 2091.46 372.597 2070.63 380.027C2048.88 387.795 2028.76 401.45 2009.3 414.652L1926.41 470.918C1911.91 480.767 1896.84 493.017 1894.97 509.295C1893.38 523.29 1902.15 532.647 1910.65 541.691C1915.43 546.795 1920.39 552.067 1923.55 558.164C1930.89 572.325 1929.11 593.504 1918.69 616.265C1914.06 626.379 1908.24 636.186 1902.6 645.673C1897.4 654.423 1892.03 663.469 1887.58 672.773C1869.93 709.596 1866.45 749.643 1864.2 790.861C1861.72 836.312 1860.95 883.655 1880.79 919.171C1890.67 936.837 1904.74 950.137 1920.53 960.39Z" fill="white"/>
<path d="M1896.02 980.568C1930.58 1003.02 1975.86 1004.17 2019.74 1005.29C2024.64 1005.42 2029.52 1005.54 2034.37 1005.69C2065.83 1006.69 2097.36 1009.34 2128.1 1013.56C2137.22 1014.82 2147.75 1016.45 2157.24 1019.99C2157.76 1020.18 2158.41 1019.86 2158.69 1019.24C2158.96 1018.64 2158.75 1017.99 2158.23 1017.79C2148.57 1014.2 2137.93 1012.54 2128.71 1011.28C2097.91 1007.04 2066.31 1004.4 2034.79 1003.39C2029.93 1003.24 2025.05 1003.12 2020.15 1002.99C1973.6 1001.81 1925.48 1000.59 1890.65 973.809C1866.97 955.618 1850.15 925.012 1843.29 887.632C1837.76 857.47 1838.09 822.918 1844.32 778.889C1848.13 751.971 1854.58 716.92 1870.74 684.495C1876.02 673.893 1882.35 663.556 1888.48 653.547C1896.16 641.002 1904.11 628.028 1910.09 614.379C1920.12 591.517 1925.34 560.331 1909.97 541.342C1907.18 537.899 1903.72 534.813 1900.37 531.845C1892.74 525.075 1885.54 518.685 1885.57 508.255C1885.59 495.824 1896.51 484.588 1906 476.19C1965.65 423.478 2034.71 382.854 2105.74 358.7C2106.32 358.505 2106.73 357.847 2106.63 357.247C2106.54 356.642 2105.99 356.315 2105.4 356.519C2034.06 380.775 1964.69 421.574 1904.79 474.525C1894.84 483.32 1883.43 495.137 1883.4 508.636C1883.38 520.005 1891.24 526.981 1898.83 533.729C1902.14 536.653 1905.54 539.685 1908.24 543.027C1923.04 561.282 1917.89 591.512 1908.16 613.718C1902.25 627.182 1894.37 640.066 1886.73 652.54C1880.57 662.599 1874.2 672.997 1868.86 683.705C1852.53 716.476 1846.02 751.811 1842.18 778.924C1835.91 823.216 1835.57 858.011 1841.16 888.425C1848.11 926.28 1865.17 957.3 1889.2 975.763C1891.43 977.458 1893.7 979.061 1896.02 980.568Z" fill="white"/>
</g>
</svg>
